<svg width="249" height="115" viewBox="0 0 249 115" fill="none" xmlns="http://www.w3.org/2000/svg">
<path d="M2.6 55.9019V10.4019H9.75V55.9019H2.6ZM24.8579 10.4019L30.1229 42.7069L34.9979 10.4019H44.9429V55.9019H38.1829V23.2719L33.2429 55.9019H26.4829L21.1529 23.7269V55.9019H14.9129V10.4019H24.8579ZM60.6739 10.4019C67.8239 10.4019 71.3339 14.3669 71.3339 21.6469V27.5619C71.3339 34.8419 67.8239 38.8069 60.6739 38.8069H57.2939V55.9019H50.1439V10.4019H60.6739ZM60.6739 16.9019H57.2939V32.3069H60.6739C62.9489 32.3069 64.1839 31.2669 64.1839 28.0169V21.1919C64.1839 17.9419 62.9489 16.9019 60.6739 16.9019ZM97.1933 55.9019H89.9133C89.5233 54.7319 89.2633 54.0169 89.2633 50.3119V43.1619C89.2633 38.9369 87.8333 37.3769 84.5833 37.3769H82.1133V55.9019H74.9633V10.4019H85.7533C93.1633 10.4019 96.3483 13.8469 96.3483 20.8669V24.4419C96.3483 29.1219 94.8533 32.1769 91.6683 33.6719C95.2433 35.1669 96.4133 38.6119 96.4133 43.3569V50.3769C96.4133 52.5869 96.4783 54.2119 97.1933 55.9019ZM85.5583 16.9019H82.1133V30.8769H84.9083C87.5733 30.8769 89.1983 29.7069 89.1983 26.0669V21.5819C89.1983 18.3319 88.0933 16.9019 85.5583 16.9019ZM101.116 55.9019V10.4019H108.266V55.9019H101.116ZM123.374 10.4019L128.639 42.7069L133.514 10.4019H143.459V55.9019H136.699V23.2719L131.759 55.9019H124.999L119.669 23.7269V55.9019H113.429V10.4019H123.374ZM148.66 55.9019V10.4019H155.81V55.9019H148.66ZM152.885 0.781852H159.905L153.275 7.99685H148.465L152.885 0.781852ZM0.52 74.9019V68.4019H22.62V74.9019H15.145V113.902H7.995V74.9019H0.52ZM25.4439 68.4019H32.5939V103.502C32.5939 106.752 34.0239 107.922 36.2989 107.922C38.5739 107.922 40.0039 106.752 40.0039 103.502V68.4019H46.7639V103.047C46.7639 110.327 43.1239 114.487 36.1039 114.487C29.0839 114.487 25.4439 110.327 25.4439 103.047V68.4019ZM71.6402 68.4019L76.9052 100.707L81.7802 68.4019H91.7252V113.902H84.9652V81.2719L80.0252 113.902H73.2652L67.9352 81.7269V113.902H61.6952V68.4019H71.6402ZM112.786 68.4019L120.066 113.902H112.851L111.616 105.647H102.841L101.606 113.902H95.0412L102.321 68.4019H112.786ZM107.196 76.4619L103.751 99.4719H110.641L107.196 76.4619ZM108.171 58.7819H115.191L108.561 65.9969H103.751L108.171 58.7819ZM122.486 79.3219C122.486 72.0419 126.061 67.8819 133.016 67.8819C139.971 67.8819 143.546 72.0419 143.546 79.3219V80.7519H136.786V78.8669C136.786 75.6169 135.486 74.3819 133.211 74.3819C130.936 74.3819 129.636 75.6169 129.636 78.8669C129.636 88.2269 143.611 89.9819 143.611 102.982C143.611 110.262 139.971 114.422 132.951 114.422C125.931 114.422 122.291 110.262 122.291 102.982V100.187H129.051V103.437C129.051 106.687 130.481 107.857 132.756 107.857C135.031 107.857 136.461 106.687 136.461 103.437C136.461 94.0769 122.486 92.3219 122.486 79.3219ZM161.682 96.9369H168.442V102.982C168.442 110.262 164.802 114.422 157.782 114.422C150.762 114.422 147.122 110.262 147.122 102.982V79.3219C147.122 72.0419 150.762 67.8819 157.782 67.8819C164.802 67.8819 168.442 72.0419 168.442 79.3219V83.7419H161.682V78.8669C161.682 75.6169 160.252 74.3819 157.977 74.3819C155.702 74.3819 154.272 75.6169 154.272 78.8669V103.437C154.272 106.687 155.702 107.857 157.977 107.857C160.252 107.857 161.682 106.687 161.682 103.437V96.9369ZM188.641 68.4019L195.921 113.902H188.706L187.471 105.647H178.696L177.461 113.902H170.896L178.176 68.4019H188.641ZM183.051 76.4619L179.606 99.4719H186.496L183.051 76.4619ZM221.48 113.902H214.2C213.81 112.732 213.55 112.017 213.55 108.312V101.162C213.55 96.9369 212.12 95.3769 208.87 95.3769H206.4V113.902H199.25V68.4019H210.04C217.45 68.4019 220.635 71.8469 220.635 78.8669V82.4419C220.635 87.1219 219.14 90.1769 215.955 91.6719C219.53 93.1669 220.7 96.6119 220.7 101.357V108.377C220.7 110.587 220.765 112.212 221.48 113.902ZM209.845 74.9019H206.4V88.8769H209.195C211.86 88.8769 213.485 87.7069 213.485 84.0669V79.5819C213.485 76.3319 212.38 74.9019 209.845 74.9019ZM241.263 68.4019L248.543 113.902H241.328L240.093 105.647H231.318L230.083 113.902H223.518L230.798 68.4019H241.263ZM235.673 76.4619L232.228 99.4719H239.118L235.673 76.4619Z" fill="white"/>
</svg>
