<svg width="337" height="347" viewBox="0 0 337 347" fill="none" xmlns="http://www.w3.org/2000/svg">
<path d="M8.23 20.418H14.6C14.86 21.198 14.99 22.043 14.99 23.213C14.99 33.158 7.19 34.068 7.19 45.378C7.19 48.628 8.49 49.863 10.765 49.863C13.04 49.863 14.34 48.628 14.34 45.378V40.438H21.1V44.923C21.1 52.203 17.525 56.363 10.57 56.363C3.615 56.363 0.04 52.203 0.04 44.923C0.04 33.093 8.49 31.273 8.49 22.953C8.49 22.108 8.425 21.263 8.23 20.418ZM14.925 17.233H8.035V10.343H14.925V17.233ZM25.0229 55.843V10.343H36.3329C43.4829 10.343 46.9929 14.308 46.9929 21.588V44.598C46.9929 51.878 43.4829 55.843 36.3329 55.843H25.0229ZM36.2029 16.843H32.1729V49.343H36.2029C38.4779 49.343 39.8429 48.173 39.8429 44.923V21.263C39.8429 18.013 38.4779 16.843 36.2029 16.843ZM58.7061 16.843V29.518H68.5211V36.018H58.7061V49.343H71.0561V55.843H51.5561V10.343H71.0561V16.843H58.7061ZM84.9945 44.923V21.263C84.9945 13.983 88.8295 9.82302 95.8495 9.82302C102.869 9.82302 106.704 13.983 106.704 21.263V44.923C106.704 47.458 106.249 49.603 105.339 51.293C105.664 52.138 106.184 52.268 107.354 52.268H108.004V58.638H107.029C103.844 58.638 101.829 57.468 100.854 55.518C99.4245 56.038 97.7345 56.363 95.8495 56.363C88.8295 56.363 84.9945 52.203 84.9945 44.923ZM92.1445 20.808V45.378C92.1445 48.628 93.5745 49.863 95.8495 49.863C98.1245 49.863 99.5545 48.628 99.5545 45.378V20.808C99.5545 17.558 98.1245 16.323 95.8495 16.323C93.5745 16.323 92.1445 17.558 92.1445 20.808ZM111.026 10.343H118.176V45.443C118.176 48.693 119.606 49.863 121.881 49.863C124.156 49.863 125.586 48.693 125.586 45.443V10.343H132.346V44.988C132.346 52.268 128.706 56.428 121.686 56.428C114.666 56.428 111.026 52.268 111.026 44.988V10.343ZM144.399 16.843V29.518H154.214V36.018H144.399V49.343H156.749V55.843H137.249V10.343H156.749V16.843H144.399ZM147.584 0.723014H154.604L147.974 7.93801H143.164L147.584 0.723014ZM8.75 94.343V113.843H1.6V68.343H8.75V87.843H16.875V68.343H24.155V113.843H16.875V94.343H8.75ZM45.1993 68.343L52.4793 113.843H45.2643L44.0293 105.588H35.2543L34.0193 113.843H27.4543L34.7343 68.343H45.1993ZM39.6093 76.403L36.1643 99.413H43.0543L39.6093 76.403ZM66.599 68.343C74.009 68.343 77.194 71.788 77.194 78.808V80.433C77.194 85.113 75.764 88.103 72.579 89.598C76.414 91.093 77.909 94.538 77.909 99.348V103.053C77.909 110.073 74.204 113.843 67.054 113.843H55.809V68.343H66.599ZM66.144 93.368H62.959V107.343H67.054C69.459 107.343 70.759 106.238 70.759 102.858V98.893C70.759 94.668 69.394 93.368 66.144 93.368ZM66.404 74.843H62.959V86.868H65.754C68.419 86.868 70.044 85.698 70.044 82.058V79.523C70.044 76.273 68.939 74.843 66.404 74.843ZM82.2152 113.843V68.343H89.3652V107.343H101.13V113.843H82.2152ZM120.102 68.343L127.382 113.843H120.167L118.932 105.588H110.157L108.922 113.843H102.357L109.637 68.343H120.102ZM114.512 76.403L111.067 99.413H117.957L114.512 76.403ZM140.591 68.343L145.856 100.648L150.731 68.343H160.676V113.843H153.916V81.213L148.976 113.843H142.216L136.886 81.668V113.843H130.646V68.343H140.591ZM172.442 78.808V103.378C172.442 106.628 173.872 107.863 176.147 107.863C178.422 107.863 179.852 106.628 179.852 103.378V78.808C179.852 75.558 178.422 74.323 176.147 74.323C173.872 74.323 172.442 75.558 172.442 78.808ZM165.292 102.923V79.263C165.292 71.983 169.127 67.823 176.147 67.823C183.167 67.823 187.002 71.983 187.002 79.263V102.923C187.002 110.203 183.167 114.363 176.147 114.363C169.127 114.363 165.292 110.203 165.292 102.923ZM190.739 79.263C190.739 71.983 194.314 67.823 201.269 67.823C208.224 67.823 211.799 71.983 211.799 79.263V80.693H205.039V78.808C205.039 75.558 203.739 74.323 201.464 74.323C199.189 74.323 197.889 75.558 197.889 78.808C197.889 88.168 211.864 89.923 211.864 102.923C211.864 110.203 208.224 114.363 201.204 114.363C194.184 114.363 190.544 110.203 190.544 102.923V100.128H197.304V103.378C197.304 106.628 198.734 107.798 201.009 107.798C203.284 107.798 204.714 106.628 204.714 103.378C204.714 94.018 190.739 92.263 190.739 79.263ZM15.575 154.878H22.335V160.923C22.335 168.203 18.695 172.363 11.675 172.363C4.655 172.363 1.015 168.203 1.015 160.923V137.263C1.015 129.983 4.655 125.823 11.675 125.823C18.695 125.823 22.335 129.983 22.335 137.263V141.683H15.575V136.808C15.575 133.558 14.145 132.323 11.87 132.323C9.595 132.323 8.165 133.558 8.165 136.808V161.378C8.165 164.628 9.595 165.798 11.87 165.798C14.145 165.798 15.575 164.628 15.575 161.378V154.878ZM26.3482 126.343H33.4982V161.443C33.4982 164.693 34.9282 165.863 37.2032 165.863C39.4782 165.863 40.9082 164.693 40.9082 161.443V126.343H47.6682V160.988C47.6682 168.268 44.0282 172.428 37.0082 172.428C29.9882 172.428 26.3482 168.268 26.3482 160.988V126.343ZM68.4317 126.343L75.7117 171.843H68.4967L67.2617 163.588H58.4867L57.2517 171.843H50.6867L57.9667 126.343H68.4317ZM62.8417 134.403L59.3967 157.413H66.2867L62.8417 134.403ZM94.3164 171.843L85.4114 138.888V171.843H78.9764V126.343H87.9464L95.2914 153.578V126.343H101.661V171.843H94.3164ZM106.781 171.843V126.343H118.091C125.241 126.343 128.751 130.308 128.751 137.588V160.598C128.751 167.878 125.241 171.843 118.091 171.843H106.781ZM117.961 132.843H113.931V165.343H117.961C120.236 165.343 121.601 164.173 121.601 160.923V137.263C121.601 134.013 120.236 132.843 117.961 132.843ZM139.879 136.808V161.378C139.879 164.628 141.309 165.863 143.584 165.863C145.859 165.863 147.289 164.628 147.289 161.378V136.808C147.289 133.558 145.859 132.323 143.584 132.323C141.309 132.323 139.879 133.558 139.879 136.808ZM132.729 160.923V137.263C132.729 129.983 136.564 125.823 143.584 125.823C150.604 125.823 154.439 129.983 154.439 137.263V160.923C154.439 168.203 150.604 172.363 143.584 172.363C136.564 172.363 132.729 168.203 132.729 160.923ZM8.75 210.343V229.843H1.6V184.343H8.75V203.843H16.875V184.343H24.155V229.843H16.875V210.343H8.75ZM45.1993 184.343L52.4793 229.843H45.2643L44.0293 221.588H35.2543L34.0193 229.843H27.4543L34.7343 184.343H45.1993ZM39.6093 192.403L36.1643 215.413H43.0543L39.6093 192.403ZM66.599 184.343C74.009 184.343 77.194 187.788 77.194 194.808V196.433C77.194 201.113 75.764 204.103 72.579 205.598C76.414 207.093 77.909 210.538 77.909 215.348V219.053C77.909 226.073 74.204 229.843 67.054 229.843H55.809V184.343H66.599ZM66.144 209.368H62.959V223.343H67.054C69.459 223.343 70.759 222.238 70.759 218.858V214.893C70.759 210.668 69.394 209.368 66.144 209.368ZM66.404 190.843H62.959V202.868H65.754C68.419 202.868 70.044 201.698 70.044 198.058V195.523C70.044 192.273 68.939 190.843 66.404 190.843ZM82.2152 229.843V184.343H89.3652V223.343H101.13V229.843H82.2152ZM120.102 184.343L127.382 229.843H120.167L118.932 221.588H110.157L108.922 229.843H102.357L109.637 184.343H120.102ZM114.512 192.403L111.067 215.413H117.957L114.512 192.403ZM140.591 184.343L145.856 216.648L150.731 184.343H160.676V229.843H153.916V197.213L148.976 229.843H142.216L136.886 197.668V229.843H130.646V184.343H140.591ZM172.442 194.808V219.378C172.442 222.628 173.872 223.863 176.147 223.863C178.422 223.863 179.852 222.628 179.852 219.378V194.808C179.852 191.558 178.422 190.323 176.147 190.323C173.872 190.323 172.442 191.558 172.442 194.808ZM165.292 218.923V195.263C165.292 187.983 169.127 183.823 176.147 183.823C183.167 183.823 187.002 187.983 187.002 195.263V218.923C187.002 226.203 183.167 230.363 176.147 230.363C169.127 230.363 165.292 226.203 165.292 218.923ZM190.739 195.263C190.739 187.983 194.314 183.823 201.269 183.823C208.224 183.823 211.799 187.983 211.799 195.263V196.693H205.039V194.808C205.039 191.558 203.739 190.323 201.464 190.323C199.189 190.323 197.889 191.558 197.889 194.808C197.889 204.168 211.864 205.923 211.864 218.923C211.864 226.203 208.224 230.363 201.204 230.363C194.184 230.363 190.544 226.203 190.544 218.923V216.128H197.304V219.378C197.304 222.628 198.734 223.798 201.009 223.798C203.284 223.798 204.714 222.628 204.714 219.378C204.714 210.018 190.739 208.263 190.739 195.263ZM226.053 229.843V184.343H237.363C244.513 184.343 248.023 188.308 248.023 195.588V218.598C248.023 225.878 244.513 229.843 237.363 229.843H226.053ZM237.233 190.843H233.203V223.343H237.233C239.508 223.343 240.873 222.173 240.873 218.923V195.263C240.873 192.013 239.508 190.843 237.233 190.843ZM259.736 190.843V203.518H269.551V210.018H259.736V223.343H272.086V229.843H252.586V184.343H272.086V190.843H259.736ZM23.83 287.843H16.55C16.16 286.673 15.9 285.958 15.9 282.253V275.103C15.9 270.878 14.47 269.318 11.22 269.318H8.75V287.843H1.6V242.343H12.39C19.8 242.343 22.985 245.788 22.985 252.808V256.383C22.985 261.063 21.49 264.118 18.305 265.613C21.88 267.108 23.05 270.553 23.05 275.298V282.318C23.05 284.528 23.115 286.153 23.83 287.843ZM12.195 248.843H8.75V262.818H11.545C14.21 262.818 15.835 261.648 15.835 258.008V253.523C15.835 250.273 14.73 248.843 12.195 248.843ZM34.9023 248.843V261.518H44.7173V268.018H34.9023V281.343H47.2523V287.843H27.7523V242.343H47.2523V248.843H34.9023ZM65.658 270.878H72.418V276.923C72.418 284.203 68.778 288.363 61.758 288.363C54.738 288.363 51.098 284.203 51.098 276.923V253.263C51.098 245.983 54.738 241.823 61.758 241.823C68.778 241.823 72.418 245.983 72.418 253.263V257.683H65.658V252.808C65.658 249.558 64.228 248.323 61.953 248.323C59.678 248.323 58.248 249.558 58.248 252.808V277.378C58.248 280.628 59.678 281.798 61.953 281.798C64.228 281.798 65.658 280.628 65.658 277.378V270.878ZM83.3213 252.808V277.378C83.3213 280.628 84.7513 281.863 87.0263 281.863C89.3013 281.863 90.7313 280.628 90.7313 277.378V252.808C90.7313 249.558 89.3013 248.323 87.0263 248.323C84.7513 248.323 83.3213 249.558 83.3213 252.808ZM76.1713 276.923V253.263C76.1713 245.983 80.0063 241.823 87.0263 241.823C94.0463 241.823 97.8813 245.983 97.8813 253.263V276.923C97.8813 284.203 94.0463 288.363 87.0263 288.363C80.0063 288.363 76.1713 284.203 76.1713 276.923ZM117.803 287.843L108.898 254.888V287.843H102.463V242.343H111.433L118.778 269.578V242.343H125.148V287.843H117.803ZM136.832 252.808V277.378C136.832 280.628 138.262 281.863 140.537 281.863C142.812 281.863 144.242 280.628 144.242 277.378V252.808C144.242 249.558 142.812 248.323 140.537 248.323C138.262 248.323 136.832 249.558 136.832 252.808ZM129.682 276.923V253.263C129.682 245.983 133.517 241.823 140.537 241.823C147.557 241.823 151.392 245.983 151.392 253.263V276.923C151.392 284.203 147.557 288.363 140.537 288.363C133.517 288.363 129.682 284.203 129.682 276.923ZM170.013 270.878H176.773V276.923C176.773 284.203 173.133 288.363 166.113 288.363C159.093 288.363 155.453 284.203 155.453 276.923V253.263C155.453 245.983 159.093 241.823 166.113 241.823C173.133 241.823 176.773 245.983 176.773 253.263V257.683H170.013V252.808C170.013 249.558 168.583 248.323 166.308 248.323C164.033 248.323 162.603 249.558 162.603 252.808V277.378C162.603 280.628 164.033 281.798 166.308 281.798C168.583 281.798 170.013 280.628 170.013 277.378V270.878ZM181.112 287.843V242.343H188.262V287.843H181.112ZM203.37 242.343L208.635 274.648L213.51 242.343H223.455V287.843H216.695V255.213L211.755 287.843H204.995L199.665 255.668V287.843H193.425V242.343H203.37ZM228.656 287.843V242.343H235.806V287.843H228.656ZM248.184 248.843V261.518H257.999V268.018H248.184V281.343H260.534V287.843H241.034V242.343H260.534V248.843H248.184ZM280.239 287.843L271.334 254.888V287.843H264.899V242.343H273.869L281.214 269.578V242.343H287.584V287.843H280.239ZM290.624 248.843V242.343H312.724V248.843H305.249V287.843H298.099V248.843H290.624ZM322.437 252.808V277.378C322.437 280.628 323.867 281.863 326.142 281.863C328.417 281.863 329.847 280.628 329.847 277.378V252.808C329.847 249.558 328.417 248.323 326.142 248.323C323.867 248.323 322.437 249.558 322.437 252.808ZM315.287 276.923V253.263C315.287 245.983 319.122 241.823 326.142 241.823C333.162 241.823 336.997 245.983 336.997 253.263V276.923C336.997 284.203 333.162 288.363 326.142 288.363C319.122 288.363 315.287 284.203 315.287 276.923ZM8.75 306.843V320.558H17.98V327.058H8.75V345.843H1.6V300.343H20.515V306.843H8.75ZM38.9786 300.343L46.2586 345.843H39.0436L37.8086 337.588H29.0336L27.7986 345.843H21.2336L28.5136 300.343H38.9786ZM33.3886 308.403L29.9436 331.413H36.8336L33.3886 308.403ZM63.5633 328.878H70.3233V334.923C70.3233 342.203 66.6833 346.363 59.6633 346.363C52.6433 346.363 49.0033 342.203 49.0033 334.923V311.263C49.0033 303.983 52.6433 299.823 59.6633 299.823C66.6833 299.823 70.3233 303.983 70.3233 311.263V315.683H63.5633V310.808C63.5633 307.558 62.1333 306.323 59.8583 306.323C57.5833 306.323 56.1533 307.558 56.1533 310.808V335.378C56.1533 338.628 57.5833 339.798 59.8583 339.798C62.1333 339.798 63.5633 338.628 63.5633 335.378V328.878ZM74.6615 345.843V300.343H81.8115V345.843H74.6615ZM102.899 300.343L110.179 345.843H102.964L101.729 337.588H92.9545L91.7195 345.843H85.1545L92.4345 300.343H102.899ZM97.3095 308.403L93.8645 331.413H100.754L97.3095 308.403ZM113.509 345.843V300.343H120.659V339.343H132.424V345.843H113.509ZM145.138 335.768H138.768C138.508 334.988 138.378 334.143 138.378 332.973C138.378 323.028 146.178 322.118 146.178 310.808C146.178 307.558 144.878 306.323 142.603 306.323C140.328 306.323 139.028 307.558 139.028 310.808V315.748H132.268V311.263C132.268 303.983 135.843 299.823 142.798 299.823C149.753 299.823 153.328 303.983 153.328 311.263C153.328 323.093 144.878 324.913 144.878 333.233C144.878 334.078 144.943 334.923 145.138 335.768ZM138.443 338.953H145.333V345.843H138.443V338.953Z" fill="white"/>
</svg>
