<svg width="293" height="173" viewBox="0 0 293 173" fill="none" xmlns="http://www.w3.org/2000/svg">
<path d="M8.23 20.1092H14.6C14.86 20.8892 14.99 21.7342 14.99 22.9042C14.99 32.8492 7.19 33.7592 7.19 45.0692C7.19 48.3192 8.49 49.5542 10.765 49.5542C13.04 49.5542 14.34 48.3192 14.34 45.0692V40.1292H21.1V44.6142C21.1 51.8942 17.525 56.0542 10.57 56.0542C3.615 56.0542 0.04 51.8942 0.04 44.6142C0.04 32.7842 8.49 30.9642 8.49 22.6442C8.49 21.7992 8.425 20.9542 8.23 20.1092ZM14.925 16.9242H8.035V10.0342H14.925V16.9242ZM35.5529 10.0342C42.7029 10.0342 46.2129 13.9992 46.2129 21.2792V27.1942C46.2129 34.4742 42.7029 38.4392 35.5529 38.4392H32.1729V55.5342H25.0229V10.0342H35.5529ZM35.5529 16.5342H32.1729V31.9392H35.5529C37.8279 31.9392 39.0629 30.8992 39.0629 27.6492V20.8242C39.0629 17.5742 37.8279 16.5342 35.5529 16.5342ZM56.4072 20.4992V45.0692C56.4072 48.3192 57.8372 49.5542 60.1122 49.5542C62.3872 49.5542 63.8172 48.3192 63.8172 45.0692V20.4992C63.8172 17.2492 62.3872 16.0142 60.1122 16.0142C57.8372 16.0142 56.4072 17.2492 56.4072 20.4992ZM49.2572 44.6142V20.9542C49.2572 13.6742 53.0922 9.51418 60.1122 9.51418C67.1322 9.51418 70.9672 13.6742 70.9672 20.9542V44.6142C70.9672 51.8942 67.1322 56.0542 60.1122 56.0542C53.0922 56.0542 49.2572 51.8942 49.2572 44.6142ZM97.8437 55.5342H90.5637C90.1737 54.3642 89.9137 53.6492 89.9137 49.9442V42.7942C89.9137 38.5692 88.4837 37.0092 85.2337 37.0092H82.7637V55.5342H75.6137V10.0342H86.4037C93.8137 10.0342 96.9987 13.4792 96.9987 20.4992V24.0742C96.9987 28.7542 95.5037 31.8092 92.3187 33.3042C95.8937 34.7992 97.0637 38.2442 97.0637 42.9892V50.0092C97.0637 52.2192 97.1287 53.8442 97.8437 55.5342ZM86.2087 16.5342H82.7637V30.5092H85.5587C88.2237 30.5092 89.8487 29.3392 89.8487 25.6992V21.2142C89.8487 17.9642 88.7437 16.5342 86.2087 16.5342ZM111.274 44.6142V20.9542C111.274 13.6742 115.109 9.51418 122.129 9.51418C129.149 9.51418 132.984 13.6742 132.984 20.9542V44.6142C132.984 47.1492 132.529 49.2942 131.619 50.9842C131.944 51.8292 132.464 51.9592 133.634 51.9592H134.284V58.3292H133.309C130.124 58.3292 128.109 57.1592 127.134 55.2092C125.704 55.7292 124.014 56.0542 122.129 56.0542C115.109 56.0542 111.274 51.8942 111.274 44.6142ZM118.424 20.4992V45.0692C118.424 48.3192 119.854 49.5542 122.129 49.5542C124.404 49.5542 125.834 48.3192 125.834 45.0692V20.4992C125.834 17.2492 124.404 16.0142 122.129 16.0142C119.854 16.0142 118.424 17.2492 118.424 20.4992ZM137.305 10.0342H144.455V45.1342C144.455 48.3842 145.885 49.5542 148.16 49.5542C150.435 49.5542 151.865 48.3842 151.865 45.1342V10.0342H158.625V44.6792C158.625 51.9592 154.985 56.1192 147.965 56.1192C140.945 56.1192 137.305 51.9592 137.305 44.6792V10.0342ZM170.679 16.5342V29.2092H180.494V35.7092H170.679V49.0342H183.029V55.5342H163.529V10.0342H183.029V16.5342H170.679ZM173.864 0.414176H180.884L174.254 7.62918H169.444L173.864 0.414176ZM8.75 94.0342V113.534H1.6V68.0342H8.75V87.5342H16.875V68.0342H24.155V113.534H16.875V94.0342H8.75ZM45.1993 68.0342L52.4793 113.534H45.2643L44.0293 105.279H35.2543L34.0193 113.534H27.4543L34.7343 68.0342H45.1993ZM39.6093 76.0942L36.1643 99.1042H43.0543L39.6093 76.0942ZM69.784 96.5692H76.544V102.614C76.544 109.894 72.904 114.054 65.884 114.054C58.864 114.054 55.224 109.894 55.224 102.614V78.9542C55.224 71.6742 58.864 67.5142 65.884 67.5142C72.904 67.5142 76.544 71.6742 76.544 78.9542V83.3742H69.784V78.4992C69.784 75.2492 68.354 74.0142 66.079 74.0142C63.804 74.0142 62.374 75.2492 62.374 78.4992V103.069C62.374 106.319 63.804 107.489 66.079 107.489C68.354 107.489 69.784 106.319 69.784 103.069V96.5692ZM88.0322 74.5342V87.2092H97.8472V93.7092H88.0322V107.034H100.382V113.534H80.8822V68.0342H100.382V74.5342H88.0322ZM114.693 68.0342L119.958 100.339L124.833 68.0342H134.778V113.534H128.018V80.9042L123.078 113.534H116.318L110.988 81.3592V113.534H104.748V68.0342H114.693ZM146.544 78.4992V103.069C146.544 106.319 147.974 107.554 150.249 107.554C152.524 107.554 153.954 106.319 153.954 103.069V78.4992C153.954 75.2492 152.524 74.0142 150.249 74.0142C147.974 74.0142 146.544 75.2492 146.544 78.4992ZM139.394 102.614V78.9542C139.394 71.6742 143.229 67.5142 150.249 67.5142C157.269 67.5142 161.104 71.6742 161.104 78.9542V102.614C161.104 109.894 157.269 114.054 150.249 114.054C143.229 114.054 139.394 109.894 139.394 102.614ZM164.84 78.9542C164.84 71.6742 168.415 67.5142 175.37 67.5142C182.325 67.5142 185.9 71.6742 185.9 78.9542V80.3842H179.14V78.4992C179.14 75.2492 177.84 74.0142 175.565 74.0142C173.29 74.0142 171.99 75.2492 171.99 78.4992C171.99 87.8592 185.965 89.6142 185.965 102.614C185.965 109.894 182.325 114.054 175.305 114.054C168.285 114.054 164.645 109.894 164.645 102.614V99.8192H171.405V103.069C171.405 106.319 172.835 107.489 175.11 107.489C177.385 107.489 178.815 106.319 178.815 103.069C178.815 93.7092 164.84 91.9542 164.84 78.9542ZM207.305 74.5342V87.2092H217.12V93.7092H207.305V107.034H219.655V113.534H200.155V68.0342H219.655V74.5342H207.305ZM223.175 78.9542C223.175 71.6742 226.75 67.5142 233.705 67.5142C240.66 67.5142 244.235 71.6742 244.235 78.9542V80.3842H237.475V78.4992C237.475 75.2492 236.175 74.0142 233.9 74.0142C231.625 74.0142 230.325 75.2492 230.325 78.4992C230.325 87.8592 244.3 89.6142 244.3 102.614C244.3 109.894 240.66 114.054 233.64 114.054C226.62 114.054 222.98 109.894 222.98 102.614V99.8192H229.74V103.069C229.74 106.319 231.17 107.489 233.445 107.489C235.72 107.489 237.15 106.319 237.15 103.069C237.15 93.7092 223.175 91.9542 223.175 78.9542ZM246.317 74.5342V68.0342H268.417V74.5342H260.942V113.534H253.792V74.5342H246.317ZM284.95 68.0342L292.23 113.534H285.015L283.78 105.279H275.005L273.77 113.534H267.205L274.485 68.0342H284.95ZM279.36 76.0942L275.915 99.1042H282.805L279.36 76.0942ZM15.575 154.569H22.335V160.614C22.335 167.894 18.695 172.054 11.675 172.054C4.655 172.054 1.015 167.894 1.015 160.614V136.954C1.015 129.674 4.655 125.514 11.675 125.514C18.695 125.514 22.335 129.674 22.335 136.954V141.374H15.575V136.499C15.575 133.249 14.145 132.014 11.87 132.014C9.595 132.014 8.165 133.249 8.165 136.499V161.069C8.165 164.319 9.595 165.489 11.87 165.489C14.145 165.489 15.575 164.319 15.575 161.069V154.569ZM42.5332 126.034L49.8132 171.534H42.5982L41.3632 163.279H32.5882L31.3532 171.534H24.7882L32.0682 126.034H42.5332ZM36.9432 134.094L33.4982 157.104H40.3882L36.9432 134.094ZM63.023 126.034L68.288 158.339L73.163 126.034H83.108V171.534H76.348V138.904L71.408 171.534H64.648L59.318 139.359V171.534H53.078V126.034H63.023ZM98.839 126.034C105.989 126.034 109.499 129.999 109.499 137.279V143.194C109.499 150.474 105.989 154.439 98.839 154.439H95.459V171.534H88.309V126.034H98.839ZM98.839 132.534H95.459V147.939H98.839C101.114 147.939 102.349 146.899 102.349 143.649V136.824C102.349 133.574 101.114 132.534 98.839 132.534ZM128.163 126.034L135.443 171.534H128.228L126.993 163.279H118.218L116.983 171.534H110.418L117.698 126.034H128.163ZM122.573 134.094L119.128 157.104H126.018L122.573 134.094ZM154.048 171.534L145.143 138.579V171.534H138.708V126.034H147.678L155.023 153.269V126.034H161.393V171.534H154.048ZM152.618 118.689C153.788 118.689 154.633 118.429 155.413 116.804L158.858 119.209C157.623 122.524 155.608 123.629 153.333 123.629C150.603 123.629 149.433 122.004 147.483 122.004C146.313 122.004 145.468 122.264 144.688 123.889L141.243 121.484C142.478 118.169 144.493 117.064 146.768 117.064C149.498 117.064 150.668 118.689 152.618 118.689ZM182.372 126.034L189.652 171.534H182.437L181.202 163.279H172.427L171.192 171.534H164.627L171.907 126.034H182.372ZM176.782 134.094L173.337 157.104H180.227L176.782 134.094ZM202.584 161.459H196.214C195.954 160.679 195.824 159.834 195.824 158.664C195.824 148.719 203.624 147.809 203.624 136.499C203.624 133.249 202.324 132.014 200.049 132.014C197.774 132.014 196.474 133.249 196.474 136.499V141.439H189.714V136.954C189.714 129.674 193.289 125.514 200.244 125.514C207.199 125.514 210.774 129.674 210.774 136.954C210.774 148.784 202.324 150.604 202.324 158.924C202.324 159.769 202.389 160.614 202.584 161.459ZM195.889 164.644H202.779V171.534H195.889V164.644Z" fill="white"/>
</svg>
