<svg width="378" height="404" viewBox="0 0 378 404" fill="none" xmlns="http://www.w3.org/2000/svg">
<path d="M10.401 56.64C6.98767 56.64 4.40633 55.68 2.657 53.76C0.907667 51.7973 0.0330001 49.0027 0.0330001 45.376V42.816H6.689V45.888C6.689 48.7893 7.905 50.24 10.337 50.24C11.5317 50.24 12.4277 49.8987 13.025 49.216C13.665 48.4907 13.985 47.3387 13.985 45.76C13.985 43.8827 13.5583 42.24 12.705 40.832C11.8517 39.3813 10.273 37.6533 7.969 35.648C5.06767 33.088 3.041 30.784 1.889 28.736C0.737 26.6453 0.161 24.2987 0.161 21.696C0.161 18.1547 1.057 15.424 2.849 13.504C4.641 11.5413 7.24367 10.56 10.657 10.56C14.0277 10.56 16.5663 11.5413 18.273 13.504C20.0223 15.424 20.897 18.1973 20.897 21.824V23.68H14.241V21.376C14.241 19.84 13.9423 18.7307 13.345 18.048C12.7477 17.3227 11.873 16.96 10.721 16.96C8.37433 16.96 7.201 18.3893 7.201 21.248C7.201 22.8693 7.62767 24.384 8.481 25.792C9.377 27.2 10.977 28.9067 13.281 30.912C16.225 33.472 18.2517 35.7973 19.361 37.888C20.4703 39.9787 21.025 42.432 21.025 45.248C21.025 48.9173 20.1077 51.7333 18.273 53.696C16.481 55.6587 13.857 56.64 10.401 56.64ZM25.0615 11.2H44.2615V17.6H32.1015V29.44H41.7655V35.84H32.1015V49.6H44.2615V56H25.0615V11.2ZM68.8015 56.64C65.3882 56.64 62.7855 55.68 60.9935 53.76C59.2015 51.7973 58.3055 49.0027 58.3055 45.376V11.2H65.3455V45.888C65.3455 47.424 65.6442 48.5333 66.2415 49.216C66.8815 49.8987 67.7775 50.24 68.9295 50.24C70.0815 50.24 70.9562 49.8987 71.5535 49.216C72.1935 48.5333 72.5135 47.424 72.5135 45.888V11.2H79.2975V45.376C79.2975 49.0027 78.4015 51.7973 76.6095 53.76C74.8175 55.68 72.2148 56.64 68.8015 56.64ZM93.4635 56.64C90.0502 56.64 87.4688 55.68 85.7195 53.76C83.9702 51.7973 83.0955 49.0027 83.0955 45.376V42.816H89.7515V45.888C89.7515 48.7893 90.9675 50.24 93.3995 50.24C94.5942 50.24 95.4902 49.8987 96.0875 49.216C96.7275 48.4907 97.0475 47.3387 97.0475 45.76C97.0475 43.8827 96.6208 42.24 95.7675 40.832C94.9142 39.3813 93.3355 37.6533 91.0315 35.648C88.1302 33.088 86.1035 30.784 84.9515 28.736C83.7995 26.6453 83.2235 24.2987 83.2235 21.696C83.2235 18.1547 84.1195 15.424 85.9115 13.504C87.7035 11.5413 90.3062 10.56 93.7195 10.56C97.0902 10.56 99.6288 11.5413 101.336 13.504C103.085 15.424 103.96 18.1973 103.96 21.824V23.68H97.3035V21.376C97.3035 19.84 97.0048 18.7307 96.4075 18.048C95.8102 17.3227 94.9355 16.96 93.7835 16.96C91.4368 16.96 90.2635 18.3893 90.2635 21.248C90.2635 22.8693 90.6902 24.384 91.5435 25.792C92.4395 27.2 94.0395 28.9067 96.3435 30.912C99.2875 33.472 101.314 35.7973 102.424 37.888C103.533 39.9787 104.088 42.432 104.088 45.248C104.088 48.9173 103.17 51.7333 101.336 53.696C99.5435 55.6587 96.9195 56.64 93.4635 56.64ZM118.3 56.64C114.844 56.64 112.199 55.6587 110.364 53.696C108.529 51.7333 107.612 48.96 107.612 45.376V21.824C107.612 18.24 108.529 15.4667 110.364 13.504C112.199 11.5413 114.844 10.56 118.3 10.56C121.756 10.56 124.401 11.5413 126.236 13.504C128.071 15.4667 128.988 18.24 128.988 21.824V45.376C128.988 48.96 128.071 51.7333 126.236 53.696C124.401 55.6587 121.756 56.64 118.3 56.64ZM118.3 50.24C120.732 50.24 121.948 48.768 121.948 45.824V21.376C121.948 18.432 120.732 16.96 118.3 16.96C115.868 16.96 114.652 18.432 114.652 21.376V45.824C114.652 48.768 115.868 50.24 118.3 50.24ZM118.94 0.831997H126.62L119.772 8.192H114.46L118.94 0.831997ZM143.999 11.2H163.199V17.6H151.039V29.44H160.703V35.84H151.039V49.6H163.199V56H143.999V11.2ZM167.249 11.2H174.289V49.6H185.873V56H167.249V11.2ZM208.651 56.64C205.238 56.64 202.656 55.68 200.907 53.76C199.158 51.7973 198.283 49.0027 198.283 45.376V42.816H204.939V45.888C204.939 48.7893 206.155 50.24 208.587 50.24C209.782 50.24 210.678 49.8987 211.275 49.216C211.915 48.4907 212.235 47.3387 212.235 45.76C212.235 43.8827 211.808 42.24 210.955 40.832C210.102 39.3813 208.523 37.6533 206.219 35.648C203.318 33.088 201.291 30.784 200.139 28.736C198.987 26.6453 198.411 24.2987 198.411 21.696C198.411 18.1547 199.307 15.424 201.099 13.504C202.891 11.5413 205.494 10.56 208.907 10.56C212.278 10.56 214.816 11.5413 216.523 13.504C218.272 15.424 219.147 18.1973 219.147 21.824V23.68H212.491V21.376C212.491 19.84 212.192 18.7307 211.595 18.048C210.998 17.3227 210.123 16.96 208.971 16.96C206.624 16.96 205.451 18.3893 205.451 21.248C205.451 22.8693 205.878 24.384 206.731 25.792C207.627 27.2 209.227 28.9067 211.531 30.912C214.475 33.472 216.502 35.7973 217.611 37.888C218.72 39.9787 219.275 42.432 219.275 45.248C219.275 48.9173 218.358 51.7333 216.523 53.696C214.731 55.6587 212.107 56.64 208.651 56.64ZM223.312 11.2H233.744C237.37 11.2 240.016 12.0533 241.68 13.76C243.344 15.424 244.176 18.0053 244.176 21.504V24.256C244.176 28.9067 242.64 31.8507 239.568 33.088V33.216C241.274 33.728 242.469 34.7733 243.152 36.352C243.877 37.9307 244.24 40.0427 244.24 42.688V50.56C244.24 51.84 244.282 52.8853 244.368 53.696C244.453 54.464 244.666 55.232 245.008 56H237.84C237.584 55.2747 237.413 54.592 237.328 53.952C237.242 53.312 237.2 52.16 237.2 50.496V42.304C237.2 40.256 236.858 38.8267 236.176 38.016C235.536 37.2053 234.405 36.8 232.784 36.8H230.352V56H223.312V11.2ZM232.912 30.4C234.32 30.4 235.365 30.0373 236.048 29.312C236.773 28.5867 237.135 27.3707 237.135 25.664V22.208C237.135 20.5867 236.837 19.4133 236.24 18.688C235.685 17.9627 234.789 17.6 233.552 17.6H230.352V30.4H232.912ZM249.124 11.2H267.748V17.6H256.164V30.08H265.252V36.48H256.164V56H249.124V11.2ZM281.374 11.2H291.742C295.241 11.2 297.865 12.1387 299.614 14.016C301.363 15.8933 302.238 18.6453 302.238 22.272V26.688C302.238 30.3147 301.363 33.0667 299.614 34.944C297.865 36.8213 295.241 37.76 291.742 37.76H288.414V56H281.374V11.2ZM291.742 31.36C292.894 31.36 293.747 31.04 294.302 30.4C294.899 29.76 295.198 28.672 295.198 27.136V21.824C295.198 20.288 294.899 19.2 294.302 18.56C293.747 17.92 292.894 17.6 291.742 17.6H288.414V31.36H291.742ZM309.252 11.2H318.788L326.084 56H319.044L317.764 47.104V47.232H309.764L308.484 56H301.956L309.252 11.2ZM316.932 41.152L313.796 19.008H313.668L310.595 41.152H316.932ZM329.499 11.2H339.931C343.558 11.2 346.203 12.0533 347.867 13.76C349.531 15.424 350.363 18.0053 350.363 21.504V24.256C350.363 28.9067 348.827 31.8507 345.755 33.088V33.216C347.462 33.728 348.656 34.7733 349.339 36.352C350.064 37.9307 350.427 40.0427 350.427 42.688V50.56C350.427 51.84 350.47 52.8853 350.555 53.696C350.64 54.464 350.854 55.232 351.195 56H344.027C343.771 55.2747 343.6 54.592 343.515 53.952C343.43 53.312 343.387 52.16 343.387 50.496V42.304C343.387 40.256 343.046 38.8267 342.363 38.016C341.723 37.2053 340.592 36.8 338.971 36.8H336.539V56H329.499V11.2ZM339.099 30.4C340.507 30.4 341.552 30.0373 342.235 29.312C342.96 28.5867 343.323 27.3707 343.323 25.664V22.208C343.323 20.5867 343.024 19.4133 342.427 18.688C341.872 17.9627 340.976 17.6 339.739 17.6H336.539V30.4H339.099ZM360.752 11.2H370.288L377.584 56H370.544L369.264 47.104V47.232H361.264L359.984 56H353.456L360.752 11.2ZM368.432 41.152L365.296 19.008H365.168L362.095 41.152H368.432ZM14.2135 114.64C10.8002 114.64 8.21883 113.68 6.4695 111.76C4.72017 109.797 3.8455 107.003 3.8455 103.376V100.816H10.5015V103.888C10.5015 106.789 11.7175 108.24 14.1495 108.24C15.3442 108.24 16.2402 107.899 16.8375 107.216C17.4775 106.491 17.7975 105.339 17.7975 103.76C17.7975 101.883 17.3708 100.24 16.5175 98.832C15.6642 97.3813 14.0855 95.6533 11.7815 93.648C8.88017 91.088 6.8535 88.784 5.7015 86.736C4.5495 84.6453 3.9735 82.2987 3.9735 79.696C3.9735 76.1547 4.8695 73.424 6.6615 71.504C8.4535 69.5413 11.0562 68.56 14.4695 68.56C17.8402 68.56 20.3788 69.5413 22.0855 71.504C23.8348 73.424 24.7095 76.1973 24.7095 79.824V81.68H18.0535V79.376C18.0535 77.84 17.7548 76.7307 17.1575 76.048C16.5602 75.3227 15.6855 74.96 14.5335 74.96C12.1868 74.96 11.0135 76.3893 11.0135 79.248C11.0135 80.8693 11.4402 82.384 12.2935 83.792C13.1895 85.2 14.7895 86.9067 17.0935 88.912C20.0375 91.472 22.0642 93.7973 23.1735 95.888C24.2828 97.9787 24.8375 100.432 24.8375 103.248C24.8375 106.917 23.9202 109.733 22.0855 111.696C20.2935 113.659 17.6695 114.64 14.2135 114.64ZM28.874 69.2H48.074V75.6H35.914V87.44H45.578V93.84H35.914V107.6H48.074V114H28.874V69.2ZM62.108 114.64C58.6947 114.64 56.092 113.68 54.3 111.76C52.508 109.797 51.612 107.003 51.612 103.376V79.824C51.612 76.1973 52.508 73.424 54.3 71.504C56.092 69.5413 58.6947 68.56 62.108 68.56C65.5213 68.56 68.124 69.5413 69.916 71.504C71.708 73.424 72.604 76.1973 72.604 79.824V83.664H65.948V79.376C65.948 76.432 64.732 74.96 62.3 74.96C59.868 74.96 58.652 76.432 58.652 79.376V103.888C58.652 106.789 59.868 108.24 62.3 108.24C64.732 108.24 65.948 106.789 65.948 103.888V95.12H62.428V88.72H72.604V103.376C72.604 107.003 71.708 109.797 69.916 111.76C68.124 113.68 65.5213 114.64 62.108 114.64ZM87.364 114.64C83.9507 114.64 81.348 113.68 79.556 111.76C77.764 109.797 76.868 107.003 76.868 103.376V69.2H83.908V103.888C83.908 105.424 84.2067 106.533 84.804 107.216C85.444 107.899 86.34 108.24 87.492 108.24C88.644 108.24 89.5187 107.899 90.116 107.216C90.756 106.533 91.076 105.424 91.076 103.888V69.2H97.86V103.376C97.86 107.003 96.964 109.797 95.172 111.76C93.38 113.68 90.7773 114.64 87.364 114.64ZM102.874 69.2H109.914V114H102.874V69.2ZM115.187 69.2H125.619C129.245 69.2 131.891 70.0533 133.555 71.76C135.219 73.424 136.051 76.0053 136.051 79.504V82.256C136.051 86.9067 134.515 89.8507 131.443 91.088V91.216C133.149 91.728 134.344 92.7733 135.027 94.352C135.752 95.9307 136.115 98.0427 136.115 100.688V108.56C136.115 109.84 136.157 110.885 136.243 111.696C136.328 112.464 136.541 113.232 136.883 114H129.715C129.459 113.275 129.288 112.592 129.203 111.952C129.117 111.312 129.075 110.16 129.075 108.496V100.304C129.075 98.256 128.733 96.8267 128.051 96.016C127.411 95.2053 126.28 94.8 124.659 94.8H122.227V114H115.187V69.2ZM124.787 88.4C126.195 88.4 127.24 88.0373 127.923 87.312C128.648 86.5867 129.01 85.3707 129.01 83.664V80.208C129.01 78.5867 128.712 77.4133 128.115 76.688C127.56 75.9627 126.664 75.6 125.427 75.6H122.227V88.4H124.787ZM140.999 69.2H148.039V107.6H159.623V114H140.999V69.2ZM172.925 114.64C169.469 114.64 166.824 113.659 164.989 111.696C163.154 109.733 162.237 106.96 162.237 103.376V79.824C162.237 76.24 163.154 73.4667 164.989 71.504C166.824 69.5413 169.469 68.56 172.925 68.56C176.381 68.56 179.026 69.5413 180.861 71.504C182.696 73.4667 183.613 76.24 183.613 79.824V103.376C183.613 106.96 182.696 109.733 180.861 111.696C179.026 113.659 176.381 114.64 172.925 114.64ZM172.925 108.24C175.357 108.24 176.573 106.768 176.573 103.824V79.376C176.573 76.432 175.357 74.96 172.925 74.96C170.493 74.96 169.277 76.432 169.277 79.376V103.824C169.277 106.768 170.493 108.24 172.925 108.24ZM197.526 114.64C194.113 114.64 191.531 113.68 189.782 111.76C188.033 109.797 187.158 107.003 187.158 103.376V100.816H193.814V103.888C193.814 106.789 195.03 108.24 197.462 108.24C198.657 108.24 199.553 107.899 200.15 107.216C200.79 106.491 201.11 105.339 201.11 103.76C201.11 101.883 200.683 100.24 199.83 98.832C198.977 97.3813 197.398 95.6533 195.094 93.648C192.193 91.088 190.166 88.784 189.014 86.736C187.862 84.6453 187.286 82.2987 187.286 79.696C187.286 76.1547 188.182 73.424 189.974 71.504C191.766 69.5413 194.369 68.56 197.782 68.56C201.153 68.56 203.691 69.5413 205.398 71.504C207.147 73.424 208.022 76.1973 208.022 79.824V81.68H201.366V79.376C201.366 77.84 201.067 76.7307 200.47 76.048C199.873 75.3227 198.998 74.96 197.846 74.96C195.499 74.96 194.326 76.3893 194.326 79.248C194.326 80.8693 194.753 82.384 195.606 83.792C196.502 85.2 198.102 86.9067 200.406 88.912C203.35 91.472 205.377 93.7973 206.486 95.888C207.595 97.9787 208.15 100.432 208.15 103.248C208.15 106.917 207.233 109.733 205.398 111.696C203.606 113.659 200.982 114.64 197.526 114.64ZM232.357 114.64C228.986 114.64 226.405 113.68 224.613 111.76C222.863 109.84 221.989 107.131 221.989 103.632V79.568C221.989 76.0693 222.863 73.36 224.613 71.44C226.405 69.52 228.986 68.56 232.357 68.56C235.727 68.56 238.287 69.52 240.037 71.44C241.829 73.36 242.725 76.0693 242.725 79.568V84.304H236.069V79.12C236.069 76.3467 234.895 74.96 232.549 74.96C230.202 74.96 229.029 76.3467 229.029 79.12V104.144C229.029 106.875 230.202 108.24 232.549 108.24C234.895 108.24 236.069 106.875 236.069 104.144V97.296H242.725V103.632C242.725 107.131 241.829 109.84 240.037 111.76C238.287 113.68 235.727 114.64 232.357 114.64ZM257.177 114.64C253.763 114.64 251.161 113.68 249.369 111.76C247.577 109.797 246.681 107.003 246.681 103.376V69.2H253.72V103.888C253.72 105.424 254.019 106.533 254.617 107.216C255.257 107.899 256.153 108.24 257.305 108.24C258.457 108.24 259.331 107.899 259.929 107.216C260.569 106.533 260.889 105.424 260.889 103.888V69.2H267.673V103.376C267.673 107.003 266.777 109.797 264.985 111.76C263.193 113.68 260.59 114.64 257.177 114.64ZM278.002 69.2H287.538L294.834 114H287.794L286.514 105.104V105.232H278.514L277.234 114H270.706L278.002 69.2ZM285.682 99.152L282.546 77.008H282.418L279.345 99.152H285.682ZM298.249 69.2H307.081L313.929 96.016H314.057V69.2H320.329V114H313.097L304.649 81.296H304.521V114H298.249V69.2ZM325.562 69.2H336.314C339.812 69.2 342.436 70.1387 344.186 72.016C345.935 73.8933 346.81 76.6453 346.81 80.272V102.928C346.81 106.555 345.935 109.307 344.186 111.184C342.436 113.061 339.812 114 336.314 114H325.562V69.2ZM336.186 107.6C337.338 107.6 338.212 107.259 338.81 106.576C339.45 105.893 339.77 104.784 339.77 103.248V79.952C339.77 78.416 339.45 77.3067 338.81 76.624C338.212 75.9413 337.338 75.6 336.186 75.6H332.602V107.6H336.186ZM361.738 114.64C358.282 114.64 355.636 113.659 353.802 111.696C351.967 109.733 351.049 106.96 351.049 103.376V79.824C351.049 76.24 351.967 73.4667 353.802 71.504C355.636 69.5413 358.282 68.56 361.738 68.56C365.194 68.56 367.839 69.5413 369.674 71.504C371.508 73.4667 372.426 76.24 372.426 79.824V103.376C372.426 106.96 371.508 109.733 369.674 111.696C367.839 113.659 365.194 114.64 361.738 114.64ZM361.738 108.24C364.17 108.24 365.385 106.768 365.385 103.824V79.376C365.385 76.432 364.17 74.96 361.738 74.96C359.306 74.96 358.09 76.432 358.09 79.376V103.824C358.09 106.768 359.306 108.24 361.738 108.24ZM69.9053 127.2H80.6573C84.1559 127.2 86.7799 128.139 88.5293 130.016C90.2786 131.893 91.1533 134.645 91.1533 138.272V160.928C91.1533 164.555 90.2786 167.307 88.5293 169.184C86.7799 171.061 84.1559 172 80.6573 172H69.9053V127.2ZM80.5293 165.6C81.6813 165.6 82.5559 165.259 83.1533 164.576C83.7933 163.893 84.1133 162.784 84.1133 161.248V137.952C84.1133 136.416 83.7933 135.307 83.1533 134.624C82.5559 133.941 81.6813 133.6 80.5293 133.6H76.9453V165.6H80.5293ZM95.9053 127.2H115.105V133.6H102.945V145.44H112.609V151.84H102.945V165.6H115.105V172H95.9053V127.2ZM119.155 127.2H129.779C133.406 127.2 136.051 128.053 137.715 129.76C139.379 131.424 140.211 134.005 140.211 137.504V139.296C140.211 141.6 139.827 143.477 139.059 144.928C138.334 146.379 137.203 147.424 135.667 148.064V148.192C139.166 149.387 140.915 152.501 140.915 157.536V161.376C140.915 164.832 139.998 167.477 138.163 169.312C136.371 171.104 133.726 172 130.227 172H119.155V127.2ZM128.947 145.44C130.355 145.44 131.401 145.077 132.083 144.352C132.809 143.627 133.171 142.411 133.171 140.704V138.208C133.171 136.587 132.873 135.413 132.275 134.688C131.721 133.963 130.825 133.6 129.587 133.6H126.195V145.44H128.947ZM130.227 165.6C131.465 165.6 132.382 165.28 132.979 164.64C133.577 163.957 133.875 162.805 133.875 161.184V157.28C133.875 155.232 133.513 153.824 132.787 153.056C132.105 152.245 130.953 151.84 129.331 151.84H126.195V165.6H130.227ZM145.03 127.2H152.07V172H145.03V127.2ZM149.19 116.832H156.87L150.022 124.192H144.71L149.19 116.832ZM162.783 127.2H172.319L179.615 172H172.575L171.295 163.104V163.232H163.295L162.015 172H155.487L162.783 127.2ZM170.463 157.152L167.327 135.008H167.199L164.127 157.152H170.463ZM193.28 127.2H212.48V133.6H200.32V145.44H209.984V151.84H200.32V165.6H212.48V172H193.28V127.2ZM225.807 172.64C222.394 172.64 219.813 171.68 218.063 169.76C216.314 167.797 215.439 165.003 215.439 161.376V158.816H222.095V161.888C222.095 164.789 223.311 166.24 225.743 166.24C226.938 166.24 227.834 165.899 228.431 165.216C229.071 164.491 229.391 163.339 229.391 161.76C229.391 159.883 228.965 158.24 228.111 156.832C227.258 155.381 225.679 153.653 223.375 151.648C220.474 149.088 218.447 146.784 217.295 144.736C216.143 142.645 215.567 140.299 215.567 137.696C215.567 134.155 216.463 131.424 218.255 129.504C220.047 127.541 222.65 126.56 226.063 126.56C229.434 126.56 231.973 127.541 233.679 129.504C235.429 131.424 236.303 134.197 236.303 137.824V139.68H229.647V137.376C229.647 135.84 229.349 134.731 228.751 134.048C228.154 133.323 227.279 132.96 226.127 132.96C223.781 132.96 222.607 134.389 222.607 137.248C222.607 138.869 223.034 140.384 223.887 141.792C224.783 143.2 226.383 144.907 228.687 146.912C231.631 149.472 233.658 151.797 234.767 153.888C235.877 155.979 236.431 158.432 236.431 161.248C236.431 164.917 235.514 167.733 233.679 169.696C231.887 171.659 229.263 172.64 225.807 172.64ZM245.972 133.6H238.612V127.2H260.372V133.6H253.012V172H245.972V133.6ZM266.283 127.2H275.819L283.115 172H276.075L274.795 163.104V163.232H266.795L265.515 172H258.987L266.283 127.2ZM273.963 157.152L270.827 135.008H270.699L267.627 157.152H273.963ZM286.53 127.2H296.962C300.589 127.2 303.234 128.053 304.898 129.76C306.562 131.424 307.394 134.005 307.394 137.504V140.256C307.394 144.907 305.858 147.851 302.786 149.088V149.216C304.493 149.728 305.688 150.773 306.37 152.352C307.096 153.931 307.458 156.043 307.458 158.688V166.56C307.458 167.84 307.501 168.885 307.586 169.696C307.672 170.464 307.885 171.232 308.226 172H301.058C300.802 171.275 300.632 170.592 300.546 169.952C300.461 169.312 300.418 168.16 300.418 166.496V158.304C300.418 156.256 300.077 154.827 299.394 154.016C298.754 153.205 297.624 152.8 296.002 152.8H293.57V172H286.53V127.2ZM296.13 146.4C297.538 146.4 298.584 146.037 299.266 145.312C299.992 144.587 300.354 143.371 300.354 141.664V138.208C300.354 136.587 300.056 135.413 299.458 134.688C298.904 133.963 298.008 133.6 296.77 133.6H293.57V146.4H296.13ZM84.4053 185.2H95.1573C98.6559 185.2 101.28 186.139 103.029 188.016C104.779 189.893 105.653 192.645 105.653 196.272V218.928C105.653 222.555 104.779 225.307 103.029 227.184C101.28 229.061 98.6559 230 95.1573 230H84.4053V185.2ZM95.0293 223.6C96.1813 223.6 97.0559 223.259 97.6533 222.576C98.2933 221.893 98.6133 220.784 98.6133 219.248V195.952C98.6133 194.416 98.2933 193.307 97.6533 192.624C97.0559 191.941 96.1813 191.6 95.0293 191.6H91.4453V223.6H95.0293ZM110.405 185.2H129.605V191.6H117.445V203.44H127.109V209.84H117.445V223.6H129.605V230H110.405V185.2ZM142.932 230.64C139.519 230.64 136.938 229.68 135.188 227.76C133.439 225.797 132.564 223.003 132.564 219.376V216.816H139.22V219.888C139.22 222.789 140.436 224.24 142.868 224.24C144.063 224.24 144.959 223.899 145.556 223.216C146.196 222.491 146.516 221.339 146.516 219.76C146.516 217.883 146.09 216.24 145.236 214.832C144.383 213.381 142.804 211.653 140.5 209.648C137.599 207.088 135.572 204.784 134.42 202.736C133.268 200.645 132.692 198.299 132.692 195.696C132.692 192.155 133.588 189.424 135.38 187.504C137.172 185.541 139.775 184.56 143.188 184.56C146.559 184.56 149.098 185.541 150.804 187.504C152.554 189.424 153.428 192.197 153.428 195.824V197.68H146.772V195.376C146.772 193.84 146.474 192.731 145.876 192.048C145.279 191.323 144.404 190.96 143.252 190.96C140.906 190.96 139.732 192.389 139.732 195.248C139.732 196.869 140.159 198.384 141.012 199.792C141.908 201.2 143.508 202.907 145.812 204.912C148.756 207.472 150.783 209.797 151.892 211.888C153.002 213.979 153.556 216.432 153.556 219.248C153.556 222.917 152.639 225.733 150.804 227.696C149.012 229.659 146.388 230.64 142.932 230.64ZM163.097 191.6H155.737V185.2H177.497V191.6H170.137V230H163.097V191.6ZM180.905 185.2H187.945V230H180.905V185.2ZM193.218 185.2H202.05L208.898 212.016H209.026V185.2H215.298V230H208.066L199.618 197.296H199.49V230H193.218V185.2ZM225.97 185.2H235.506L242.802 230H235.762L234.482 221.104V221.232H226.482L225.202 230H218.674L225.97 185.2ZM233.65 215.152L230.514 193.008H230.386L227.314 215.152H233.65ZM246.218 185.2H256.97C260.468 185.2 263.092 186.139 264.842 188.016C266.591 189.893 267.466 192.645 267.466 196.272V218.928C267.466 222.555 266.591 225.307 264.842 227.184C263.092 229.061 260.468 230 256.97 230H246.218V185.2ZM256.842 223.6C257.994 223.6 258.868 223.259 259.466 222.576C260.106 221.893 260.426 220.784 260.426 219.248V195.952C260.426 194.416 260.106 193.307 259.466 192.624C258.868 191.941 257.994 191.6 256.842 191.6H253.258V223.6H256.842ZM282.394 230.64C278.938 230.64 276.292 229.659 274.458 227.696C272.623 225.733 271.706 222.96 271.706 219.376V195.824C271.706 192.24 272.623 189.467 274.458 187.504C276.292 185.541 278.938 184.56 282.394 184.56C285.85 184.56 288.495 185.541 290.33 187.504C292.164 189.467 293.082 192.24 293.082 195.824V219.376C293.082 222.96 292.164 225.733 290.33 227.696C288.495 229.659 285.85 230.64 282.394 230.64ZM282.394 224.24C284.826 224.24 286.042 222.768 286.042 219.824V195.376C286.042 192.432 284.826 190.96 282.394 190.96C279.962 190.96 278.746 192.432 278.746 195.376V219.824C278.746 222.768 279.962 224.24 282.394 224.24ZM59.8328 288.64C56.4194 288.64 53.8168 287.68 52.0248 285.76C50.2328 283.797 49.3368 281.003 49.3368 277.376V243.2H56.3767V277.888C56.3767 279.424 56.6754 280.533 57.2728 281.216C57.9128 281.899 58.8088 282.24 59.9608 282.24C61.1128 282.24 61.9874 281.899 62.5848 281.216C63.2248 280.533 63.5448 279.424 63.5448 277.888V243.2H70.3288V277.376C70.3288 281.003 69.4328 283.797 67.6408 285.76C65.8488 287.68 63.2461 288.64 59.8328 288.64ZM60.4728 232.832H68.1528L61.3048 240.192H55.9928L60.4728 232.832ZM75.3428 243.2H84.1748L91.0228 270.016H91.1508V243.2H97.4228V288H90.1908L81.7428 255.296H81.6148V288H75.3428V243.2ZM102.655 243.2H109.695V288H102.655V243.2ZM124.888 288.64C121.517 288.64 118.936 287.68 117.144 285.76C115.394 283.84 114.52 281.131 114.52 277.632V253.568C114.52 250.069 115.394 247.36 117.144 245.44C118.936 243.52 121.517 242.56 124.888 242.56C128.258 242.56 130.818 243.52 132.568 245.44C134.36 247.36 135.256 250.069 135.256 253.568V258.304H128.6V253.12C128.6 250.347 127.426 248.96 125.08 248.96C122.733 248.96 121.56 250.347 121.56 253.12V278.144C121.56 280.875 122.733 282.24 125.08 282.24C127.426 282.24 128.6 280.875 128.6 278.144V271.296H135.256V277.632C135.256 281.131 134.36 283.84 132.568 285.76C130.818 287.68 128.258 288.64 124.888 288.64ZM144.908 243.2H154.444L161.74 288H154.7L153.42 279.104V279.232H145.42L144.14 288H137.612L144.908 243.2ZM152.588 273.152L149.452 251.008H149.324L146.252 273.152H152.588ZM165.155 243.2H175.203L179.683 275.264H179.811L184.291 243.2H194.339V288H187.683V254.08H187.555L182.435 288H176.547L171.427 254.08H171.299V288H165.155V243.2ZM199.593 243.2H218.793V249.6H206.633V261.44H216.297V267.84H206.633V281.6H218.793V288H199.593V243.2ZM222.843 243.2H231.675L238.523 270.016H238.651V243.2H244.923V288H237.691L229.243 255.296H229.115V288H222.843V243.2ZM255.659 249.6H248.299V243.2H270.059V249.6H262.699V288H255.659V249.6ZM273.468 243.2H292.668V249.6H280.508V261.44H290.172V267.84H280.508V281.6H292.668V288H273.468V243.2ZM312.408 243.2H321.944L329.24 288H322.2L320.92 279.104V279.232H312.92L311.64 288H305.112L312.408 243.2ZM320.088 273.152L316.952 251.008H316.824L313.752 273.152H320.088ZM27.114 346.64C23.7007 346.64 21.098 345.68 19.306 343.76C17.514 341.797 16.618 339.003 16.618 335.376V301.2H23.658V335.888C23.658 337.424 23.9567 338.533 24.554 339.216C25.194 339.899 26.09 340.24 27.242 340.24C28.394 340.24 29.2687 339.899 29.866 339.216C30.506 338.533 30.826 337.424 30.826 335.888V301.2H37.61V335.376C37.61 339.003 36.714 341.797 34.922 343.76C33.13 345.68 30.5273 346.64 27.114 346.64ZM42.624 301.2H53.248C56.8747 301.2 59.52 302.053 61.184 303.76C62.848 305.424 63.68 308.005 63.68 311.504V313.296C63.68 315.6 63.296 317.477 62.528 318.928C61.8027 320.379 60.672 321.424 59.136 322.064V322.192C62.6347 323.387 64.384 326.501 64.384 331.536V335.376C64.384 338.832 63.4667 341.477 61.632 343.312C59.84 345.104 57.1947 346 53.696 346H42.624V301.2ZM52.416 319.44C53.824 319.44 54.8693 319.077 55.552 318.352C56.2773 317.627 56.64 316.411 56.64 314.704V312.208C56.64 310.587 56.3413 309.413 55.744 308.688C55.1893 307.963 54.2933 307.6 53.056 307.6H49.664V319.44H52.416ZM53.696 339.6C54.9333 339.6 55.8507 339.28 56.448 338.64C57.0453 337.957 57.344 336.805 57.344 335.184V331.28C57.344 329.232 56.9813 327.824 56.256 327.056C55.5733 326.245 54.4213 325.84 52.8 325.84H49.664V339.6H53.696ZM68.499 301.2H75.539V346H68.499V301.2ZM90.7315 346.64C87.3608 346.64 84.7795 345.68 82.9875 343.76C81.2382 341.84 80.3635 339.131 80.3635 335.632V311.568C80.3635 308.069 81.2382 305.36 82.9875 303.44C84.7795 301.52 87.3608 300.56 90.7315 300.56C94.1022 300.56 96.6622 301.52 98.4115 303.44C100.204 305.36 101.1 308.069 101.1 311.568V316.304H94.4435V311.12C94.4435 308.347 93.2702 306.96 90.9235 306.96C88.5768 306.96 87.4035 308.347 87.4035 311.12V336.144C87.4035 338.875 88.5768 340.24 90.9235 340.24C93.2702 340.24 94.4435 338.875 94.4435 336.144V329.296H101.1V335.632C101.1 339.131 100.204 341.84 98.4115 343.76C96.6622 345.68 94.1022 346.64 90.7315 346.64ZM110.752 301.2H120.288L127.584 346H120.544L119.264 337.104V337.232H111.264L109.984 346H103.456L110.752 301.2ZM118.432 331.152L115.296 309.008H115.168L112.095 331.152H118.432ZM130.999 301.2H141.431C145.058 301.2 147.703 302.053 149.367 303.76C151.031 305.424 151.863 308.005 151.863 311.504V314.256C151.863 318.907 150.327 321.851 147.255 323.088V323.216C148.962 323.728 150.156 324.773 150.839 326.352C151.564 327.931 151.927 330.043 151.927 332.688V340.56C151.927 341.84 151.97 342.885 152.055 343.696C152.14 344.464 152.354 345.232 152.695 346H145.527C145.271 345.275 145.1 344.592 145.015 343.952C144.93 343.312 144.887 342.16 144.887 340.496V332.304C144.887 330.256 144.546 328.827 143.863 328.016C143.223 327.205 142.092 326.8 140.471 326.8H138.039V346H130.999V301.2ZM140.599 320.4C142.007 320.4 143.052 320.037 143.735 319.312C144.46 318.587 144.823 317.371 144.823 315.664V312.208C144.823 310.587 144.524 309.413 143.927 308.688C143.372 307.963 142.476 307.6 141.239 307.6H138.039V320.4H140.599ZM167.062 301.2H177.43C180.928 301.2 183.552 302.139 185.302 304.016C187.051 305.893 187.926 308.645 187.926 312.272V316.688C187.926 320.315 187.051 323.067 185.302 324.944C183.552 326.821 180.928 327.76 177.43 327.76H174.102V346H167.062V301.2ZM177.43 321.36C178.582 321.36 179.435 321.04 179.99 320.4C180.587 319.76 180.885 318.672 180.885 317.136V311.824C180.885 310.288 180.587 309.2 179.99 308.56C179.435 307.92 178.582 307.6 177.43 307.6H174.102V321.36H177.43ZM191.749 301.2H202.181C205.808 301.2 208.453 302.053 210.117 303.76C211.781 305.424 212.613 308.005 212.613 311.504V314.256C212.613 318.907 211.077 321.851 208.005 323.088V323.216C209.712 323.728 210.906 324.773 211.589 326.352C212.314 327.931 212.677 330.043 212.677 332.688V340.56C212.677 341.84 212.72 342.885 212.805 343.696C212.89 344.464 213.104 345.232 213.445 346H206.277C206.021 345.275 205.85 344.592 205.765 343.952C205.68 343.312 205.637 342.16 205.637 340.496V332.304C205.637 330.256 205.296 328.827 204.613 328.016C203.973 327.205 202.842 326.8 201.221 326.8H198.789V346H191.749V301.2ZM201.349 320.4C202.757 320.4 203.802 320.037 204.485 319.312C205.21 318.587 205.573 317.371 205.573 315.664V312.208C205.573 310.587 205.274 309.413 204.677 308.688C204.122 307.963 203.226 307.6 201.989 307.6H198.789V320.4H201.349ZM227.738 346.64C224.282 346.64 221.636 345.659 219.802 343.696C217.967 341.733 217.049 338.96 217.049 335.376V311.824C217.049 308.24 217.967 305.467 219.802 303.504C221.636 301.541 224.282 300.56 227.738 300.56C231.194 300.56 233.839 301.541 235.674 303.504C237.508 305.467 238.426 308.24 238.426 311.824V335.376C238.426 338.96 237.508 341.733 235.674 343.696C233.839 345.659 231.194 346.64 227.738 346.64ZM227.738 340.24C230.17 340.24 231.385 338.768 231.385 335.824V311.376C231.385 308.432 230.17 306.96 227.738 306.96C225.306 306.96 224.09 308.432 224.09 311.376V335.824C224.09 338.768 225.306 340.24 227.738 340.24ZM228.378 290.832H236.058L229.21 298.192H223.898L228.378 290.832ZM243.187 301.2H261.811V307.6H250.227V320.08H259.315V326.48H250.227V346H243.187V301.2ZM275.427 346.64C272.013 346.64 269.411 345.68 267.619 343.76C265.827 341.797 264.931 339.003 264.931 335.376V301.2H271.97V335.888C271.97 337.424 272.269 338.533 272.867 339.216C273.507 339.899 274.403 340.24 275.555 340.24C276.707 340.24 277.581 339.899 278.179 339.216C278.819 338.533 279.139 337.424 279.139 335.888V301.2H285.923V335.376C285.923 339.003 285.027 341.797 283.235 343.76C281.443 345.68 278.84 346.64 275.427 346.64ZM300.921 346.64C297.507 346.64 294.905 345.68 293.113 343.76C291.321 341.797 290.424 339.003 290.424 335.376V311.824C290.424 308.197 291.321 305.424 293.113 303.504C294.905 301.541 297.507 300.56 300.921 300.56C304.334 300.56 306.937 301.541 308.729 303.504C310.521 305.424 311.417 308.197 311.417 311.824V315.664H304.76V311.376C304.76 308.432 303.545 306.96 301.113 306.96C298.681 306.96 297.465 308.432 297.465 311.376V335.888C297.465 338.789 298.681 340.24 301.113 340.24C303.545 340.24 304.76 338.789 304.76 335.888V327.12H301.241V320.72H311.417V335.376C311.417 339.003 310.521 341.797 308.729 343.76C306.937 345.68 304.334 346.64 300.921 346.64ZM326.113 346.64C322.657 346.64 320.011 345.659 318.177 343.696C316.342 341.733 315.424 338.96 315.424 335.376V311.824C315.424 308.24 316.342 305.467 318.177 303.504C320.011 301.541 322.657 300.56 326.113 300.56C329.569 300.56 332.214 301.541 334.049 303.504C335.883 305.467 336.801 308.24 336.801 311.824V335.376C336.801 338.96 335.883 341.733 334.049 343.696C332.214 345.659 329.569 346.64 326.113 346.64ZM326.113 340.24C328.545 340.24 329.76 338.768 329.76 335.824V311.376C329.76 308.432 328.545 306.96 326.113 306.96C323.681 306.96 322.465 308.432 322.465 311.376V335.824C322.465 338.768 323.681 340.24 326.113 340.24ZM350.714 346.64C347.3 346.64 344.719 345.68 342.97 343.76C341.22 341.797 340.346 339.003 340.346 335.376V332.816H347.002V335.888C347.002 338.789 348.218 340.24 350.65 340.24C351.844 340.24 352.74 339.899 353.338 339.216C353.978 338.491 354.298 337.339 354.298 335.76C354.298 333.883 353.871 332.24 353.018 330.832C352.164 329.381 350.586 327.653 348.282 325.648C345.38 323.088 343.354 320.784 342.202 318.736C341.05 316.645 340.474 314.299 340.474 311.696C340.474 308.155 341.37 305.424 343.161 303.504C344.954 301.541 347.556 300.56 350.97 300.56C354.34 300.56 356.879 301.541 358.586 303.504C360.335 305.424 361.21 308.197 361.21 311.824V313.68H354.554V311.376C354.554 309.84 354.255 308.731 353.658 308.048C353.06 307.323 352.186 306.96 351.034 306.96C348.687 306.96 347.514 308.389 347.514 311.248C347.514 312.869 347.94 314.384 348.794 315.792C349.69 317.2 351.29 318.907 353.594 320.912C356.538 323.472 358.564 325.797 359.674 327.888C360.783 329.979 361.338 332.432 361.338 335.248C361.338 338.917 360.42 341.733 358.586 343.696C356.794 345.659 354.17 346.64 350.714 346.64ZM126.155 359.2H136.907C140.406 359.2 143.03 360.139 144.779 362.016C146.529 363.893 147.403 366.645 147.403 370.272V392.928C147.403 396.555 146.529 399.307 144.779 401.184C143.03 403.061 140.406 404 136.907 404H126.155V359.2ZM136.779 397.6C137.931 397.6 138.806 397.259 139.403 396.576C140.043 395.893 140.363 394.784 140.363 393.248V369.952C140.363 368.416 140.043 367.307 139.403 366.624C138.806 365.941 137.931 365.6 136.779 365.6H133.195V397.6H136.779ZM152.155 359.2H171.355V365.6H159.195V377.44H168.859V383.84H159.195V397.6H171.355V404H152.155V359.2ZM185.655 359.2H192.695V397.6H204.279V404H185.655V359.2ZM207.655 359.2H226.855V365.6H214.695V377.44H224.359V383.84H214.695V397.6H226.855V404H207.655V359.2ZM237.369 384.928L228.857 359.2H236.345L241.145 375.648H241.273L246.073 359.2H252.921L244.409 384.928V404H237.369V384.928Z" fill="black"/>
</svg>
