<svg width="1232" height="177" viewBox="0 0 1232 177" fill="none" xmlns="http://www.w3.org/2000/svg">
<path d="M0.274609 25.4468V15.4468H34.2746V25.4468H22.7746V85.4468H11.7746V25.4468H0.274609ZM49.2191 31.5468V69.3468C49.2191 74.3468 51.4191 76.2468 54.9191 76.2468C58.4191 76.2468 60.6191 74.3468 60.6191 69.3468V31.5468C60.6191 26.5468 58.4191 24.6468 54.9191 24.6468C51.4191 24.6468 49.2191 26.5468 49.2191 31.5468ZM38.2191 68.6468V32.2468C38.2191 21.0468 44.1191 14.6468 54.9191 14.6468C65.7191 14.6468 71.6191 21.0468 71.6191 32.2468V68.6468C71.6191 79.8468 65.7191 86.2468 54.9191 86.2468C44.1191 86.2468 38.2191 79.8468 38.2191 68.6468ZM78.7676 85.4468V15.4468H96.1676C107.168 15.4468 112.568 21.5468 112.568 32.7468V68.1468C112.568 79.3468 107.168 85.4468 96.1676 85.4468H78.7676ZM95.9676 25.4468H89.7676V75.4468H95.9676C99.4676 75.4468 101.568 73.6468 101.568 68.6468V32.2468C101.568 27.2468 99.4676 25.4468 95.9676 25.4468ZM129.688 31.5468V69.3468C129.688 74.3468 131.888 76.2468 135.388 76.2468C138.888 76.2468 141.088 74.3468 141.088 69.3468V31.5468C141.088 26.5468 138.888 24.6468 135.388 24.6468C131.888 24.6468 129.688 26.5468 129.688 31.5468ZM118.688 68.6468V32.2468C118.688 21.0468 124.588 14.6468 135.388 14.6468C146.188 14.6468 152.088 21.0468 152.088 32.2468V68.6468C152.088 79.8468 146.188 86.2468 135.388 86.2468C124.588 86.2468 118.688 79.8468 118.688 68.6468ZM157.836 32.2468C157.836 21.0468 163.336 14.6468 174.036 14.6468C184.736 14.6468 190.236 21.0468 190.236 32.2468V34.4468H179.836V31.5468C179.836 26.5468 177.836 24.6468 174.336 24.6468C170.836 24.6468 168.836 26.5468 168.836 31.5468C168.836 45.9468 190.336 48.6468 190.336 68.6468C190.336 79.8468 184.736 86.2468 173.936 86.2468C163.136 86.2468 157.536 79.8468 157.536 68.6468V64.3468H167.936V69.3468C167.936 74.3468 170.136 76.1468 173.636 76.1468C177.136 76.1468 179.336 74.3468 179.336 69.3468C179.336 54.9468 157.836 52.2468 157.836 32.2468ZM223.166 25.4468V44.9468H238.266V54.9468H223.166V75.4468H242.166V85.4468H212.166V15.4468H242.166V25.4468H223.166ZM247.582 32.2468C247.582 21.0468 253.082 14.6468 263.782 14.6468C274.482 14.6468 279.982 21.0468 279.982 32.2468V34.4468H269.582V31.5468C269.582 26.5468 267.582 24.6468 264.082 24.6468C260.582 24.6468 258.582 26.5468 258.582 31.5468C258.582 45.9468 280.082 48.6468 280.082 68.6468C280.082 79.8468 274.482 86.2468 263.682 86.2468C252.882 86.2468 247.282 79.8468 247.282 68.6468V64.3468H257.682V69.3468C257.682 74.3468 259.882 76.1468 263.382 76.1468C266.882 76.1468 269.082 74.3468 269.082 69.3468C269.082 54.9468 247.582 52.2468 247.582 32.2468ZM283.185 25.4468V15.4468H317.185V25.4468H305.685V85.4468H294.685V25.4468H283.185ZM342.621 15.4468L353.821 85.4468H342.721L340.821 72.7468H327.321L325.421 85.4468H315.321L326.521 15.4468H342.621ZM334.021 27.8468L328.721 63.2468H339.321L334.021 27.8468ZM335.521 0.646772H346.321L336.121 11.7468H328.721L335.521 0.646772ZM382.443 85.4468L368.743 34.7468V85.4468H358.843V15.4468H372.643L383.943 57.3468V15.4468H393.743V85.4468H382.443ZM428.146 25.4468V44.9468H443.246V54.9468H428.146V75.4468H447.146V85.4468H417.146V15.4468H447.146V25.4468H428.146ZM477.463 85.4468L463.763 34.7468V85.4468H453.863V15.4468H467.663L478.963 57.3468V15.4468H488.763V85.4468H477.463ZM511.666 15.4468H522.666V69.4468C522.666 74.4468 524.866 76.2468 528.366 76.2468C531.866 76.2468 534.066 74.4468 534.066 69.4468V15.4468H544.466V68.7468C544.466 79.9468 538.866 86.3468 528.066 86.3468C517.266 86.3468 511.666 79.9468 511.666 68.7468V15.4468ZM575.51 85.4468L561.81 34.7468V85.4468H551.91V15.4468H565.71L577.01 57.3468V15.4468H586.81V85.4468H575.51ZM619.086 15.4468L630.286 85.4468H619.186L617.286 72.7468H603.786L601.886 85.4468H591.786L602.986 15.4468H619.086ZM610.486 27.8468L605.186 63.2468H615.786L610.486 27.8468ZM667.536 15.4468C678.936 15.4468 683.836 20.7468 683.836 31.5468V34.0468C683.836 41.2468 681.636 45.8468 676.736 48.1468C682.636 50.4468 684.936 55.7468 684.936 63.1468V68.8468C684.936 79.6468 679.236 85.4468 668.236 85.4468H650.936V15.4468H667.536ZM666.836 53.9468H661.936V75.4468H668.236C671.936 75.4468 673.936 73.7468 673.936 68.5468V62.4468C673.936 55.9468 671.836 53.9468 666.836 53.9468ZM667.236 25.4468H661.936V43.9468H666.236C670.336 43.9468 672.836 42.1468 672.836 36.5468V32.6468C672.836 27.6468 671.136 25.4468 667.236 25.4468ZM715.961 15.4468L727.161 85.4468H716.061L714.161 72.7468H700.661L698.761 85.4468H688.661L699.861 15.4468H715.961ZM707.361 27.8468L702.061 63.2468H712.661L707.361 27.8468ZM730.883 32.2468C730.883 21.0468 736.383 14.6468 747.083 14.6468C757.783 14.6468 763.283 21.0468 763.283 32.2468V34.4468H752.883V31.5468C752.883 26.5468 750.883 24.6468 747.383 24.6468C743.883 24.6468 741.883 26.5468 741.883 31.5468C741.883 45.9468 763.383 48.6468 763.383 68.6468C763.383 79.8468 757.783 86.2468 746.983 86.2468C736.183 86.2468 730.583 79.8468 730.583 68.6468V64.3468H740.983V69.3468C740.983 74.3468 743.183 76.1468 746.683 76.1468C750.183 76.1468 752.383 74.3468 752.383 69.3468C752.383 54.9468 730.883 52.2468 730.883 32.2468ZM780.686 25.4468V44.9468H795.786V54.9468H780.686V75.4468H799.686V85.4468H769.686V15.4468H799.686V25.4468H780.686ZM822.029 85.4468V15.4468H839.429C850.429 15.4468 855.829 21.5468 855.829 32.7468V68.1468C855.829 79.3468 850.429 85.4468 839.429 85.4468H822.029ZM839.229 25.4468H833.029V75.4468H839.229C842.729 75.4468 844.829 73.6468 844.829 68.6468V32.2468C844.829 27.2468 842.729 25.4468 839.229 25.4468ZM873.85 25.4468V44.9468H888.95V54.9468H873.85V75.4468H892.85V85.4468H862.85V15.4468H892.85V25.4468H873.85ZM915.193 85.4468V15.4468H932.593C943.593 15.4468 948.993 21.5468 948.993 32.7468V68.1468C948.993 79.3468 943.593 85.4468 932.593 85.4468H915.193ZM932.393 25.4468H926.193V75.4468H932.393C935.893 75.4468 937.993 73.6468 937.993 68.6468V32.2468C937.993 27.2468 935.893 25.4468 932.393 25.4468ZM980.316 15.4468L991.516 85.4468H980.416L978.516 72.7468H965.016L963.116 85.4468H953.016L964.216 15.4468H980.316ZM971.716 27.8468L966.416 63.2468H977.016L971.716 27.8468ZM993.439 25.4468V15.4468H1027.44V25.4468H1015.94V85.4468H1004.94V25.4468H993.439ZM1042.38 31.5468V69.3468C1042.38 74.3468 1044.58 76.2468 1048.08 76.2468C1051.58 76.2468 1053.78 74.3468 1053.78 69.3468V31.5468C1053.78 26.5468 1051.58 24.6468 1048.08 24.6468C1044.58 24.6468 1042.38 26.5468 1042.38 31.5468ZM1031.38 68.6468V32.2468C1031.38 21.0468 1037.28 14.6468 1048.08 14.6468C1058.88 14.6468 1064.78 21.0468 1064.78 32.2468V68.6468C1064.78 79.8468 1058.88 86.2468 1048.08 86.2468C1037.28 86.2468 1031.38 79.8468 1031.38 68.6468ZM1070.53 32.2468C1070.53 21.0468 1076.03 14.6468 1086.73 14.6468C1097.43 14.6468 1102.93 21.0468 1102.93 32.2468V34.4468H1092.53V31.5468C1092.53 26.5468 1090.53 24.6468 1087.03 24.6468C1083.53 24.6468 1081.53 26.5468 1081.53 31.5468C1081.53 45.9468 1103.03 48.6468 1103.03 68.6468C1103.03 79.8468 1097.43 86.2468 1086.63 86.2468C1075.83 86.2468 1070.23 79.8468 1070.23 68.6468V64.3468H1080.63V69.3468C1080.63 74.3468 1082.83 76.1468 1086.33 76.1468C1089.83 76.1468 1092.03 74.3468 1092.03 69.3468C1092.03 54.9468 1070.53 52.2468 1070.53 32.2468ZM1124.86 85.4468V15.4468H1142.26C1153.26 15.4468 1158.66 21.5468 1158.66 32.7468V68.1468C1158.66 79.3468 1153.26 85.4468 1142.26 85.4468H1124.86ZM1142.06 25.4468H1135.86V75.4468H1142.06C1145.56 75.4468 1147.66 73.6468 1147.66 68.6468V32.2468C1147.66 27.2468 1145.56 25.4468 1142.06 25.4468ZM1176.68 25.4468V44.9468H1191.78V54.9468H1176.68V75.4468H1195.68V85.4468H1165.68V15.4468H1195.68V25.4468H1176.68ZM1202.5 85.4468V15.4468H1213.5V75.4468H1231.6V85.4468H1202.5ZM61.2543 122.247C61.2543 111.047 66.7543 104.647 77.4543 104.647C88.1543 104.647 93.6543 111.047 93.6543 122.247V124.447H83.2543V121.547C83.2543 116.547 81.2543 114.647 77.7543 114.647C74.2543 114.647 72.2543 116.547 72.2543 121.547C72.2543 135.947 93.7543 138.647 93.7543 158.647C93.7543 169.847 88.1543 176.247 77.3543 176.247C66.5543 176.247 60.9543 169.847 60.9543 158.647V154.347H71.3543V159.347C71.3543 164.347 73.5543 166.147 77.0543 166.147C80.5543 166.147 82.7543 164.347 82.7543 159.347C82.7543 144.947 61.2543 142.247 61.2543 122.247ZM100.057 175.447V105.447H111.057V175.447H100.057ZM117.7 122.247C117.7 111.047 123.2 104.647 133.9 104.647C144.6 104.647 150.1 111.047 150.1 122.247V124.447H139.7V121.547C139.7 116.547 137.7 114.647 134.2 114.647C130.7 114.647 128.7 116.547 128.7 121.547C128.7 135.947 150.2 138.647 150.2 158.647C150.2 169.847 144.6 176.247 133.8 176.247C123 176.247 117.4 169.847 117.4 158.647V154.347H127.8V159.347C127.8 164.347 130 166.147 133.5 166.147C137 166.147 139.2 164.347 139.2 159.347C139.2 144.947 117.7 142.247 117.7 122.247ZM153.302 115.447V105.447H187.302V115.447H175.802V175.447H164.802V115.447H153.302ZM203.146 115.447V134.947H218.246V144.947H203.146V165.447H222.146V175.447H192.146V105.447H222.146V115.447H203.146ZM244.163 105.447L252.263 155.147L259.763 105.447H275.063V175.447H264.663V125.247L257.063 175.447H246.663L238.463 125.947V175.447H228.863V105.447H244.163ZM307.464 105.447L318.664 175.447H307.564L305.664 162.747H292.164L290.264 175.447H280.164L291.364 105.447H307.464ZM298.864 117.847L293.564 153.247H304.164L298.864 117.847ZM339.314 175.447V105.447H356.714C367.714 105.447 373.114 111.547 373.114 122.747V158.147C373.114 169.347 367.714 175.447 356.714 175.447H339.314ZM356.514 115.447H350.314V165.447H356.514C360.014 165.447 362.114 163.647 362.114 158.647V122.247C362.114 117.247 360.014 115.447 356.514 115.447ZM391.135 115.447V134.947H406.235V144.947H391.135V165.447H410.135V175.447H380.135V105.447H410.135V115.447H391.135ZM466.679 175.447H455.479C454.879 173.647 454.479 172.547 454.479 166.847V155.847C454.479 149.347 452.279 146.947 447.279 146.947H443.479V175.447H432.479V105.447H449.079C460.479 105.447 465.379 110.747 465.379 121.547V127.047C465.379 134.247 463.079 138.947 458.179 141.247C463.679 143.547 465.479 148.847 465.479 156.147V166.947C465.479 170.347 465.579 172.847 466.679 175.447ZM448.779 115.447H443.479V136.947H447.779C451.879 136.947 454.379 135.147 454.379 129.547V122.647C454.379 117.647 452.679 115.447 448.779 115.447ZM483.713 115.447V134.947H498.813V144.947H483.713V165.447H502.713V175.447H472.713V105.447H502.713V115.447H483.713ZM531.029 149.347H541.429V158.647C541.429 169.847 535.829 176.247 525.029 176.247C514.229 176.247 508.629 169.847 508.629 158.647V122.247C508.629 111.047 514.229 104.647 525.029 104.647C535.829 104.647 541.429 111.047 541.429 122.247V129.047H531.029V121.547C531.029 116.547 528.829 114.647 525.329 114.647C521.829 114.647 519.629 116.547 519.629 121.547V159.347C519.629 164.347 521.829 166.147 525.329 166.147C528.829 166.147 531.029 164.347 531.029 159.347V149.347ZM558.204 121.547V159.347C558.204 164.347 560.404 166.247 563.904 166.247C567.404 166.247 569.604 164.347 569.604 159.347V121.547C569.604 116.547 567.404 114.647 563.904 114.647C560.404 114.647 558.204 116.547 558.204 121.547ZM547.204 158.647V122.247C547.204 111.047 553.104 104.647 563.904 104.647C574.704 104.647 580.604 111.047 580.604 122.247V158.647C580.604 169.847 574.704 176.247 563.904 176.247C553.104 176.247 547.204 169.847 547.204 158.647ZM611.252 175.447L597.552 124.747V175.447H587.652V105.447H601.452L612.752 147.347V105.447H622.552V175.447H611.252ZM640.528 121.547V159.347C640.528 164.347 642.728 166.247 646.228 166.247C649.728 166.247 651.928 164.347 651.928 159.347V121.547C651.928 116.547 649.728 114.647 646.228 114.647C642.728 114.647 640.528 116.547 640.528 121.547ZM629.528 158.647V122.247C629.528 111.047 635.428 104.647 646.228 104.647C657.028 104.647 662.928 111.047 662.928 122.247V158.647C662.928 169.847 657.028 176.247 646.228 176.247C635.428 176.247 629.528 169.847 629.528 158.647ZM691.576 149.347H701.976V158.647C701.976 169.847 696.376 176.247 685.576 176.247C674.776 176.247 669.176 169.847 669.176 158.647V122.247C669.176 111.047 674.776 104.647 685.576 104.647C696.376 104.647 701.976 111.047 701.976 122.247V129.047H691.576V121.547C691.576 116.547 689.376 114.647 685.876 114.647C682.376 114.647 680.176 116.547 680.176 121.547V159.347C680.176 164.347 682.376 166.147 685.876 166.147C689.376 166.147 691.576 164.347 691.576 159.347V149.347ZM708.65 175.447V105.447H719.65V175.447H708.65ZM742.893 105.447L750.993 155.147L758.493 105.447H773.793V175.447H763.393V125.247L755.793 175.447H745.393L737.193 125.947V175.447H727.593V105.447H742.893ZM781.795 175.447V105.447H792.795V175.447H781.795ZM811.838 115.447V134.947H826.938V144.947H811.838V165.447H830.838V175.447H800.838V105.447H830.838V115.447H811.838ZM861.154 175.447L847.454 124.747V175.447H837.554V105.447H851.354L862.654 147.347V105.447H872.454V175.447H861.154ZM877.13 115.447V105.447H911.13V115.447H899.63V175.447H888.63V115.447H877.13ZM926.075 121.547V159.347C926.075 164.347 928.275 166.247 931.775 166.247C935.275 166.247 937.475 164.347 937.475 159.347V121.547C937.475 116.547 935.275 114.647 931.775 114.647C928.275 114.647 926.075 116.547 926.075 121.547ZM915.075 158.647V122.247C915.075 111.047 920.975 104.647 931.775 104.647C942.575 104.647 948.475 111.047 948.475 122.247V158.647C948.475 169.847 942.575 176.247 931.775 176.247C920.975 176.247 915.075 169.847 915.075 158.647ZM982.15 115.447V136.547H996.35V146.547H982.15V175.447H971.15V105.447H1000.25V115.447H982.15ZM1028.66 105.447L1039.86 175.447H1028.76L1026.86 162.747H1013.36L1011.46 175.447H1001.36L1012.56 105.447H1028.66ZM1020.06 117.847L1014.76 153.247H1025.36L1020.06 117.847ZM1066.48 149.347H1076.88V158.647C1076.88 169.847 1071.28 176.247 1060.48 176.247C1049.68 176.247 1044.08 169.847 1044.08 158.647V122.247C1044.08 111.047 1049.68 104.647 1060.48 104.647C1071.28 104.647 1076.88 111.047 1076.88 122.247V129.047H1066.48V121.547C1066.48 116.547 1064.28 114.647 1060.78 114.647C1057.28 114.647 1055.08 116.547 1055.08 121.547V159.347C1055.08 164.347 1057.28 166.147 1060.78 166.147C1064.28 166.147 1066.48 164.347 1066.48 159.347V149.347ZM1083.55 175.447V105.447H1094.55V175.447H1083.55ZM1127 105.447L1138.2 175.447H1127.1L1125.2 162.747H1111.7L1109.8 175.447H1099.7L1110.9 105.447H1127ZM1118.4 117.847L1113.1 153.247H1123.7L1118.4 117.847ZM1143.32 175.447V105.447H1154.32V165.447H1172.42V175.447H1143.32Z" fill="black"/>
</svg>
