<svg width="336" height="346" viewBox="0 0 336 346" fill="none" xmlns="http://www.w3.org/2000/svg">
<path d="M39.1228 16.4312V9.93115H61.2228V16.4312H53.7478V55.4312H46.5978V16.4312H39.1228ZM70.9367 20.3962V44.9662C70.9367 48.2162 72.3667 49.4512 74.6417 49.4512C76.9167 49.4512 78.3467 48.2162 78.3467 44.9662V20.3962C78.3467 17.1461 76.9167 15.9111 74.6417 15.9111C72.3667 15.9111 70.9367 17.1461 70.9367 20.3962ZM63.7867 44.5112V20.8512C63.7867 13.5711 67.6217 9.41115 74.6417 9.41115C81.6617 9.41115 85.4967 13.5711 85.4967 20.8512V44.5112C85.4967 51.7912 81.6617 55.9512 74.6417 55.9512C67.6217 55.9512 63.7867 51.7912 63.7867 44.5112ZM90.1432 55.4312V9.93115H101.453C108.603 9.93115 112.113 13.8961 112.113 21.1762V44.1862C112.113 51.4662 108.603 55.4312 101.453 55.4312H90.1432ZM101.323 16.4312H97.2932V48.9312H101.323C103.598 48.9312 104.963 47.7612 104.963 44.5112V20.8512C104.963 17.6012 103.598 16.4312 101.323 16.4312ZM123.241 20.3962V44.9662C123.241 48.2162 124.671 49.4512 126.946 49.4512C129.221 49.4512 130.651 48.2162 130.651 44.9662V20.3962C130.651 17.1461 129.221 15.9111 126.946 15.9111C124.671 15.9111 123.241 17.1461 123.241 20.3962ZM116.091 44.5112V20.8512C116.091 13.5711 119.926 9.41115 126.946 9.41115C133.966 9.41115 137.801 13.5711 137.801 20.8512V44.5112C137.801 51.7912 133.966 55.9512 126.946 55.9512C119.926 55.9512 116.091 51.7912 116.091 44.5112ZM141.538 20.8512C141.538 13.5711 145.113 9.41115 152.068 9.41115C159.023 9.41115 162.598 13.5711 162.598 20.8512V22.2811H155.838V20.3962C155.838 17.1461 154.538 15.9111 152.263 15.9111C149.988 15.9111 148.688 17.1461 148.688 20.3962C148.688 29.7562 162.663 31.5112 162.663 44.5112C162.663 51.7912 159.023 55.9512 152.003 55.9512C144.983 55.9512 141.343 51.7912 141.343 44.5112V41.7162H148.103V44.9662C148.103 48.2162 149.533 49.3862 151.808 49.3862C154.083 49.3862 155.513 48.2162 155.513 44.9662C155.513 35.6062 141.538 33.8512 141.538 20.8512ZM184.002 16.4312V29.1062H193.817V35.6062H184.002V48.9312H196.352V55.4312H176.852V9.93115H196.352V16.4312H184.002ZM199.873 20.8512C199.873 13.5711 203.448 9.41115 210.403 9.41115C217.358 9.41115 220.933 13.5711 220.933 20.8512V22.2811H214.173V20.3962C214.173 17.1461 212.873 15.9111 210.598 15.9111C208.323 15.9111 207.023 17.1461 207.023 20.3962C207.023 29.7562 220.998 31.5112 220.998 44.5112C220.998 51.7912 217.358 55.9512 210.338 55.9512C203.318 55.9512 199.678 51.7912 199.678 44.5112V41.7162H206.438V44.9662C206.438 48.2162 207.868 49.3862 210.143 49.3862C212.418 49.3862 213.848 48.2162 213.848 44.9662C213.848 35.6062 199.873 33.8512 199.873 20.8512ZM223.014 16.4312V9.93115H245.114V16.4312H237.639V55.4312H230.489V16.4312H223.014ZM261.648 9.93115L268.928 55.4312H261.713L260.478 47.1762H251.703L250.468 55.4312H243.903L251.183 9.93115H261.648ZM256.058 17.9912L252.613 41.0012H259.503L256.058 17.9912ZM257.033 0.311149H264.053L257.423 7.52615H252.613L257.033 0.311149ZM287.532 55.4312L278.627 22.4762V55.4312H272.192V9.93115H281.162L288.507 37.1662V9.93115H294.877V55.4312H287.532ZM51.2092 74.4312V87.1062H61.0242V93.6062H51.2092V106.931H63.5592V113.431H44.0592V67.9311H63.5592V74.4312H51.2092ZM83.2649 113.431L74.3599 80.4762V113.431H67.9249V67.9311H76.8949L84.2399 95.1662V67.9311H90.6099V113.431H83.2649ZM105.497 67.9311H112.647V103.031C112.647 106.281 114.077 107.451 116.352 107.451C118.627 107.451 120.057 106.281 120.057 103.031V67.9311H126.817V102.576C126.817 109.856 123.177 114.016 116.157 114.016C109.137 114.016 105.497 109.856 105.497 102.576V67.9311ZM146.995 113.431L138.09 80.4762V113.431H131.655V67.9311H140.625L147.97 95.1662V67.9311H154.34V113.431H146.995ZM175.32 67.9311L182.6 113.431H175.385L174.15 105.176H165.375L164.14 113.431H157.575L164.855 67.9311H175.32ZM169.73 75.9912L166.285 99.0012H173.175L169.73 75.9912ZM206.812 67.9311C214.222 67.9311 217.407 71.3762 217.407 78.3962V80.0212C217.407 84.7012 215.977 87.6912 212.792 89.1862C216.627 90.6812 218.122 94.1262 218.122 98.9362V102.641C218.122 109.661 214.417 113.431 207.267 113.431H196.022V67.9311H206.812ZM206.357 92.9562H203.172V106.931H207.267C209.672 106.931 210.972 105.826 210.972 102.446V98.4812C210.972 94.2562 209.607 92.9562 206.357 92.9562ZM206.617 74.4312H203.172V86.4562H205.967C208.632 86.4562 210.257 85.2862 210.257 81.6462V79.1112C210.257 75.8612 209.152 74.4312 206.617 74.4312ZM238.288 67.9311L245.568 113.431H238.353L237.118 105.176H228.343L227.108 113.431H220.543L227.823 67.9311H238.288ZM232.698 75.9912L229.253 99.0012H236.143L232.698 75.9912ZM247.988 78.8512C247.988 71.5711 251.563 67.4112 258.518 67.4112C265.473 67.4112 269.048 71.5711 269.048 78.8512V80.2811H262.288V78.3962C262.288 75.1461 260.988 73.9111 258.713 73.9111C256.438 73.9111 255.138 75.1461 255.138 78.3962C255.138 87.7562 269.113 89.5112 269.113 102.511C269.113 109.791 265.473 113.951 258.453 113.951C251.433 113.951 247.793 109.791 247.793 102.511V99.7162H254.553V102.966C254.553 106.216 255.983 107.386 258.258 107.386C260.533 107.386 261.963 106.216 261.963 102.966C261.963 93.6062 247.988 91.8512 247.988 78.8512ZM280.36 74.4312V87.1062H290.175V93.6062H280.36V106.931H292.71V113.431H273.21V67.9311H292.71V74.4312H280.36ZM77.2257 171.431V125.931H88.5357C95.6857 125.931 99.1957 129.896 99.1957 137.176V160.186C99.1957 167.466 95.6857 171.431 88.5357 171.431H77.2257ZM88.4057 132.431H84.3757V164.931H88.4057C90.6807 164.931 92.0457 163.761 92.0457 160.511V136.851C92.0457 133.601 90.6807 132.431 88.4057 132.431ZM110.909 132.431V145.106H120.724V151.606H110.909V164.931H123.259V171.431H103.759V125.931H123.259V132.431H110.909ZM137.782 171.431V125.931H149.092C156.242 125.931 159.752 129.896 159.752 137.176V160.186C159.752 167.466 156.242 171.431 149.092 171.431H137.782ZM148.962 132.431H144.932V164.931H148.962C151.237 164.931 152.602 163.761 152.602 160.511V136.851C152.602 133.601 151.237 132.431 148.962 132.431ZM180.112 125.931L187.392 171.431H180.177L178.942 163.176H170.167L168.932 171.431H162.367L169.647 125.931H180.112ZM174.522 133.991L171.077 157.001H177.967L174.522 133.991ZM188.642 132.431V125.931H210.742V132.431H203.267V171.431H196.117V132.431H188.642ZM220.456 136.396V160.966C220.456 164.216 221.886 165.451 224.161 165.451C226.436 165.451 227.866 164.216 227.866 160.966V136.396C227.866 133.146 226.436 131.911 224.161 131.911C221.886 131.911 220.456 133.146 220.456 136.396ZM213.306 160.511V136.851C213.306 129.571 217.141 125.411 224.161 125.411C231.181 125.411 235.016 129.571 235.016 136.851V160.511C235.016 167.791 231.181 171.951 224.161 171.951C217.141 171.951 213.306 167.791 213.306 160.511ZM238.752 136.851C238.752 129.571 242.327 125.411 249.282 125.411C256.237 125.411 259.812 129.571 259.812 136.851V138.281H253.052V136.396C253.052 133.146 251.752 131.911 249.477 131.911C247.202 131.911 245.902 133.146 245.902 136.396C245.902 145.756 259.877 147.511 259.877 160.511C259.877 167.791 256.237 171.951 249.217 171.951C242.197 171.951 238.557 167.791 238.557 160.511V157.716H245.317V160.966C245.317 164.216 246.747 165.386 249.022 165.386C251.297 165.386 252.727 164.216 252.727 160.966C252.727 151.606 238.752 149.851 238.752 136.851ZM14.1618 229.431V183.931H25.4718C32.6218 183.931 36.1318 187.896 36.1318 195.176V218.186C36.1318 225.466 32.6218 229.431 25.4718 229.431H14.1618ZM25.3418 190.431H21.3118V222.931H25.3418C27.6168 222.931 28.9818 221.761 28.9818 218.511V194.851C28.9818 191.601 27.6168 190.431 25.3418 190.431ZM47.845 190.431V203.106H57.66V209.606H47.845V222.931H60.195V229.431H40.695V183.931H60.195V190.431H47.845ZM64.6256 229.431V183.931H71.7756V222.931H83.5406V229.431H64.6256ZM95.8348 194.851C95.8348 187.571 99.4098 183.411 106.365 183.411C113.32 183.411 116.895 187.571 116.895 194.851V196.281H110.135V194.396C110.135 191.146 108.835 189.911 106.56 189.911C104.285 189.911 102.985 191.146 102.985 194.396C102.985 203.756 116.96 205.511 116.96 218.511C116.96 225.791 113.32 229.951 106.3 229.951C99.2798 229.951 95.6398 225.791 95.6398 218.511V215.716H102.4V218.966C102.4 222.216 103.83 223.386 106.105 223.386C108.38 223.386 109.81 222.216 109.81 218.966C109.81 209.606 95.8348 207.851 95.8348 194.851ZM121.056 229.431V183.931H128.206V229.431H121.056ZM132.524 194.851C132.524 187.571 136.099 183.411 143.054 183.411C150.009 183.411 153.584 187.571 153.584 194.851V196.281H146.824V194.396C146.824 191.146 145.524 189.911 143.249 189.911C140.974 189.911 139.674 191.146 139.674 194.396C139.674 203.756 153.649 205.511 153.649 218.511C153.649 225.791 150.009 229.951 142.989 229.951C135.969 229.951 132.329 225.791 132.329 218.511V215.716H139.089V218.966C139.089 222.216 140.519 223.386 142.794 223.386C145.069 223.386 146.499 222.216 146.499 218.966C146.499 209.606 132.524 207.851 132.524 194.851ZM155.666 190.431V183.931H177.766V190.431H170.291V229.431H163.141V190.431H155.666ZM188.065 190.431V203.106H197.88V209.606H188.065V222.931H200.415V229.431H180.915V183.931H200.415V190.431H188.065ZM214.725 183.931L219.99 216.236L224.865 183.931H234.81V229.431H228.05V196.801L223.11 229.431H216.35L211.02 197.256V229.431H204.78V183.931H214.725ZM255.871 183.931L263.151 229.431H255.936L254.701 221.176H245.926L244.691 229.431H238.126L245.406 183.931H255.871ZM250.281 191.991L246.836 215.001H253.726L250.281 191.991ZM276.574 229.431V183.931H287.884C295.034 183.931 298.544 187.896 298.544 195.176V218.186C298.544 225.466 295.034 229.431 287.884 229.431H276.574ZM287.754 190.431H283.724V222.931H287.754C290.029 222.931 291.394 221.761 291.394 218.511V194.851C291.394 191.601 290.029 190.431 287.754 190.431ZM310.257 190.431V203.106H320.072V209.606H310.257V222.931H322.607V229.431H303.107V183.931H322.607V190.431H310.257ZM22.8078 287.431H15.5278C15.1378 286.261 14.8778 285.546 14.8778 281.841V274.691C14.8778 270.466 13.4478 268.906 10.1978 268.906H7.72778V287.431H0.577783V241.931H11.3678C18.7778 241.931 21.9628 245.376 21.9628 252.396V255.971C21.9628 260.651 20.4678 263.706 17.2828 265.201C20.8578 266.696 22.0278 270.141 22.0278 274.886V281.906C22.0278 284.116 22.0928 285.741 22.8078 287.431ZM11.1728 248.431H7.72778V262.406H10.5228C13.1878 262.406 14.8128 261.236 14.8128 257.596V253.111C14.8128 249.861 13.7078 248.431 11.1728 248.431ZM33.8801 248.431V261.106H43.6951V267.606H33.8801V280.931H46.2301V287.431H26.7301V241.931H46.2301V248.431H33.8801ZM64.6358 270.466H71.3958V276.511C71.3958 283.791 67.7558 287.951 60.7358 287.951C53.7158 287.951 50.0758 283.791 50.0758 276.511V252.851C50.0758 245.571 53.7158 241.411 60.7358 241.411C67.7558 241.411 71.3958 245.571 71.3958 252.851V257.271H64.6358V252.396C64.6358 249.146 63.2058 247.911 60.9308 247.911C58.6558 247.911 57.2258 249.146 57.2258 252.396V276.966C57.2258 280.216 58.6558 281.386 60.9308 281.386C63.2058 281.386 64.6358 280.216 64.6358 276.966V270.466ZM82.299 252.396V276.966C82.299 280.216 83.729 281.451 86.004 281.451C88.279 281.451 89.709 280.216 89.709 276.966V252.396C89.709 249.146 88.279 247.911 86.004 247.911C83.729 247.911 82.299 249.146 82.299 252.396ZM75.149 276.511V252.851C75.149 245.571 78.984 241.411 86.004 241.411C93.024 241.411 96.859 245.571 96.859 252.851V276.511C96.859 283.791 93.024 287.951 86.004 287.951C78.984 287.951 75.149 283.791 75.149 276.511ZM116.781 287.431L107.876 254.476V287.431H101.441V241.931H110.411L117.756 269.166V241.931H124.126V287.431H116.781ZM135.81 252.396V276.966C135.81 280.216 137.24 281.451 139.515 281.451C141.79 281.451 143.22 280.216 143.22 276.966V252.396C143.22 249.146 141.79 247.911 139.515 247.911C137.24 247.911 135.81 249.146 135.81 252.396ZM128.66 276.511V252.851C128.66 245.571 132.495 241.411 139.515 241.411C146.535 241.411 150.37 245.571 150.37 252.851V276.511C150.37 283.791 146.535 287.951 139.515 287.951C132.495 287.951 128.66 283.791 128.66 276.511ZM168.991 270.466H175.751V276.511C175.751 283.791 172.111 287.951 165.091 287.951C158.071 287.951 154.431 283.791 154.431 276.511V252.851C154.431 245.571 158.071 241.411 165.091 241.411C172.111 241.411 175.751 245.571 175.751 252.851V257.271H168.991V252.396C168.991 249.146 167.561 247.911 165.286 247.911C163.011 247.911 161.581 249.146 161.581 252.396V276.966C161.581 280.216 163.011 281.386 165.286 281.386C167.561 281.386 168.991 280.216 168.991 276.966V270.466ZM180.09 287.431V241.931H187.24V287.431H180.09ZM202.347 241.931L207.612 274.236L212.487 241.931H222.432V287.431H215.672V254.801L210.732 287.431H203.972L198.642 255.256V287.431H192.402V241.931H202.347ZM227.633 287.431V241.931H234.783V287.431H227.633ZM247.161 248.431V261.106H256.976V267.606H247.161V280.931H259.511V287.431H240.011V241.931H259.511V248.431H247.161ZM279.217 287.431L270.312 254.476V287.431H263.877V241.931H272.847L280.192 269.166V241.931H286.562V287.431H279.217ZM289.601 248.431V241.931H311.701V248.431H304.226V287.431H297.076V248.431H289.601ZM321.415 252.396V276.966C321.415 280.216 322.845 281.451 325.12 281.451C327.395 281.451 328.825 280.216 328.825 276.966V252.396C328.825 249.146 327.395 247.911 325.12 247.911C322.845 247.911 321.415 249.146 321.415 252.396ZM314.265 276.511V252.851C314.265 245.571 318.1 241.411 325.12 241.411C332.14 241.411 335.975 245.571 335.975 252.851V276.511C335.975 283.791 332.14 287.951 325.12 287.951C318.1 287.951 314.265 283.791 314.265 276.511ZM110.782 306.431V320.146H120.012V326.646H110.782V345.431H103.632V299.931H122.547V306.431H110.782ZM141.011 299.931L148.291 345.431H141.076L139.841 337.176H131.066L129.831 345.431H123.266L130.546 299.931H141.011ZM135.421 307.991L131.976 331.001H138.866L135.421 307.991ZM165.595 328.466H172.355V334.511C172.355 341.791 168.715 345.951 161.695 345.951C154.675 345.951 151.035 341.791 151.035 334.511V310.851C151.035 303.571 154.675 299.411 161.695 299.411C168.715 299.411 172.355 303.571 172.355 310.851V315.271H165.595V310.396C165.595 307.146 164.165 305.911 161.89 305.911C159.615 305.911 158.185 307.146 158.185 310.396V334.966C158.185 338.216 159.615 339.386 161.89 339.386C164.165 339.386 165.595 338.216 165.595 334.966V328.466ZM176.694 345.431V299.931H183.844V345.431H176.694ZM204.931 299.931L212.211 345.431H204.996L203.761 337.176H194.986L193.751 345.431H187.186L194.466 299.931H204.931ZM199.341 307.991L195.896 331.001H202.786L199.341 307.991ZM215.541 345.431V299.931H222.691V338.931H234.456V345.431H215.541Z" fill="black"/>
</svg>
