<svg width="1187" height="268" viewBox="0 0 1187 268" fill="none" xmlns="http://www.w3.org/2000/svg">
<path d="M16.9898 88C11.6565 88 7.62318 86.5 4.88984 83.5C2.15651 80.4333 0.789844 76.0667 0.789844 70.4V66.4H11.1898V71.2C11.1898 75.7333 13.0898 78 16.8898 78C18.7565 78 20.1565 77.4667 21.0898 76.4C22.0898 75.2667 22.5898 73.4667 22.5898 71C22.5898 68.0667 21.9232 65.5 20.5898 63.3C19.2565 61.0333 16.7898 58.3333 13.1898 55.2C8.65651 51.2 5.48984 47.6 3.68984 44.4C1.88984 41.1333 0.989844 37.4667 0.989844 33.4C0.989844 27.8667 2.38984 23.6 5.18984 20.6C7.98984 17.5333 12.0565 16 17.3898 16C22.6565 16 26.6232 17.5333 29.2898 20.6C32.0232 23.6 33.3898 27.9333 33.3898 33.6V36.5H22.9898V32.9C22.9898 30.5 22.5232 28.7667 21.5898 27.7C20.6565 26.5667 19.2898 26 17.4898 26C13.8232 26 11.9898 28.2333 11.9898 32.7C11.9898 35.2333 12.6565 37.6 13.9898 39.8C15.3898 42 17.8898 44.6667 21.4898 47.8C26.0898 51.8 29.2565 55.4333 30.9898 58.7C32.7232 61.9667 33.5898 65.8 33.5898 70.2C33.5898 75.9333 32.1565 80.3333 29.2898 83.4C26.4898 86.4667 22.3898 88 16.9898 88ZM39.8969 17H69.8969V27H50.8969V45.5H65.9969V55.5H50.8969V77H69.8969V87H39.8969V17ZM108.241 88C102.907 88 98.8406 86.5 96.0406 83.5C93.2406 80.4333 91.8406 76.0667 91.8406 70.4V17H102.841V71.2C102.841 73.6 103.307 75.3333 104.241 76.4C105.241 77.4667 106.641 78 108.441 78C110.241 78 111.607 77.4667 112.541 76.4C113.541 75.3333 114.041 73.6 114.041 71.2V17H124.641V70.4C124.641 76.0667 123.241 80.4333 120.441 83.5C117.641 86.5 113.574 88 108.241 88ZM146.775 88C141.442 88 137.408 86.5 134.675 83.5C131.942 80.4333 130.575 76.0667 130.575 70.4V66.4H140.975V71.2C140.975 75.7333 142.875 78 146.675 78C148.542 78 149.942 77.4667 150.875 76.4C151.875 75.2667 152.375 73.4667 152.375 71C152.375 68.0667 151.708 65.5 150.375 63.3C149.042 61.0333 146.575 58.3333 142.975 55.2C138.442 51.2 135.275 47.6 133.475 44.4C131.675 41.1333 130.775 37.4667 130.775 33.4C130.775 27.8667 132.175 23.6 134.975 20.6C137.775 17.5333 141.842 16 147.175 16C152.442 16 156.408 17.5333 159.075 20.6C161.808 23.6 163.175 27.9333 163.175 33.6V36.5H152.775V32.9C152.775 30.5 152.308 28.7667 151.375 27.7C150.442 26.5667 149.075 26 147.275 26C143.608 26 141.775 28.2333 141.775 32.7C141.775 35.2333 142.442 37.6 143.775 39.8C145.175 42 147.675 44.6667 151.275 47.8C155.875 51.8 159.042 55.4333 160.775 58.7C162.508 61.9667 163.375 65.8 163.375 70.2C163.375 75.9333 161.942 80.3333 159.075 83.4C156.275 86.4667 152.175 88 146.775 88ZM185.582 88C180.182 88 176.049 86.4667 173.182 83.4C170.315 80.3333 168.882 76 168.882 70.4V33.6C168.882 28 170.315 23.6667 173.182 20.6C176.049 17.5333 180.182 16 185.582 16C190.982 16 195.115 17.5333 197.982 20.6C200.849 23.6667 202.282 28 202.282 33.6V70.4C202.282 76 200.849 80.3333 197.982 83.4C195.115 86.4667 190.982 88 185.582 88ZM185.582 78C189.382 78 191.282 75.7 191.282 71.1V32.9C191.282 28.3 189.382 26 185.582 26C181.782 26 179.882 28.3 179.882 32.9V71.1C179.882 75.7 181.782 78 185.582 78ZM186.582 0.799995H198.582L187.882 12.3H179.582L186.582 0.799995ZM225.737 17H255.737V27H236.737V45.5H251.837V55.5H236.737V77H255.737V87H225.737V17ZM262.065 17H273.065V77H291.165V87H262.065V17ZM326.755 88C321.422 88 317.389 86.5 314.655 83.5C311.922 80.4333 310.555 76.0667 310.555 70.4V66.4H320.955V71.2C320.955 75.7333 322.855 78 326.655 78C328.522 78 329.922 77.4667 330.855 76.4C331.855 75.2667 332.355 73.4667 332.355 71C332.355 68.0667 331.689 65.5 330.355 63.3C329.022 61.0333 326.555 58.3333 322.955 55.2C318.422 51.2 315.255 47.6 313.455 44.4C311.655 41.1333 310.755 37.4667 310.755 33.4C310.755 27.8667 312.155 23.6 314.955 20.6C317.755 17.5333 321.822 16 327.155 16C332.422 16 336.389 17.5333 339.055 20.6C341.789 23.6 343.155 27.9333 343.155 33.6V36.5H332.755V32.9C332.755 30.5 332.289 28.7667 331.355 27.7C330.422 26.5667 329.055 26 327.255 26C323.589 26 321.755 28.2333 321.755 32.7C321.755 35.2333 322.422 37.6 323.755 39.8C325.155 42 327.655 44.6667 331.255 47.8C335.855 51.8 339.022 55.4333 340.755 58.7C342.489 61.9667 343.355 65.8 343.355 70.2C343.355 75.9333 341.922 80.3333 339.055 83.4C336.255 86.4667 332.155 88 326.755 88ZM349.663 17H365.963C371.629 17 375.763 18.3333 378.363 21C380.963 23.6 382.263 27.6333 382.263 33.1V37.4C382.263 44.6667 379.863 49.2667 375.063 51.2V51.4C377.729 52.2 379.596 53.8333 380.663 56.3C381.796 58.7667 382.363 62.0667 382.363 66.2V78.5C382.363 80.5 382.429 82.1333 382.563 83.4C382.696 84.6 383.029 85.8 383.563 87H372.363C371.963 85.8667 371.696 84.8 371.563 83.8C371.429 82.8 371.363 81 371.363 78.4V65.6C371.363 62.4 370.829 60.1667 369.763 58.9C368.763 57.6333 366.996 57 364.463 57H360.663V87H349.663V17ZM364.663 47C366.863 47 368.496 46.4333 369.563 45.3C370.696 44.1667 371.262 42.2667 371.262 39.6V34.2C371.262 31.6667 370.796 29.8333 369.863 28.7C368.996 27.5667 367.596 27 365.663 27H360.663V47H364.663ZM389.995 17H419.095V27H400.995V46.5H415.195V56.5H400.995V87H389.995V17ZM440.385 17H456.585C462.052 17 466.152 18.4667 468.885 21.4C471.618 24.3333 472.985 28.6333 472.985 34.3V41.2C472.985 46.8667 471.618 51.1667 468.885 54.1C466.152 57.0333 462.052 58.5 456.585 58.5H451.385V87H440.385V17ZM456.585 48.5C458.385 48.5 459.718 48 460.585 47C461.518 46 461.985 44.3 461.985 41.9V33.6C461.985 31.2 461.518 29.5 460.585 28.5C459.718 27.5 458.385 27 456.585 27H451.385V48.5H456.585ZM483.944 17H498.844L510.244 87H499.244L497.244 73.1V73.3H484.744L482.744 87H472.544L483.944 17ZM495.944 63.8L491.044 29.2H490.844L486.044 63.8H495.944ZM515.58 17H531.88C537.547 17 541.68 18.3333 544.28 21C546.88 23.6 548.18 27.6333 548.18 33.1V37.4C548.18 44.6667 545.78 49.2667 540.98 51.2V51.4C543.647 52.2 545.514 53.8333 546.58 56.3C547.714 58.7667 548.28 62.0667 548.28 66.2V78.5C548.28 80.5 548.347 82.1333 548.48 83.4C548.614 84.6 548.947 85.8 549.48 87H538.28C537.88 85.8667 537.614 84.8 537.48 83.8C537.347 82.8 537.28 81 537.28 78.4V65.6C537.28 62.4 536.747 60.1667 535.68 58.9C534.68 57.6333 532.914 57 530.38 57H526.58V87H515.58V17ZM530.58 47C532.78 47 534.414 46.4333 535.48 45.3C536.614 44.1667 537.18 42.2667 537.18 39.6V34.2C537.18 31.6667 536.714 29.8333 535.78 28.7C534.914 27.5667 533.514 27 531.58 27H526.58V47H530.58ZM564.413 17H579.313L590.713 87H579.713L577.713 73.1V73.3H565.213L563.213 87H553.013L564.413 17ZM576.413 63.8L571.513 29.2H571.313L566.512 63.8H576.413ZM626.365 88C621.032 88 616.998 86.5 614.265 83.5C611.532 80.4333 610.165 76.0667 610.165 70.4V66.4H620.565V71.2C620.565 75.7333 622.465 78 626.265 78C628.132 78 629.532 77.4667 630.465 76.4C631.465 75.2667 631.965 73.4667 631.965 71C631.965 68.0667 631.298 65.5 629.965 63.3C628.632 61.0333 626.165 58.3333 622.565 55.2C618.032 51.2 614.865 47.6 613.065 44.4C611.265 41.1333 610.365 37.4667 610.365 33.4C610.365 27.8667 611.765 23.6 614.565 20.6C617.365 17.5333 621.432 16 626.765 16C632.032 16 635.998 17.5333 638.665 20.6C641.398 23.6 642.765 27.9333 642.765 33.6V36.5H632.365V32.9C632.365 30.5 631.898 28.7667 630.965 27.7C630.032 26.5667 628.665 26 626.865 26C623.198 26 621.365 28.2333 621.365 32.7C621.365 35.2333 622.032 37.6 623.365 39.8C624.765 42 627.265 44.6667 630.865 47.8C635.465 51.8 638.632 55.4333 640.365 58.7C642.098 61.9667 642.965 65.8 642.965 70.2C642.965 75.9333 641.532 80.3333 638.665 83.4C635.865 86.4667 631.765 88 626.365 88ZM649.272 17H679.272V27H660.272V45.5H675.372V55.5H660.272V77H679.272V87H649.272V17ZM701.2 88C695.867 88 691.8 86.5 689 83.5C686.2 80.4333 684.8 76.0667 684.8 70.4V33.6C684.8 27.9333 686.2 23.6 689 20.6C691.8 17.5333 695.867 16 701.2 16C706.533 16 710.6 17.5333 713.4 20.6C716.2 23.6 717.6 27.9333 717.6 33.6V39.6H707.2V32.9C707.2 28.3 705.3 26 701.5 26C697.7 26 695.8 28.3 695.8 32.9V71.2C695.8 75.7333 697.7 78 701.5 78C705.3 78 707.2 75.7333 707.2 71.2V57.5H701.7V47.5H717.6V70.4C717.6 76.0667 716.2 80.4333 713.4 83.5C710.6 86.5 706.533 88 701.2 88ZM740.663 88C735.329 88 731.263 86.5 728.463 83.5C725.663 80.4333 724.263 76.0667 724.263 70.4V17H735.262V71.2C735.262 73.6 735.729 75.3333 736.663 76.4C737.663 77.4667 739.063 78 740.863 78C742.663 78 744.029 77.4667 744.963 76.4C745.963 75.3333 746.463 73.6 746.463 71.2V17H757.063V70.4C757.063 76.0667 755.663 80.4333 752.863 83.5C750.063 86.5 745.996 88 740.663 88ZM764.897 17H775.897V87H764.897V17ZM784.135 17H800.435C806.102 17 810.235 18.3333 812.835 21C815.435 23.6 816.735 27.6333 816.735 33.1V37.4C816.735 44.6667 814.335 49.2667 809.535 51.2V51.4C812.202 52.2 814.068 53.8333 815.135 56.3C816.268 58.7667 816.835 62.0667 816.835 66.2V78.5C816.835 80.5 816.902 82.1333 817.035 83.4C817.168 84.6 817.502 85.8 818.035 87H806.835C806.435 85.8667 806.168 84.8 806.035 83.8C805.902 82.8 805.835 81 805.835 78.4V65.6C805.835 62.4 805.302 60.1667 804.235 58.9C803.235 57.6333 801.468 57 798.935 57H795.135V87H784.135V17ZM799.135 47C801.335 47 802.968 46.4333 804.035 45.3C805.168 44.1667 805.735 42.2667 805.735 39.6V34.2C805.735 31.6667 805.268 29.8333 804.335 28.7C803.468 27.5667 802.068 27 800.135 27H795.135V47H799.135ZM824.467 17H835.467V77H853.567V87H824.467V17ZM874.352 88C868.952 88 864.818 86.4667 861.952 83.4C859.085 80.3333 857.652 76 857.652 70.4V33.6C857.652 28 859.085 23.6667 861.952 20.6C864.818 17.5333 868.952 16 874.352 16C879.752 16 883.885 17.5333 886.752 20.6C889.618 23.6667 891.052 28 891.052 33.6V70.4C891.052 76 889.618 80.3333 886.752 83.4C883.885 86.4667 879.752 88 874.352 88ZM874.352 78C878.152 78 880.052 75.7 880.052 71.1V32.9C880.052 28.3 878.152 26 874.352 26C870.552 26 868.652 28.3 868.652 32.9V71.1C868.652 75.7 870.552 78 874.352 78ZM912.791 88C907.457 88 903.424 86.5 900.691 83.5C897.957 80.4333 896.591 76.0667 896.591 70.4V66.4H906.991V71.2C906.991 75.7333 908.891 78 912.691 78C914.557 78 915.957 77.4667 916.891 76.4C917.891 75.2667 918.391 73.4667 918.391 71C918.391 68.0667 917.724 65.5 916.391 63.3C915.057 61.0333 912.591 58.3333 908.991 55.2C904.457 51.2 901.291 47.6 899.491 44.4C897.691 41.1333 896.791 37.4667 896.791 33.4C896.791 27.8667 898.191 23.6 900.991 20.6C903.791 17.5333 907.857 16 913.191 16C918.457 16 922.424 17.5333 925.091 20.6C927.824 23.6 929.191 27.9333 929.191 33.6V36.5H918.791V32.9C918.791 30.5 918.324 28.7667 917.391 27.7C916.457 26.5667 915.091 26 913.291 26C909.624 26 907.791 28.2333 907.791 32.7C907.791 35.2333 908.457 37.6 909.791 39.8C911.191 42 913.691 44.6667 917.291 47.8C921.891 51.8 925.057 55.4333 926.791 58.7C928.524 61.9667 929.391 65.8 929.391 70.2C929.391 75.9333 927.957 80.3333 925.091 83.4C922.291 86.4667 918.191 88 912.791 88ZM967.213 88C961.947 88 957.913 86.5 955.113 83.5C952.38 80.5 951.013 76.2667 951.013 70.8V33.2C951.013 27.7333 952.38 23.5 955.113 20.5C957.913 17.5 961.947 16 967.213 16C972.48 16 976.48 17.5 979.213 20.5C982.013 23.5 983.413 27.7333 983.413 33.2V40.6H973.013V32.5C973.013 28.1667 971.18 26 967.513 26C963.847 26 962.013 28.1667 962.013 32.5V71.6C962.013 75.8667 963.847 78 967.513 78C971.18 78 973.013 75.8667 973.013 71.6V60.9H983.413V70.8C983.413 76.2667 982.013 80.5 979.213 83.5C976.48 86.5 972.48 88 967.213 88ZM1005.99 88C1000.66 88 996.595 86.5 993.795 83.5C990.995 80.4333 989.595 76.0667 989.595 70.4V17H1000.59V71.2C1000.59 73.6 1001.06 75.3333 1001.99 76.4C1002.99 77.4667 1004.39 78 1006.19 78C1007.99 78 1009.36 77.4667 1010.29 76.4C1011.29 75.3333 1011.79 73.6 1011.79 71.2V17H1022.39V70.4C1022.39 76.0667 1020.99 80.4333 1018.19 83.5C1015.39 86.5 1011.33 88 1005.99 88ZM1038.53 17H1053.43L1064.83 87H1053.83L1051.83 73.1V73.3H1039.33L1037.33 87H1027.13L1038.53 17ZM1050.53 63.8L1045.63 29.2H1045.43L1040.63 63.8H1050.53ZM1070.17 17H1083.97L1094.67 58.9H1094.87V17H1104.67V87H1093.37L1080.17 35.9H1079.97V87H1070.17V17ZM1112.85 17H1129.65C1135.11 17 1139.21 18.4667 1141.95 21.4C1144.68 24.3333 1146.05 28.6333 1146.05 34.3V69.7C1146.05 75.3667 1144.68 79.6667 1141.95 82.6C1139.21 85.5333 1135.11 87 1129.65 87H1112.85V17ZM1129.45 77C1131.25 77 1132.61 76.4667 1133.55 75.4C1134.55 74.3333 1135.05 72.6 1135.05 70.2V33.8C1135.05 31.4 1134.55 29.6667 1133.55 28.6C1132.61 27.5333 1131.25 27 1129.45 27H1123.85V77H1129.45ZM1169.37 88C1163.97 88 1159.84 86.4667 1156.97 83.4C1154.1 80.3333 1152.67 76 1152.67 70.4V33.6C1152.67 28 1154.1 23.6667 1156.97 20.6C1159.84 17.5333 1163.97 16 1169.37 16C1174.77 16 1178.9 17.5333 1181.77 20.6C1184.64 23.6667 1186.07 28 1186.07 33.6V70.4C1186.07 76 1184.64 80.3333 1181.77 83.4C1178.9 86.4667 1174.77 88 1169.37 88ZM1169.37 78C1173.17 78 1175.07 75.7 1175.07 71.1V32.9C1175.07 28.3 1173.17 26 1169.37 26C1165.57 26 1163.67 28.3 1163.67 32.9V71.1C1163.67 75.7 1165.57 78 1169.37 78ZM4.78945 107H21.5895C27.0561 107 31.1561 108.467 33.8895 111.4C36.6228 114.333 37.9895 118.633 37.9895 124.3V159.7C37.9895 165.367 36.6228 169.667 33.8895 172.6C31.1561 175.533 27.0561 177 21.5895 177H4.78945V107ZM21.3895 167C23.1895 167 24.5561 166.467 25.4895 165.4C26.4895 164.333 26.9895 162.6 26.9895 160.2V123.8C26.9895 121.4 26.4895 119.667 25.4895 118.6C24.5561 117.533 23.1895 117 21.3895 117H15.7895V167H21.3895ZM45.4145 107H75.4145V117H56.4145V135.5H71.5145V145.5H56.4145V167H75.4145V177H45.4145V107ZM81.7426 107H98.3426C104.009 107 108.143 108.333 110.743 111C113.343 113.6 114.643 117.633 114.643 123.1V125.9C114.643 129.5 114.043 132.433 112.843 134.7C111.709 136.967 109.943 138.6 107.543 139.6V139.8C113.009 141.667 115.743 146.533 115.743 154.4V160.4C115.743 165.8 114.309 169.933 111.443 172.8C108.643 175.6 104.509 177 99.0426 177H81.7426V107ZM97.0426 135.5C99.2426 135.5 100.876 134.933 101.943 133.8C103.076 132.667 103.643 130.767 103.643 128.1V124.2C103.643 121.667 103.176 119.833 102.243 118.7C101.376 117.567 99.9759 117 98.0426 117H92.7426V135.5H97.0426ZM99.0426 167C100.976 167 102.409 166.5 103.343 165.5C104.276 164.433 104.743 162.633 104.743 160.1V154C104.743 150.8 104.176 148.6 103.043 147.4C101.976 146.133 100.176 145.5 97.6426 145.5H92.7426V167H99.0426ZM122.172 107H133.172V177H122.172V107ZM128.672 90.8H140.672L129.972 102.3H121.672L128.672 90.8ZM149.911 107H164.811L176.211 177H165.211L163.211 163.1V163.3H150.711L148.711 177H138.511L149.911 107ZM161.911 153.8L157.011 119.2H156.811L152.011 153.8H161.911ZM197.563 107H227.563V117H208.563V135.5H223.663V145.5H208.563V167H227.563V177H197.563V107ZM248.386 178C243.053 178 239.02 176.5 236.286 173.5C233.553 170.433 232.186 166.067 232.186 160.4V156.4H242.586V161.2C242.586 165.733 244.486 168 248.286 168C250.153 168 251.553 167.467 252.486 166.4C253.486 165.267 253.986 163.467 253.986 161C253.986 158.067 253.32 155.5 251.986 153.3C250.653 151.033 248.186 148.333 244.586 145.2C240.053 141.2 236.886 137.6 235.086 134.4C233.286 131.133 232.386 127.467 232.386 123.4C232.386 117.867 233.786 113.6 236.586 110.6C239.386 107.533 243.453 106 248.786 106C254.053 106 258.02 107.533 260.686 110.6C263.42 113.6 264.786 117.933 264.786 123.6V126.5H254.386V122.9C254.386 120.5 253.92 118.767 252.986 117.7C252.053 116.567 250.686 116 248.886 116C245.22 116 243.386 118.233 243.386 122.7C243.386 125.233 244.053 127.6 245.386 129.8C246.786 132 249.286 134.667 252.886 137.8C257.486 141.8 260.653 145.433 262.386 148.7C264.12 151.967 264.986 155.8 264.986 160.2C264.986 165.933 263.553 170.333 260.686 173.4C257.886 176.467 253.786 178 248.386 178ZM279.893 117H268.393V107H302.393V117H290.893V177H279.893V117ZM311.629 107H326.529L337.929 177H326.929L324.929 163.1V163.3H312.429L310.429 177H300.229L311.629 107ZM323.629 153.8L318.729 119.2H318.529L313.729 153.8H323.629ZM343.266 107H359.566C365.233 107 369.366 108.333 371.966 111C374.566 113.6 375.866 117.633 375.866 123.1V127.4C375.866 134.667 373.466 139.267 368.666 141.2V141.4C371.333 142.2 373.199 143.833 374.266 146.3C375.399 148.767 375.966 152.067 375.966 156.2V168.5C375.966 170.5 376.033 172.133 376.166 173.4C376.299 174.6 376.633 175.8 377.166 177H365.966C365.566 175.867 365.299 174.8 365.166 173.8C365.033 172.8 364.966 171 364.966 168.4V155.6C364.966 152.4 364.433 150.167 363.366 148.9C362.366 147.633 360.599 147 358.066 147H354.266V177H343.266V107ZM358.266 137C360.466 137 362.099 136.433 363.166 135.3C364.299 134.167 364.866 132.267 364.866 129.6V124.2C364.866 121.667 364.399 119.833 363.466 118.7C362.599 117.567 361.199 117 359.266 117H354.266V137H358.266ZM399.614 107H416.414C421.88 107 425.98 108.467 428.714 111.4C431.447 114.333 432.814 118.633 432.814 124.3V159.7C432.814 165.367 431.447 169.667 428.714 172.6C425.98 175.533 421.88 177 416.414 177H399.614V107ZM416.214 167C418.014 167 419.38 166.467 420.314 165.4C421.314 164.333 421.814 162.6 421.814 160.2V123.8C421.814 121.4 421.314 119.667 420.314 118.6C419.38 117.533 418.014 117 416.214 117H410.614V167H416.214ZM440.239 107H470.239V117H451.239V135.5H466.339V145.5H451.239V167H470.239V177H440.239V107ZM491.062 178C485.729 178 481.695 176.5 478.962 173.5C476.229 170.433 474.862 166.067 474.862 160.4V156.4H485.262V161.2C485.262 165.733 487.162 168 490.962 168C492.829 168 494.229 167.467 495.162 166.4C496.162 165.267 496.662 163.467 496.662 161C496.662 158.067 495.995 155.5 494.662 153.3C493.329 151.033 490.862 148.333 487.262 145.2C482.729 141.2 479.562 137.6 477.762 134.4C475.962 131.133 475.062 127.467 475.062 123.4C475.062 117.867 476.462 113.6 479.262 110.6C482.062 107.533 486.129 106 491.462 106C496.729 106 500.695 107.533 503.362 110.6C506.095 113.6 507.462 117.933 507.462 123.6V126.5H497.062V122.9C497.062 120.5 496.595 118.767 495.662 117.7C494.729 116.567 493.362 116 491.562 116C487.895 116 486.062 118.233 486.062 122.7C486.062 125.233 486.729 127.6 488.062 129.8C489.462 132 491.962 134.667 495.562 137.8C500.162 141.8 503.329 145.433 505.062 148.7C506.795 151.967 507.662 155.8 507.662 160.2C507.662 165.933 506.229 170.333 503.362 173.4C500.562 176.467 496.462 178 491.062 178ZM522.569 117H511.069V107H545.069V117H533.569V177H522.569V117ZM550.395 107H561.395V177H550.395V107ZM569.633 107H583.433L594.133 148.9H594.333V107H604.133V177H592.833L579.633 125.9H579.433V177H569.633V107ZM620.809 107H635.709L647.109 177H636.109L634.109 163.1V163.3H621.609L619.609 177H609.409L620.809 107ZM632.809 153.8L627.909 119.2H627.709L622.909 153.8H632.809ZM652.446 107H669.246C674.712 107 678.812 108.467 681.546 111.4C684.279 114.333 685.646 118.633 685.646 124.3V159.7C685.646 165.367 684.279 169.667 681.546 172.6C678.812 175.533 674.712 177 669.246 177H652.446V107ZM669.046 167C670.846 167 672.212 166.467 673.146 165.4C674.146 164.333 674.646 162.6 674.646 160.2V123.8C674.646 121.4 674.146 119.667 673.146 118.6C672.212 117.533 670.846 117 669.046 117H663.446V167H669.046ZM708.971 178C703.571 178 699.437 176.467 696.571 173.4C693.704 170.333 692.271 166 692.271 160.4V123.6C692.271 118 693.704 113.667 696.571 110.6C699.437 107.533 703.571 106 708.971 106C714.371 106 718.504 107.533 721.371 110.6C724.237 113.667 725.671 118 725.671 123.6V160.4C725.671 166 724.237 170.333 721.371 173.4C718.504 176.467 714.371 178 708.971 178ZM708.971 168C712.771 168 714.671 165.7 714.671 161.1V122.9C714.671 118.3 712.771 116 708.971 116C705.171 116 703.271 118.3 703.271 122.9V161.1C703.271 165.7 705.171 168 708.971 168ZM765.125 178C759.792 178 755.725 176.5 752.925 173.5C750.125 170.433 748.725 166.067 748.725 160.4V107H759.725V161.2C759.725 163.6 760.192 165.333 761.125 166.4C762.125 167.467 763.525 168 765.325 168C767.125 168 768.492 167.467 769.425 166.4C770.425 165.333 770.925 163.6 770.925 161.2V107H781.525V160.4C781.525 166.067 780.125 170.433 777.325 173.5C774.525 176.5 770.459 178 765.125 178ZM766.125 90.8H778.125L767.425 102.3H759.125L766.125 90.8ZM789.36 107H803.16L813.86 148.9H814.06V107H823.86V177H812.56L799.36 125.9H799.16V177H789.36V107ZM832.036 107H843.036V177H832.036V107ZM866.774 178C861.507 178 857.474 176.5 854.674 173.5C851.94 170.5 850.574 166.267 850.574 160.8V123.2C850.574 117.733 851.94 113.5 854.674 110.5C857.474 107.5 861.507 106 866.774 106C872.04 106 876.04 107.5 878.774 110.5C881.574 113.5 882.974 117.733 882.974 123.2V130.6H872.574V122.5C872.574 118.167 870.74 116 867.074 116C863.407 116 861.574 118.167 861.574 122.5V161.6C861.574 165.867 863.407 168 867.074 168C870.74 168 872.574 165.867 872.574 161.6V150.9H882.974V160.8C882.974 166.267 881.574 170.5 878.774 173.5C876.04 176.5 872.04 178 866.774 178ZM898.055 107H912.955L924.355 177H913.355L911.355 163.1V163.3H898.855L896.855 177H886.655L898.055 107ZM910.055 153.8L905.155 119.2H904.955L900.155 153.8H910.055ZM929.692 107H945.392L952.392 157.1H952.592L959.592 107H975.292V177H964.892V124H964.692L956.692 177H947.492L939.492 124H939.292V177H929.692V107ZM983.5 107H1013.5V117H994.5V135.5H1009.6V145.5H994.5V167H1013.5V177H983.5V107ZM1019.83 107H1033.63L1044.33 148.9H1044.53V107H1054.33V177H1043.03L1029.83 125.9H1029.63V177H1019.83V107ZM1071.1 117H1059.6V107H1093.6V117H1082.1V177H1071.1V117ZM1098.93 107H1128.93V117H1109.93V135.5H1125.03V145.5H1109.93V167H1128.93V177H1098.93V107ZM1159.77 107H1174.67L1186.07 177H1175.07L1173.07 163.1V163.3H1160.57L1158.57 177H1148.37L1159.77 107ZM1171.77 153.8L1166.87 119.2H1166.67L1161.87 153.8H1171.77ZM232.313 268C226.98 268 222.913 266.5 220.113 263.5C217.313 260.433 215.913 256.067 215.913 250.4V197H226.913V251.2C226.913 253.6 227.38 255.333 228.313 256.4C229.313 257.467 230.713 258 232.513 258C234.313 258 235.68 257.467 236.613 256.4C237.613 255.333 238.113 253.6 238.113 251.2V197H248.713V250.4C248.713 256.067 247.313 260.433 244.513 263.5C241.713 266.5 237.646 268 232.313 268ZM256.547 197H273.147C278.814 197 282.947 198.333 285.547 201C288.147 203.6 289.447 207.633 289.447 213.1V215.9C289.447 219.5 288.847 222.433 287.647 224.7C286.514 226.967 284.747 228.6 282.347 229.6V229.8C287.814 231.667 290.547 236.533 290.547 244.4V250.4C290.547 255.8 289.114 259.933 286.247 262.8C283.447 265.6 279.314 267 273.847 267H256.547V197ZM271.847 225.5C274.047 225.5 275.681 224.933 276.747 223.8C277.881 222.667 278.447 220.767 278.447 218.1V214.2C278.447 211.667 277.981 209.833 277.047 208.7C276.181 207.567 274.781 207 272.847 207H267.547V225.5H271.847ZM273.847 257C275.781 257 277.214 256.5 278.147 255.5C279.081 254.433 279.547 252.633 279.547 250.1V244C279.547 240.8 278.981 238.6 277.847 237.4C276.781 236.133 274.981 235.5 272.447 235.5H267.547V257H273.847ZM296.977 197H307.977V267H296.977V197ZM331.715 268C326.449 268 322.415 266.5 319.615 263.5C316.882 260.5 315.515 256.267 315.515 250.8V213.2C315.515 207.733 316.882 203.5 319.615 200.5C322.415 197.5 326.449 196 331.715 196C336.982 196 340.982 197.5 343.715 200.5C346.515 203.5 347.915 207.733 347.915 213.2V220.6H337.515V212.5C337.515 208.167 335.682 206 332.015 206C328.349 206 326.515 208.167 326.515 212.5V251.6C326.515 255.867 328.349 258 332.015 258C335.682 258 337.515 255.867 337.515 251.6V240.9H347.915V250.8C347.915 256.267 346.515 260.5 343.715 263.5C340.982 266.5 336.982 268 331.715 268ZM362.996 197H377.896L389.296 267H378.296L376.296 253.1V253.3H363.796L361.796 267H351.596L362.996 197ZM374.996 243.8L370.096 209.2H369.896L365.096 243.8H374.996ZM394.633 197H410.933C416.6 197 420.733 198.333 423.333 201C425.933 203.6 427.233 207.633 427.233 213.1V217.4C427.233 224.667 424.833 229.267 420.033 231.2V231.4C422.7 232.2 424.567 233.833 425.633 236.3C426.767 238.767 427.333 242.067 427.333 246.2V258.5C427.333 260.5 427.4 262.133 427.533 263.4C427.667 264.6 428 265.8 428.533 267H417.333C416.933 265.867 416.667 264.8 416.533 263.8C416.4 262.8 416.333 261 416.333 258.4V245.6C416.333 242.4 415.8 240.167 414.733 238.9C413.733 237.633 411.967 237 409.433 237H405.633V267H394.633V197ZM409.633 227C411.833 227 413.467 226.433 414.533 225.3C415.667 224.167 416.233 222.267 416.233 219.6V214.2C416.233 211.667 415.767 209.833 414.833 208.7C413.967 207.567 412.567 207 410.633 207H405.633V227H409.633ZM450.981 197H467.181C472.648 197 476.748 198.467 479.481 201.4C482.214 204.333 483.581 208.633 483.581 214.3V221.2C483.581 226.867 482.214 231.167 479.481 234.1C476.748 237.033 472.648 238.5 467.181 238.5H461.981V267H450.981V197ZM467.181 228.5C468.981 228.5 470.314 228 471.181 227C472.114 226 472.581 224.3 472.581 221.9V213.6C472.581 211.2 472.114 209.5 471.181 208.5C470.314 207.5 468.981 207 467.181 207H461.981V228.5H467.181ZM489.555 197H505.855C511.522 197 515.655 198.333 518.255 201C520.855 203.6 522.155 207.633 522.155 213.1V217.4C522.155 224.667 519.755 229.267 514.955 231.2V231.4C517.622 232.2 519.488 233.833 520.555 236.3C521.688 238.767 522.255 242.067 522.255 246.2V258.5C522.255 260.5 522.322 262.133 522.455 263.4C522.588 264.6 522.922 265.8 523.455 267H512.255C511.855 265.867 511.588 264.8 511.455 263.8C511.322 262.8 511.255 261 511.255 258.4V245.6C511.255 242.4 510.722 240.167 509.655 238.9C508.655 237.633 506.888 237 504.355 237H500.555V267H489.555V197ZM504.555 227C506.755 227 508.388 226.433 509.455 225.3C510.588 224.167 511.155 222.267 511.155 219.6V214.2C511.155 211.667 510.688 209.833 509.755 208.7C508.888 207.567 507.488 207 505.555 207H500.555V227H504.555ZM545.787 268C540.387 268 536.254 266.467 533.387 263.4C530.52 260.333 529.087 256 529.087 250.4V213.6C529.087 208 530.52 203.667 533.387 200.6C536.254 197.533 540.387 196 545.787 196C551.187 196 555.32 197.533 558.187 200.6C561.054 203.667 562.487 208 562.487 213.6V250.4C562.487 256 561.054 260.333 558.187 263.4C555.32 266.467 551.187 268 545.787 268ZM545.787 258C549.587 258 551.487 255.7 551.487 251.1V212.9C551.487 208.3 549.587 206 545.787 206C541.987 206 540.087 208.3 540.087 212.9V251.1C540.087 255.7 541.987 258 545.787 258ZM546.787 180.8H558.787L548.087 192.3H539.787L546.787 180.8ZM569.926 197H599.026V207H580.926V226.5H595.126V236.5H580.926V267H569.926V197ZM620.301 268C614.968 268 610.901 266.5 608.101 263.5C605.301 260.433 603.901 256.067 603.901 250.4V197H614.901V251.2C614.901 253.6 615.368 255.333 616.301 256.4C617.301 257.467 618.701 258 620.501 258C622.301 258 623.668 257.467 624.601 256.4C625.601 255.333 626.101 253.6 626.101 251.2V197H636.701V250.4C636.701 256.067 635.301 260.433 632.501 263.5C629.701 266.5 625.635 268 620.301 268ZM660.136 268C654.802 268 650.736 266.5 647.936 263.5C645.136 260.433 643.736 256.067 643.736 250.4V213.6C643.736 207.933 645.136 203.6 647.936 200.6C650.736 197.533 654.802 196 660.136 196C665.469 196 669.536 197.533 672.336 200.6C675.136 203.6 676.536 207.933 676.536 213.6V219.6H666.136V212.9C666.136 208.3 664.236 206 660.436 206C656.636 206 654.736 208.3 654.736 212.9V251.2C654.736 255.733 656.636 258 660.436 258C664.236 258 666.136 255.733 666.136 251.2V237.5H660.636V227.5H676.536V250.4C676.536 256.067 675.136 260.433 672.336 263.5C669.536 266.5 665.469 268 660.136 268ZM699.498 268C694.098 268 689.965 266.467 687.098 263.4C684.231 260.333 682.798 256 682.798 250.4V213.6C682.798 208 684.231 203.667 687.098 200.6C689.965 197.533 694.098 196 699.498 196C704.898 196 709.031 197.533 711.898 200.6C714.765 203.667 716.198 208 716.198 213.6V250.4C716.198 256 714.765 260.333 711.898 263.4C709.031 266.467 704.898 268 699.498 268ZM699.498 258C703.298 258 705.198 255.7 705.198 251.1V212.9C705.198 208.3 703.298 206 699.498 206C695.698 206 693.798 208.3 693.798 212.9V251.1C693.798 255.7 695.698 258 699.498 258ZM737.937 268C732.604 268 728.57 266.5 725.837 263.5C723.104 260.433 721.737 256.067 721.737 250.4V246.4H732.137V251.2C732.137 255.733 734.037 258 737.837 258C739.704 258 741.104 257.467 742.037 256.4C743.037 255.267 743.537 253.467 743.537 251C743.537 248.067 742.87 245.5 741.537 243.3C740.204 241.033 737.737 238.333 734.137 235.2C729.604 231.2 726.437 227.6 724.637 224.4C722.837 221.133 721.937 217.467 721.937 213.4C721.937 207.867 723.337 203.6 726.137 200.6C728.937 197.533 733.004 196 738.337 196C743.604 196 747.57 197.533 750.237 200.6C752.97 203.6 754.337 207.933 754.337 213.6V216.5H743.937V212.9C743.937 210.5 743.47 208.767 742.537 207.7C741.604 206.567 740.237 206 738.437 206C734.77 206 732.937 208.233 732.937 212.7C732.937 215.233 733.604 217.6 734.937 219.8C736.337 222 738.837 224.667 742.437 227.8C747.037 231.8 750.204 235.433 751.937 238.7C753.67 241.967 754.537 245.8 754.537 250.2C754.537 255.933 753.104 260.333 750.237 263.4C747.437 266.467 743.337 268 737.937 268ZM776.86 197H793.66C799.126 197 803.226 198.467 805.96 201.4C808.693 204.333 810.06 208.633 810.06 214.3V249.7C810.06 255.367 808.693 259.667 805.96 262.6C803.226 265.533 799.126 267 793.66 267H776.86V197ZM793.46 257C795.26 257 796.626 256.467 797.56 255.4C798.56 254.333 799.06 252.6 799.06 250.2V213.8C799.06 211.4 798.56 209.667 797.56 208.6C796.626 207.533 795.26 207 793.46 207H787.86V257H793.46ZM817.485 197H847.485V207H828.485V225.5H843.585V235.5H828.485V257H847.485V267H817.485V197ZM869.829 197H880.829V257H898.929V267H869.829V197ZM904.204 197H934.204V207H915.204V225.5H930.304V235.5H915.204V257H934.204V267H904.204V197ZM950.632 237.2L937.332 197H949.032L956.532 222.7H956.732L964.232 197H974.932L961.632 237.2V267H950.632V237.2Z" fill="black"/>
</svg>
