<svg width="195" height="82" viewBox="0 0 195 82" fill="none" xmlns="http://www.w3.org/2000/svg">
<g clip-path="url(#clip0_162_487)">
<path d="M0.837891 80.7933V1.80518H5.3362C8.41324 1.80518 10.6239 2.57488 11.9682 4.11251C13.3125 5.65192 13.9838 8.17227 13.9838 11.6789V32.4771C14.1395 37.1509 12.8346 39.8771 10.069 40.6557C12.6789 41.2786 13.9838 43.3425 13.9838 46.8492V76.354L14.0428 76.8212C14.0804 78.2622 14.1789 79.159 14.3346 79.508C14.3722 79.7801 14.6264 80.2097 15.0936 80.7933H11.1215C10.3805 80.0146 10.0117 78.554 10.0117 76.4113V47.7836C10.0117 45.7591 9.70027 44.4344 9.07734 43.8115C8.45441 43.2674 7.03314 42.9559 4.81173 42.8771V80.7951H0.837891V80.7933ZM4.80994 5.77722V38.6115C7.02956 38.6115 8.45083 38.241 9.07555 37.5017C9.69848 36.8394 10.0099 35.223 10.0099 32.6525V11.4444C10.0099 9.34115 9.67879 7.87155 9.01648 7.03382C8.35417 6.19609 7.18529 5.77722 5.51163 5.77722H4.80994Z" fill="white"/>
<path d="M20.1425 80.7933V1.80518H31.3015V5.77722H24.1145V38.4952H31.3015V42.4672H24.1145V76.8212H31.3015V80.7933H20.1425Z" fill="white"/>
<path d="M47.394 72.7312V52.8674H51.3661V72.7312C51.3661 78.5738 49.0086 81.4951 44.2973 81.4951C39.586 81.4951 37.1104 78.5362 37.1104 72.6148V10.4511C37.1104 8.50358 37.3449 6.8496 37.8121 5.48561C38.3186 4.1234 39.194 3.02254 40.4416 2.18481C41.6875 1.34709 43.089 0.928223 44.6481 0.928223C47.0235 0.928223 48.7383 1.67824 49.7891 3.17827C50.8416 4.67831 51.3661 7.12168 51.3661 10.5102V28.8561H47.394V10.5102C47.394 8.25118 47.19 6.71356 46.7801 5.89552C46.3719 5.07748 45.5825 4.66936 44.4137 4.66936C42.194 4.66936 41.0842 6.59721 41.0842 10.4529V72.7921C41.0842 75.7921 42.2137 77.2904 44.4727 77.2904C46.4203 77.2904 47.394 75.7706 47.394 72.733V72.7312Z" fill="white"/>
<path d="M56.9417 70.4527V12.73C56.9417 8.67921 57.3301 5.91363 58.1106 4.43328C59.3564 2.25304 61.304 1.16113 63.9532 1.16113C66.7582 1.16113 68.7039 2.3497 69.7958 4.72506C70.4188 6.01029 70.7302 8.62013 70.7302 12.5546V70.6872C70.7302 74.4659 70.3794 77.0364 69.6777 78.3986C68.5482 80.3855 66.6006 81.379 63.8351 81.379C61.0695 81.379 59.3743 80.6003 58.4024 79.0412C57.4286 77.4839 56.9417 74.6217 56.9417 70.4527ZM66.7564 70.6872V12.3792C66.7564 9.30213 66.581 7.317 66.2301 6.4202C65.8793 5.5252 65.1006 5.0759 63.8924 5.0759C62.6841 5.0759 61.8482 5.52341 61.4973 6.4202C61.1071 7.23824 60.9138 9.22516 60.9138 12.3792V70.5691C60.9138 73.4904 61.0892 75.3806 61.44 76.2363C61.7909 77.1706 62.5498 77.6378 63.7187 77.6378C64.8876 77.6378 65.7432 77.1706 66.1728 76.2363C66.5613 75.4182 66.7564 73.5691 66.7564 70.6854V70.6872Z" fill="white"/>
<path d="M76.5392 80.7933V1.80518H80.5703L88.2817 59.2361V1.80518H92.2537V80.7951H88.1063L80.5112 20.1511V80.7951H76.5392V80.7933Z" fill="white"/>
<path d="M98.1236 70.4527V12.73C98.1236 8.67921 98.512 5.91363 99.2925 4.43328C100.538 2.25304 102.486 1.16113 105.135 1.16113C107.94 1.16113 109.886 2.3497 110.978 4.72506C111.601 6.01029 111.912 8.62013 111.912 12.5546V70.6872C111.912 74.4659 111.561 77.0364 110.86 78.3986C109.73 80.3855 107.783 81.379 105.017 81.379C102.251 81.379 100.556 80.6003 99.5843 79.0412C98.6105 77.4839 98.1236 74.6217 98.1236 70.4527ZM107.938 70.6872V12.3792C107.938 9.30213 107.763 7.317 107.412 6.4202C107.061 5.5252 106.283 5.0759 105.076 5.0759C103.87 5.0759 103.032 5.52341 102.681 6.4202C102.291 7.23824 102.097 9.22516 102.097 12.3792V70.5691C102.097 73.4904 102.273 75.3806 102.624 76.2363C102.975 77.1706 103.734 77.6378 104.902 77.6378C106.071 77.6378 106.927 77.1706 107.357 76.2363C107.745 75.4182 107.94 73.5691 107.94 70.6854L107.938 70.6872Z" fill="white"/>
<path d="M128.003 72.7312V52.8674H131.977V72.7312C131.977 78.5738 129.619 81.4951 124.908 81.4951C120.197 81.4951 117.721 78.5362 117.721 72.6148V10.4511C117.721 8.50358 117.954 6.8496 118.423 5.48561C118.929 4.1234 119.805 3.02254 121.052 2.18481C122.298 1.34709 123.7 0.928223 125.259 0.928223C127.634 0.928223 129.349 1.67824 130.4 3.17827C131.452 4.67831 131.977 7.12168 131.977 10.5102V28.8561H128.003V10.5102C128.003 8.25118 127.799 6.71356 127.389 5.89552C126.981 5.07748 126.191 4.66936 125.023 4.66936C122.803 4.66936 121.691 6.59721 121.691 10.4529V72.7921C121.691 75.7921 122.821 77.2904 125.08 77.2904C127.027 77.2904 128.001 75.7706 128.001 72.733L128.003 72.7312Z" fill="white"/>
<path d="M137.434 80.7933V1.80518H148.593V5.77722H141.406V38.4952H148.593V42.4672H141.406V76.8212H148.593V80.7933H137.434Z" fill="white"/>
<path d="M154.461 80.7933V1.80518H159.953L166.087 66.5966L171.873 1.80518H177.599V80.7951H173.625V15.1838L167.842 80.7933H164.394L158.435 16.0018V80.7933H154.463H154.461Z" fill="white"/>
<path d="M183.465 80.7933V1.80518H194.624V5.77722H187.437V38.4952H194.624V42.4672H187.437V76.8212H194.624V80.7933H183.465Z" fill="white"/>
</g>
<defs>
<clipPath id="clip0_162_487">
<rect width="193.785" height="80.5669" fill="white" transform="translate(0.837891 0.928223)"/>
</clipPath>
</defs>
</svg>
