<svg width="349" height="120" viewBox="0 0 349 120" fill="none" xmlns="http://www.w3.org/2000/svg">
<path d="M5.28902 5.26306C8.87308 5.26306 10.327 7.76514 10.327 11.1801V11.6873H8.83927V11.0787C8.83927 8.57663 7.89254 6.68316 5.32283 6.68316C2.75312 6.68316 1.80639 8.54282 1.80639 11.0449C1.80639 16.7929 10.3608 16.8944 10.3608 23.4201C10.3608 26.8351 8.87308 29.3371 5.25521 29.3371C1.63733 29.3371 0.149605 26.8351 0.149605 23.4201V22.2028H1.63733V23.5215C1.63733 26.0574 2.61788 27.8832 5.22139 27.8832C7.82491 27.8832 8.80546 26.0574 8.80546 23.5215C8.80546 17.8411 0.251041 17.7397 0.251041 11.1463C0.251041 7.59608 1.80639 5.29687 5.28902 5.26306ZM12.7654 23.3524V11.2478C12.7654 7.79895 14.3546 5.26306 17.9386 5.26306C21.5903 5.26306 23.1795 7.79895 23.1795 11.2478V23.3524C23.1795 26.8013 21.5903 29.3371 17.9386 29.3371C14.3546 29.3371 12.7654 26.8013 12.7654 23.3524ZM14.3208 11.1463V23.4539C14.3208 26.0236 15.3351 27.917 17.9386 27.917C20.576 27.917 21.6241 26.0236 21.6241 23.4539V11.1463C21.6241 8.57663 20.576 6.68316 17.9386 6.68316C15.3351 6.68316 14.3208 8.57663 14.3208 11.1463ZM27.2998 16.9958H33.4197V18.4159H27.2998V29.1343H25.7444V5.46593H34.7384V6.88603H27.2998V16.9958ZM36.596 4.07964L38.9966 0.867511H40.6196L37.7794 4.07964H36.596ZM37.1031 29.1343V5.46593H38.6585V29.1343H37.1031ZM50.999 23.8934H43.628L42.4446 29.1343H41.0245L46.1977 5.43212H48.4631L53.7378 29.1343H52.1825L50.999 23.8934ZM47.2797 7.22415L43.8647 22.541H50.7624L47.2797 7.22415ZM61.3394 5.46593H66.2421C69.8938 5.46593 71.3139 7.76514 71.3139 11.214V13.7837C71.3139 17.5368 69.5895 19.3964 65.8364 19.3964H62.8948V29.1343H61.3394V5.46593ZM62.8948 17.9763H65.8364C68.5752 17.9763 69.7586 16.7591 69.7586 13.8851V11.1125C69.7586 8.54282 68.8795 6.88603 66.2421 6.88603H62.8948V17.9763ZM79.5374 0.901323H81.1603L78.3201 4.11346H77.1367L79.5374 0.901323ZM75.277 16.421H81.7351V17.8411H75.277V27.7142H83.0538V29.1343H73.7217V5.46593H83.0538V6.88603H75.277V16.421ZM85.5757 5.46593H90.5122C94.1301 5.46593 95.584 7.46084 95.584 10.8082V12.8707C95.584 15.6433 94.502 17.2325 92.169 17.7735C94.6035 18.3145 95.584 20.0389 95.584 22.6086V26.2941C95.584 27.2746 95.6516 28.3566 96.1588 29.1343H94.5358C94.1301 28.4242 94.0287 27.5789 94.0287 26.2941V22.5748C94.0287 19.4303 92.3043 18.5511 89.5993 18.5511H87.131V29.1343H85.5757V5.46593ZM87.131 17.131H89.6331C92.4057 17.131 94.0287 16.3534 94.0287 13.175V10.9435C94.0287 8.40757 93.0481 6.88603 90.4784 6.88603H87.131V17.131ZM100.174 16.421H106.632V17.8411H100.174V27.7142H107.95V29.1343H98.6184V5.46593H107.95V6.88603H100.174V16.421ZM120.92 27.7142V29.1343H110.269V27.7142L119.433 6.88603H110.709V5.46593H121.055V6.91985L111.892 27.7142H120.92ZM128.831 22.4057V21.1885L137.284 17.3001L128.831 13.4117V12.1945L138.772 16.7253V17.8749L128.831 22.4057ZM141.346 22.4057V21.1885L149.799 17.3001L141.346 13.4117V12.1945L151.286 16.7253V17.8749L141.346 22.4057ZM153.86 22.4057V21.1885L162.313 17.3001L153.86 13.4117V12.1945L163.801 16.7253V17.8749L153.86 22.4057ZM166.374 22.4057V21.1885L174.827 17.3001L166.374 13.4117V12.1945L176.315 16.7253V17.8749L166.374 22.4057ZM178.889 22.4057V21.1885L187.342 17.3001L178.889 13.4117V12.1945L188.829 16.7253V17.8749L178.889 22.4057ZM201.759 5.26306C205.444 5.26306 206.864 7.83277 206.864 11.2816C206.864 18.1116 198.31 20.4784 198.208 27.4437V27.7142H206.661V29.1343H196.653V27.9847C196.653 19.6331 205.309 17.8411 205.309 11.3492C205.309 8.61044 204.396 6.68316 201.691 6.68316C199.088 6.68316 198.141 8.71188 198.141 11.2478V12.8707H196.653V11.3492C196.653 7.9342 198.107 5.26306 201.759 5.26306ZM214.47 5.22925C218.122 5.22925 219.677 7.76514 219.677 11.2478V23.2848C219.677 26.8013 218.156 29.3371 214.47 29.3371C210.853 29.3371 209.297 26.8689 209.297 23.4201V23.1158H210.785V23.4877C210.785 26.0574 211.833 27.917 214.437 27.917C217.074 27.917 218.122 26.0236 218.122 23.2172V17.4015C217.378 19.1598 216.026 19.9036 213.929 19.9036C210.616 19.9036 209.263 17.4692 209.263 14.1218V11.2478C209.263 7.76514 210.853 5.22925 214.47 5.22925ZM214.47 6.68316C211.867 6.68316 210.819 8.57663 210.819 11.1463V14.0203C210.819 16.5901 211.867 18.4835 214.47 18.4835C217.074 18.4835 218.122 16.5901 218.122 14.0203V11.1463C218.122 8.57663 217.074 6.68316 214.47 6.68316ZM237.196 23.8934H229.825L228.641 29.1343H227.221L232.394 5.43212H234.66L239.935 29.1343H238.379L237.196 23.8934ZM233.476 7.22415L230.061 22.541H236.959L233.476 7.22415ZM250.435 1.44231L251.246 2.01712C250.84 2.99766 250.164 3.57246 249.285 3.60628C248.034 3.64009 247.223 2.45667 246.141 2.49048C245.532 2.49048 245.092 2.86242 244.72 3.50484L243.909 2.96385C244.349 1.91568 245.092 1.37469 246.005 1.34088C247.29 1.30707 248.135 2.52429 249.15 2.45667C249.725 2.45667 250.13 2.01712 250.435 1.44231ZM243.706 8.03564V29.1343H242.286V5.46593H244.315L251.415 25.4488V5.46593H252.835V29.1343H251.111L243.706 8.03564ZM255.392 23.3524V11.2478C255.392 7.79895 256.982 5.26306 260.566 5.26306C264.217 5.26306 265.806 7.79895 265.806 11.2478V23.3524C265.806 26.8013 264.217 29.3371 260.566 29.3371C256.982 29.3371 255.392 26.8013 255.392 23.3524ZM256.948 11.1463V23.4539C256.948 26.0236 257.962 27.917 260.566 27.917C263.203 27.917 264.251 26.0236 264.251 23.4539V11.1463C264.251 8.57663 263.203 6.68316 260.566 6.68316C257.962 6.68316 256.948 8.57663 256.948 11.1463ZM273.308 5.26306C276.892 5.26306 278.346 7.76514 278.346 11.1801V11.6873H276.858V11.0787C276.858 8.57663 275.911 6.68316 273.342 6.68316C270.772 6.68316 269.825 8.54282 269.825 11.0449C269.825 16.7929 278.38 16.8944 278.38 23.4201C278.38 26.8351 276.892 29.3371 273.274 29.3371C269.656 29.3371 268.168 26.8351 268.168 23.4201V22.2028H269.656V23.5215C269.656 26.0574 270.637 27.8832 273.24 27.8832C275.844 27.8832 276.824 26.0574 276.824 23.5215C276.824 17.8411 268.27 17.7397 268.27 11.1463C268.27 7.59608 269.825 5.29687 273.308 5.26306ZM286.136 22.4057V21.1885L294.589 17.3001L286.136 13.4117V12.1945L296.077 16.7253V17.8749L286.136 22.4057ZM298.65 22.4057V21.1885L307.103 17.3001L298.65 13.4117V12.1945L308.591 16.7253V17.8749L298.65 22.4057ZM311.165 22.4057V21.1885L319.618 17.3001L311.165 13.4117V12.1945L321.105 16.7253V17.8749L311.165 22.4057ZM323.679 22.4057V21.1885L332.132 17.3001L323.679 13.4117V12.1945L333.62 16.7253V17.8749L323.679 22.4057ZM336.193 22.4057V21.1885L344.646 17.3001L336.193 13.4117V12.1945L346.134 16.7253V17.8749L336.193 22.4057ZM63.3536 52.4057V51.1885L71.8066 47.3001L63.3536 43.4117V42.1945L73.2943 46.7253V47.8749L63.3536 52.4057ZM75.868 52.4057V51.1885L84.3209 47.3001L75.868 43.4117V42.1945L85.8087 46.7253V47.8749L75.868 52.4057ZM88.3823 52.4057V51.1885L96.8353 47.3001L88.3823 43.4117V42.1945L98.323 46.7253V47.8749L88.3823 52.4057ZM100.897 52.4057V51.1885L109.35 47.3001L100.897 43.4117V42.1945L110.837 46.7253V47.8749L100.897 52.4057ZM120.217 46.421H126.675V47.8411H120.217V57.7142H127.993V59.1343H118.661V35.4659H127.993V36.886H120.217V46.421ZM135.452 35.2631C139.036 35.2631 140.49 37.7651 140.49 41.1801V41.6873H139.002V41.0787C139.002 38.5766 138.055 36.6832 135.486 36.6832C132.916 36.6832 131.969 38.5428 131.969 41.0449C131.969 46.7929 140.523 46.8944 140.523 53.4201C140.523 56.8351 139.036 59.3371 135.418 59.3371C131.8 59.3371 130.312 56.8351 130.312 53.4201V52.2028H131.8V53.5215C131.8 56.0574 132.781 57.8832 135.384 57.8832C137.988 57.8832 138.968 56.0574 138.968 53.5215C138.968 47.8411 130.414 47.7397 130.414 41.1463C130.414 37.5961 131.969 35.2969 135.452 35.2631ZM148.676 59.1343H147.121V36.886H142.286V35.4659H153.477V36.886H148.676V59.1343ZM156.999 35.4659V53.4201C156.999 55.956 157.945 57.917 160.549 57.917C163.152 57.917 164.099 55.956 164.099 53.4201V35.4659H165.553V53.3524C165.553 56.7336 164.133 59.3371 160.515 59.3371C156.897 59.3371 155.443 56.7336 155.443 53.3524V35.4659H156.999ZM168.223 35.4659H173.43C177.082 35.4659 178.671 37.8666 178.671 41.3492V53.251C178.671 56.7336 177.082 59.1343 173.43 59.1343H168.223V35.4659ZM169.779 57.7142H173.397C176.034 57.7142 177.116 55.9221 177.116 53.3186V41.2816C177.116 38.6781 176 36.886 173.397 36.886H169.779V57.7142ZM181.233 35.4659H182.788V59.1343H181.233V35.4659ZM195.129 53.8934H187.758L186.575 59.1343H185.154L190.328 35.4321H192.593L197.868 59.1343H196.312L195.129 53.8934ZM191.41 37.2242L187.995 52.541H194.892L191.41 37.2242ZM201.639 38.0356V59.1343H200.219V35.4659H202.248L209.348 55.4488V35.4659H210.769V59.1343H209.044L201.639 38.0356ZM219.074 59.1343H217.518V36.886H212.683V35.4659H223.875V36.886H219.074V59.1343ZM227.464 46.421H233.922V47.8411H227.464V57.7142H235.24V59.1343H225.908V35.4659H235.24V36.886H227.464V46.421ZM243.012 35.4659H248.219C251.871 35.4659 253.46 37.8666 253.46 41.3492V53.251C253.46 56.7336 251.871 59.1343 248.219 59.1343H243.012V35.4659ZM244.568 57.7142H248.186C250.823 57.7142 251.905 55.9221 251.905 53.3186V41.2816C251.905 38.6781 250.789 36.886 248.186 36.886H244.568V57.7142ZM257.577 46.421H264.036V47.8411H257.577V57.7142H265.354V59.1343H256.022V35.4659H265.354V36.886H257.577V46.421ZM278.773 59.1343H277.217V36.886H272.382V35.4659H283.574V36.886H278.773V59.1343ZM287.163 46.421H293.621V47.8411H287.163V57.7142H294.94V59.1343H285.608V35.4659H294.94V36.886H287.163V46.421ZM307.098 53.8934H299.727L298.543 59.1343H297.123L302.297 35.4321H304.562L309.837 59.1343H308.281L307.098 53.8934ZM303.379 37.2242L299.964 52.541H306.861L303.379 37.2242ZM317.835 59.1343H316.279V36.886H311.444V35.4659H322.636V36.886H317.835V59.1343ZM324.67 35.4659H329.606C333.224 35.4659 334.678 37.4608 334.678 40.8082V42.8707C334.678 45.6433 333.596 47.2325 331.263 47.7735C333.697 48.3145 334.678 50.0389 334.678 52.6086V56.2941C334.678 57.2746 334.746 58.3566 335.253 59.1343H333.63C333.224 58.4242 333.123 57.5789 333.123 56.2941V52.5748C333.123 49.4303 331.398 48.5511 328.693 48.5511H326.225V59.1343H324.67V35.4659ZM326.225 47.131H328.727C331.5 47.131 333.123 46.3534 333.123 43.175V40.9435C333.123 38.4076 332.142 36.886 329.572 36.886H326.225V47.131ZM337.611 53.3524V41.2478C337.611 37.799 339.2 35.2631 342.784 35.2631C346.436 35.2631 348.025 37.799 348.025 41.2478V53.3524C348.025 56.8013 346.436 59.3371 342.784 59.3371C339.2 59.3371 337.611 56.8013 337.611 53.3524ZM339.166 41.1463V53.4539C339.166 56.0236 340.18 57.917 342.784 57.917C345.421 57.917 346.47 56.0236 346.47 53.4539V41.1463C346.47 38.5766 345.421 36.6832 342.784 36.6832C340.18 36.6832 339.166 38.5766 339.166 41.1463ZM0.352477 82.4057V81.1885L8.80546 77.3001L0.352477 73.4117V72.1945L10.2932 76.7253V77.8749L0.352477 82.4057ZM12.8668 82.4057V81.1885L21.3198 77.3001L12.8668 73.4117V72.1945L22.8076 76.7253V77.8749L12.8668 82.4057ZM25.3812 82.4057V81.1885L33.8342 77.3001L25.3812 73.4117V72.1945L35.3219 76.7253V77.8749L25.3812 82.4057ZM37.8956 82.4057V81.1885L46.3486 77.3001L37.8956 73.4117V72.1945L47.8363 76.7253V77.8749L37.8956 82.4057ZM50.41 82.4057V81.1885L58.8629 77.3001L50.41 73.4117V72.1945L60.3507 76.7253V77.8749L50.41 82.4057ZM67.8363 65.4659H69.4255L74.2268 87.3422L79.0281 65.4659H80.482L75.3426 89.1343H73.0434L67.8363 65.4659ZM82.8351 65.4659H84.3904V89.1343H82.8351V65.4659ZM92.0311 65.2631C95.6152 65.2631 97.0691 67.7651 97.0691 71.1801V71.6873H95.5814V71.0787C95.5814 68.5766 94.6346 66.6832 92.0649 66.6832C89.4952 66.6832 88.5485 68.5428 88.5485 71.0449C88.5485 76.7929 97.1029 76.8944 97.1029 83.4201C97.1029 86.8351 95.6152 89.3371 91.9973 89.3371C88.3794 89.3371 86.8917 86.8351 86.8917 83.4201V82.2028H88.3794V83.5215C88.3794 86.0574 89.36 87.8832 91.9635 87.8832C94.567 87.8832 95.5476 86.0574 95.5476 83.5215C95.5476 77.8411 86.9931 77.7397 86.9931 71.1463C86.9931 67.5961 88.5485 65.2969 92.0311 65.2631ZM105.256 89.1343H103.7V66.886H98.8651V65.4659H110.057V66.886H105.256V89.1343ZM111.989 83.3524V71.2478C111.989 67.799 113.578 65.2631 117.162 65.2631C120.814 65.2631 122.403 67.799 122.403 71.2478V83.3524C122.403 86.8013 120.814 89.3371 117.162 89.3371C113.578 89.3371 111.989 86.8013 111.989 83.3524ZM113.544 71.1463V83.4539C113.544 86.0236 114.559 87.917 117.162 87.917C119.799 87.917 120.848 86.0236 120.848 83.4539V71.1463C120.848 68.5766 119.799 66.6832 117.162 66.6832C114.559 66.6832 113.544 68.5766 113.544 71.1463ZM130.218 82.4057V81.1885L138.671 77.3001L130.218 73.4117V72.1945L140.159 76.7253V77.8749L130.218 82.4057ZM142.732 82.4057V81.1885L151.185 77.3001L142.732 73.4117V72.1945L152.673 76.7253V77.8749L142.732 82.4057ZM155.247 82.4057V81.1885L163.7 77.3001L155.247 73.4117V72.1945L165.187 76.7253V77.8749L155.247 82.4057ZM167.761 82.4057V81.1885L176.214 77.3001L167.761 73.4117V72.1945L177.702 76.7253V77.8749L167.761 82.4057ZM198.408 68.1033L193.471 89.1005H191.916L186.912 68.1709V89.1343H185.526V65.4659H187.757L192.728 86.3955L197.664 65.4659H199.896V89.1343H198.408V68.1033ZM212.233 83.8934H204.862L203.679 89.1343H202.259L207.432 65.4321H209.697L214.972 89.1343H213.416L212.233 83.8934ZM208.514 67.2242L205.099 82.541H211.996L208.514 67.2242ZM217.323 65.4659H222.26C225.878 65.4659 227.332 67.4608 227.332 70.8082V72.8707C227.332 75.6433 226.25 77.2325 223.917 77.7735C226.351 78.3145 227.332 80.0389 227.332 82.6086V86.2941C227.332 87.2746 227.399 88.3566 227.906 89.1343H226.283C225.878 88.4242 225.776 87.5789 225.776 86.2941V82.5748C225.776 79.4303 224.052 78.5511 221.347 78.5511H218.879V89.1343H217.323V65.4659ZM218.879 77.131H221.381C224.153 77.131 225.776 76.3534 225.776 73.175V70.9435C225.776 68.4076 224.796 66.886 222.226 66.886H218.879V77.131ZM235.37 65.2631C238.988 65.2631 240.476 67.8328 240.476 71.2478V73.2089H238.988V71.1463C238.988 68.6104 238.007 66.6832 235.404 66.6832C232.8 66.6832 231.82 68.6104 231.82 71.1463V83.4539C231.82 85.9898 232.8 87.8832 235.404 87.8832C238.007 87.8832 238.988 85.9898 238.988 83.4539V80.6475H240.476V83.3524C240.476 86.7674 238.988 89.3371 235.37 89.3371C231.752 89.3371 230.265 86.7674 230.265 83.3524V71.2478C230.265 67.8328 231.752 65.2631 235.37 65.2631ZM251.939 78.0102H244.568V89.1343H243.012V65.4659H244.568V76.5901H251.939V65.4659H253.528V89.1343H251.939V78.0102ZM265.857 83.8934H258.486L257.302 89.1343H255.882L261.055 65.4321H263.321L268.595 89.1343H267.04L265.857 83.8934ZM262.137 67.2242L258.722 82.541H265.62L262.137 67.2242ZM276.197 65.4659H281.404C285.056 65.4659 286.645 67.8666 286.645 71.3492V83.251C286.645 86.7336 285.056 89.1343 281.404 89.1343H276.197V65.4659ZM277.752 87.7142H281.37C284.008 87.7142 285.09 85.9221 285.09 83.3186V71.2816C285.09 68.6781 283.974 66.886 281.37 66.886H277.752V87.7142ZM290.762 76.421H297.22V77.8411H290.762V87.7142H298.539V89.1343H289.207V65.4659H298.539V66.886H290.762V76.421ZM310.055 89.1343H301.061V65.4659H302.616V87.7142H310.055V89.1343ZM322.843 65.2631C326.394 65.2631 328.22 67.4946 328.22 71.0111V71.755C328.22 74.1894 327.307 76.1167 325.075 76.7253C327.374 77.4015 328.22 79.3288 328.22 81.7971V83.4877C328.22 86.9703 326.461 89.3371 322.843 89.3371C319.192 89.3371 317.467 86.9703 317.467 83.4877V81.7971C317.467 79.295 318.279 77.4354 320.646 76.7253C318.346 76.0829 317.467 74.257 317.467 71.755V71.0111C317.467 67.4946 319.259 65.2631 322.843 65.2631ZM322.843 66.6832C320.308 66.6832 319.023 68.2723 319.023 71.0449V72.0254C319.023 74.6966 320.341 76.0829 322.843 76.0829C325.346 76.0829 326.664 74.6966 326.664 72.0254V71.0449C326.664 68.2723 325.346 66.6832 322.843 66.6832ZM322.843 77.503C320.24 77.503 319.023 78.8893 319.023 81.6618V83.4539C319.023 86.1926 320.274 87.917 322.843 87.917C325.413 87.917 326.63 86.1926 326.664 83.4539V81.6618C326.664 78.8893 325.413 77.503 322.843 77.503ZM343.627 68.1033L338.691 89.1005H337.136L332.131 68.1709V89.1343H330.745V65.4659H332.977L337.947 86.3955L342.884 65.4659H345.115V89.1343H343.627V68.1033ZM10.8004 117.714V119.134H0.149605V117.714L9.31264 96.886H0.58916V95.4659H10.9356V96.9198L1.77258 117.714H10.8004ZM13.3598 113.352V101.248C13.3598 97.799 14.9489 95.2631 18.533 95.2631C22.1847 95.2631 23.7738 97.799 23.7738 101.248V113.352C23.7738 116.801 22.1847 119.337 18.533 119.337C14.9489 119.337 13.3598 116.801 13.3598 113.352ZM14.9151 101.146V113.454C14.9151 116.024 15.9295 117.917 18.533 117.917C21.1703 117.917 22.2185 116.024 22.2185 113.454V101.146C22.2185 98.5766 21.1703 96.6832 18.533 96.6832C15.9295 96.6832 14.9151 98.5766 14.9151 101.146ZM27.7589 98.0356V119.134H26.3388V95.4659H28.3675L35.468 115.449V95.4659H36.8881V119.134H35.1637L27.7589 98.0356ZM49.183 113.893H41.812L40.6286 119.134H39.2084L44.3817 95.4321H46.6471L51.9217 119.134H50.3664L49.183 113.893ZM45.4637 97.2242L42.0487 112.541H48.9463L45.4637 97.2242ZM59.5233 95.4659H64.7304C68.3821 95.4659 69.9712 97.8666 69.9712 101.349V113.251C69.9712 116.734 68.3821 119.134 64.7304 119.134H59.5233V95.4659ZM61.0787 117.714H64.6966C67.3339 117.714 68.4159 115.922 68.4159 113.319V101.282C68.4159 98.6781 67.3001 96.886 64.6966 96.886H61.0787V117.714ZM74.0884 106.421H80.5464V107.841H74.0884V117.714H81.8651V119.134H72.533V95.4659H81.8651V96.886H74.0884V106.421ZM91.1924 106.996H97.3124V108.416H91.1924V119.134H89.6371V95.4659H98.631V96.886H91.1924V106.996ZM100.996 95.4659H105.932C109.55 95.4659 111.004 97.4608 111.004 100.808V102.871C111.004 105.643 109.922 107.232 107.589 107.773C110.024 108.314 111.004 110.039 111.004 112.609V116.294C111.004 117.275 111.072 118.357 111.579 119.134H109.956C109.55 118.424 109.449 117.579 109.449 116.294V112.575C109.449 109.43 107.724 108.551 105.019 108.551H102.551V119.134H100.996V95.4659ZM102.551 107.131H105.053C107.826 107.131 109.449 106.353 109.449 103.175V100.943C109.449 98.4076 108.468 96.886 105.899 96.886H102.551V107.131ZM115.594 106.421H122.052V107.841H115.594V117.714H123.371V119.134H114.038V95.4659H123.371V96.886H115.594V106.421ZM130.897 95.2631C134.514 95.2631 136.002 97.8328 136.002 101.248V103.209H134.514V101.146C134.514 98.6104 133.534 96.6832 130.93 96.6832C128.327 96.6832 127.346 98.6104 127.346 101.146V113.454C127.346 115.99 128.327 117.883 130.93 117.883C133.534 117.883 134.514 115.99 134.514 113.454V110.647H136.002V113.352C136.002 116.767 134.514 119.337 130.897 119.337C127.279 119.337 125.791 116.767 125.791 113.352V101.248C125.791 97.8328 127.279 95.2631 130.897 95.2631ZM140.027 95.4659V113.42C140.027 115.956 140.973 117.917 143.577 117.917C146.18 117.917 147.127 115.956 147.127 113.42V95.4659H148.581V113.352C148.581 116.734 147.161 119.337 143.543 119.337C139.925 119.337 138.471 116.734 138.471 113.352V95.4659H140.027ZM152.807 106.421H159.265V107.841H152.807V117.714H160.583V119.134H151.251V95.4659H160.583V96.886H152.807V106.421ZM164.525 98.0356V119.134H163.105V95.4659H165.134L172.235 115.449V95.4659H173.655V119.134H171.93L164.525 98.0356ZM181.317 95.2631C184.935 95.2631 186.423 97.8328 186.423 101.248V103.209H184.935V101.146C184.935 98.6104 183.955 96.6832 181.351 96.6832C178.748 96.6832 177.767 98.6104 177.767 101.146V113.454C177.767 115.99 178.748 117.883 181.351 117.883C183.955 117.883 184.935 115.99 184.935 113.454V110.647H186.423V113.352C186.423 116.767 184.935 119.337 181.317 119.337C177.699 119.337 176.212 116.767 176.212 113.352V101.248C176.212 97.8328 177.699 95.2631 181.317 95.2631ZM188.96 95.4659H190.515V119.134H188.96V95.4659ZM202.855 113.893H195.484L194.301 119.134H192.881L198.054 95.4321H200.32L205.594 119.134H204.039L202.855 113.893ZM199.136 97.2242L195.721 112.541H202.619L199.136 97.2242ZM213.196 112.406V111.188L221.649 107.3L213.196 103.412V102.195L223.137 106.725V107.875L213.196 112.406ZM230.96 95.4659H235.931C239.481 95.4659 240.766 97.2242 240.766 100.504V101.856C240.766 104.426 240.056 106.015 237.655 106.522C240.225 107.03 241.205 108.923 241.205 111.594V113.657C241.205 117.072 239.65 119.134 236.032 119.134H230.96V95.4659ZM232.516 105.914H235.153C237.926 105.914 239.21 105.17 239.21 102.161V100.639C239.21 98.1709 238.433 96.886 235.897 96.886H232.516V105.914ZM232.516 117.714H236.032C238.636 117.714 239.65 116.26 239.65 113.623V111.493C239.65 108.416 238.264 107.334 235.457 107.334H232.516V117.714ZM253.375 113.893H246.004L244.821 119.134H243.401L248.574 95.4321H250.839L256.114 119.134H254.559L253.375 113.893ZM249.656 97.2242L246.241 112.541H253.139L249.656 97.2242ZM267.46 119.134H258.466V95.4659H260.021V117.714H267.46V119.134ZM268.33 95.4659H269.92L274.721 117.342L279.522 95.4659H280.976L275.837 119.134H273.537L268.33 95.4659ZM292.107 113.893H284.736L283.553 119.134H282.133L287.306 95.4321H289.571L294.846 119.134H293.29L292.107 113.893ZM288.388 97.2242L284.973 112.541H291.87L288.388 97.2242ZM298.617 98.0356V119.134H297.197V95.4659H299.226L306.327 115.449V95.4659H307.747V119.134H306.022L298.617 98.0356ZM311.96 106.421H318.419V107.841H311.96V117.714H319.737V119.134H310.405V95.4659H319.737V96.886H311.96V106.421ZM322.259 95.4659H327.196C330.814 95.4659 332.267 97.4608 332.267 100.808V102.871C332.267 105.643 331.185 107.232 328.852 107.773C331.287 108.314 332.267 110.039 332.267 112.609V116.294C332.267 117.275 332.335 118.357 332.842 119.134H331.219C330.814 118.424 330.712 117.579 330.712 116.294V112.575C330.712 109.43 328.988 108.551 326.283 108.551H323.814V119.134H322.259V95.4659ZM323.814 107.131H326.317C329.089 107.131 330.712 106.353 330.712 103.175V100.943C330.712 98.4076 329.732 96.886 327.162 96.886H323.814V107.131ZM344.938 113.893H337.567L336.384 119.134H334.964L340.137 95.4321H342.402L347.677 119.134H346.122L344.938 113.893ZM341.219 97.2242L337.804 112.541H344.702L341.219 97.2242Z" fill="#FF0000"/>
</svg>
