<svg width="348" height="81" viewBox="0 0 348 81" fill="none" xmlns="http://www.w3.org/2000/svg">
<path d="M38.402 79.1343H25.97C25.304 77.1363 24.86 75.9153 24.86 69.5883V57.3783C24.86 50.1633 22.418 47.4993 16.868 47.4993H12.65V79.1343H0.44V1.43427H18.866C31.52 1.43427 36.959 7.31728 36.959 19.3053V25.4103C36.959 33.4023 34.406 38.6193 28.967 41.1723C35.072 43.7253 37.07 49.6083 37.07 57.7113V69.6993C37.07 73.4733 37.181 76.2483 38.402 79.1343ZM18.533 12.5343H12.65V36.3993H17.423C21.974 36.3993 24.749 34.4013 24.749 28.1853V20.5263C24.749 14.9763 22.862 12.5343 18.533 12.5343ZM57.3102 12.5343V34.1793H74.0712V45.2793H57.3102V68.0343H78.4002V79.1343H45.1002V1.43427H78.4002V12.5343H57.3102ZM85.9664 79.1343V1.43427H105.28C117.49 1.43427 123.484 8.20527 123.484 20.6373V59.9313C123.484 72.3633 117.49 79.1343 105.28 79.1343H85.9664ZM105.058 12.5343H98.1764V68.0343H105.058C108.943 68.0343 111.274 66.0363 111.274 60.4863V20.0823C111.274 14.5323 108.943 12.5343 105.058 12.5343ZM160.722 12.5343V35.9553H176.484V47.0553H160.722V79.1343H148.512V1.43427H180.813V12.5343H160.722ZM186.669 79.1343V1.43427H198.879V68.0343H218.97V79.1343H186.669ZM251.367 1.43427L263.799 79.1343H251.478L249.369 65.0373H234.384L232.275 79.1343H221.064L233.496 1.43427H251.367ZM241.821 15.1983L235.938 54.4923H247.704L241.821 15.1983ZM287.8 46.9443V35.8443H304.894V60.4863C304.894 72.9183 298.678 80.0223 286.69 80.0223C274.702 80.0223 268.486 72.9183 268.486 60.4863V20.0823C268.486 7.65027 274.702 0.546277 286.69 0.546277C298.678 0.546277 304.894 7.65027 304.894 20.0823V27.6303H293.35V19.3053C293.35 13.7553 290.908 11.6463 287.023 11.6463C283.138 11.6463 280.696 13.7553 280.696 19.3053V61.2633C280.696 66.8133 283.138 68.8113 287.023 68.8113C290.908 68.8113 293.35 66.8133 293.35 61.2633V46.9443H287.8ZM311.182 20.0823C311.182 7.65027 317.287 0.546277 329.164 0.546277C341.041 0.546277 347.146 7.65027 347.146 20.0823V22.5243H335.602V19.3053C335.602 13.7553 333.382 11.6463 329.497 11.6463C325.612 11.6463 323.392 13.7553 323.392 19.3053C323.392 35.2893 347.257 38.2863 347.257 60.4863C347.257 72.9183 341.041 80.0223 329.053 80.0223C317.065 80.0223 310.849 72.9183 310.849 60.4863V55.7133H322.393V61.2633C322.393 66.8133 324.835 68.8113 328.72 68.8113C332.605 68.8113 335.047 66.8133 335.047 61.2633C335.047 45.2793 311.182 42.2823 311.182 20.0823Z" fill="#FF0000"/>
</svg>
