<svg width="1920" height="1269" viewBox="0 0 1920 1269" fill="none" xmlns="http://www.w3.org/2000/svg">
<path d="M284.37 156.524H334.954C337.019 162.718 338.051 169.428 338.051 178.719C338.051 257.692 276.111 264.918 276.111 354.731C276.111 380.539 286.435 390.346 304.5 390.346C322.566 390.346 332.889 380.539 332.889 354.731V315.502H386.57V351.118C386.57 408.928 358.181 441.963 302.952 441.963C247.722 441.963 219.333 408.928 219.333 351.118C219.333 257.176 286.435 242.723 286.435 176.654C286.435 169.944 285.918 163.234 284.37 156.524ZM337.535 131.232H282.821V76.5184H337.535V131.232ZM413.076 351.118V163.234C413.076 105.424 443.53 72.3891 499.276 72.3891C555.021 72.3891 585.475 105.424 585.475 163.234V351.118C585.475 371.248 581.862 388.282 574.636 401.702C577.216 408.412 581.346 409.444 590.637 409.444H595.798V460.028H588.056C562.764 460.028 546.763 450.737 539.02 435.252C527.665 439.382 514.244 441.963 499.276 441.963C443.53 441.963 413.076 408.928 413.076 351.118ZM469.854 159.621V354.731C469.854 380.539 481.21 390.346 499.276 390.346C517.341 390.346 528.697 380.539 528.697 354.731V159.621C528.697 133.813 517.341 124.005 499.276 124.005C481.21 124.005 469.854 133.813 469.854 159.621ZM619.792 76.5184H676.57V355.247C676.57 381.055 687.925 390.346 705.991 390.346C724.057 390.346 735.413 381.055 735.413 355.247V76.5184H789.094V351.634C789.094 409.444 760.188 442.479 704.443 442.479C648.697 442.479 619.792 409.444 619.792 351.634V76.5184ZM884.81 128.135V228.787H962.751V280.403H884.81V386.217H982.881V437.833H828.032V76.5184H982.881V128.135H884.81ZM910.102 0.126101H965.848L913.199 57.4203H875.003L910.102 0.126101ZM856.376 541.135V489.518H1031.87V541.135H972.513V850.833H915.735V541.135H856.376ZM1056.88 850.833V489.518H1113.66V850.833H1056.88ZM1211.95 541.135V641.787H1289.89V693.403H1211.95V799.217H1310.02V850.833H1155.17V489.518H1310.02V541.135H1211.95ZM1466.5 850.833L1395.79 589.138V850.833H1344.69V489.518H1415.92L1474.24 705.791V489.518H1524.83V850.833H1466.5ZM1622.26 541.135V641.787H1700.2V693.403H1622.26V799.217H1720.33V850.833H1565.48V489.518H1720.33V541.135H1622.26ZM1876.81 850.833L1806.1 589.138V850.833H1755V489.518H1826.23L1884.56 705.791V489.518H1935.14V850.833H1876.81ZM48.0595 954.135V1054.79H126V1106.4H48.0595V1212.22H146.131V1263.83H-8.71859V902.518H146.131V954.135H48.0595ZM302.613 1263.83L231.899 1002.14V1263.83H180.798V902.518H252.029L310.355 1118.79V902.518H360.94V1263.83H302.613ZM592.713 1129.11H646.394V1177.12C646.394 1234.93 617.489 1267.96 561.743 1267.96C505.998 1267.96 477.093 1234.93 477.093 1177.12V989.234C477.093 931.424 505.998 898.389 561.743 898.389C617.489 898.389 646.394 931.424 646.394 989.234V1024.33H592.713V985.621C592.713 959.813 581.358 950.005 563.292 950.005C545.226 950.005 533.871 959.813 533.871 985.621V1180.73C533.871 1206.54 545.226 1215.83 563.292 1215.83C581.358 1215.83 592.713 1206.54 592.713 1180.73V1129.11ZM732.977 985.621V1180.73C732.977 1206.54 744.332 1216.35 762.398 1216.35C780.464 1216.35 791.82 1206.54 791.82 1180.73V985.621C791.82 959.813 780.464 950.005 762.398 950.005C744.332 950.005 732.977 959.813 732.977 985.621ZM676.199 1177.12V989.234C676.199 931.424 706.653 898.389 762.398 898.389C818.144 898.389 848.598 931.424 848.598 989.234V1177.12C848.598 1234.93 818.144 1267.96 762.398 1267.96C706.653 1267.96 676.199 1234.93 676.199 1177.12ZM963.952 902.518L1005.76 1159.05L1044.47 902.518H1123.45V1263.83H1069.77V1004.72L1030.54 1263.83H976.856L934.531 1008.33V1263.83H884.979V902.518H963.952ZM1162.17 902.518H1218.95V1181.25C1218.95 1207.06 1230.3 1216.35 1248.37 1216.35C1266.43 1216.35 1277.79 1207.06 1277.79 1181.25V902.518H1331.47V1177.63C1331.47 1235.44 1302.56 1268.48 1246.82 1268.48C1191.07 1268.48 1162.17 1235.44 1162.17 1177.63V902.518ZM1252.5 826.126H1308.24L1255.59 883.42H1217.4L1252.5 826.126ZM1491.71 1263.83L1420.99 1002.14V1263.83H1369.89V902.518H1441.12L1499.45 1118.79V902.518H1550.03V1263.83H1491.71ZM1682.56 1183.83H1631.98C1629.91 1177.63 1628.88 1170.92 1628.88 1161.63C1628.88 1082.66 1690.82 1075.43 1690.82 985.621C1690.82 959.813 1680.5 950.005 1662.43 950.005C1644.37 950.005 1634.04 959.813 1634.04 985.621V1024.85H1580.36V989.234C1580.36 931.424 1608.75 898.389 1663.98 898.389C1719.21 898.389 1747.6 931.424 1747.6 989.234C1747.6 1083.18 1680.5 1097.63 1680.5 1163.7C1680.5 1170.41 1681.01 1177.12 1682.56 1183.83ZM1629.4 1209.12H1684.11V1263.83H1629.4V1209.12Z" fill="black"/>
</svg>
