<svg width="378" height="729" viewBox="0 0 378 729" fill="none" xmlns="http://www.w3.org/2000/svg">
<path d="M79.4379 54.6617H97.0779C97.7979 56.8217 98.1579 59.1617 98.1579 62.4017C98.1579 89.9417 76.5579 92.4617 76.5579 123.782C76.5579 132.782 80.1579 136.202 86.4579 136.202C92.7579 136.202 96.3579 132.782 96.3579 123.782V110.102H115.078V122.522C115.078 142.682 105.178 154.202 85.9179 154.202C66.6579 154.202 56.7579 142.682 56.7579 122.522C56.7579 89.7617 80.1579 84.7217 80.1579 61.6817C80.1579 59.3417 79.9779 57.0017 79.4379 54.6617ZM97.9779 45.8417H78.8979V26.7617H97.9779V45.8417ZM124.321 122.522V57.0017C124.321 36.8417 134.941 25.3217 154.381 25.3217C173.821 25.3217 184.441 36.8417 184.441 57.0017V122.522C184.441 129.542 183.181 135.482 180.661 140.162C181.561 142.502 183.001 142.862 186.241 142.862H188.041V160.502H185.341C176.521 160.502 170.941 157.262 168.241 151.862C164.281 153.302 159.601 154.202 154.381 154.202C134.941 154.202 124.321 142.682 124.321 122.522ZM144.121 55.7417V123.782C144.121 132.782 148.081 136.202 154.381 136.202C160.681 136.202 164.641 132.782 164.641 123.782V55.7417C164.641 46.7417 160.681 43.3217 154.381 43.3217C148.081 43.3217 144.121 46.7417 144.121 55.7417ZM196.408 26.7617H216.208V123.962C216.208 132.962 220.168 136.202 226.468 136.202C232.768 136.202 236.728 132.962 236.728 123.962V26.7617H255.448V122.702C255.448 142.862 245.368 154.382 225.928 154.382C206.488 154.382 196.408 142.862 196.408 122.702V26.7617ZM288.827 44.7617V79.8617H316.007V97.8617H288.827V134.762H323.027V152.762H269.027V26.7617H323.027V44.7617H288.827ZM297.647 0.12171H317.087L298.727 20.1017H285.407L297.647 0.12171ZM0.122617 188.762V170.762H61.3226V188.762H40.6226V296.762H20.8226V188.762H0.122617ZM70.0428 296.762V170.762H89.8428V296.762H70.0428ZM124.12 188.762V223.862H151.3V241.862H124.12V278.762H158.32V296.762H104.32V170.762H158.32V188.762H124.12ZM212.89 296.762L188.23 205.502V296.762H170.41V170.762H195.25L215.59 246.182V170.762H233.23V296.762H212.89ZM267.206 188.762V223.862H294.386V241.862H267.206V278.762H301.406V296.762H247.406V170.762H301.406V188.762H267.206ZM355.976 296.762L331.316 205.502V296.762H313.496V170.762H338.336L358.676 246.182V170.762H376.316V296.762H355.976ZM146.444 332.762V367.862H173.624V385.862H146.444V422.762H180.644V440.762H126.644V314.762H180.644V332.762H146.444ZM235.214 440.762L210.554 349.502V440.762H192.734V314.762H217.574L237.914 390.182V314.762H255.554V440.762H235.214ZM43.5279 537.782H62.2479V554.522C62.2479 574.682 52.1679 586.202 32.7279 586.202C13.2879 586.202 3.20793 574.682 3.20793 554.522V489.002C3.20793 468.842 13.2879 457.322 32.7279 457.322C52.1679 457.322 62.2479 468.842 62.2479 489.002V501.242H43.5279V487.742C43.5279 478.742 39.5679 475.322 33.2679 475.322C26.9679 475.322 23.0079 478.742 23.0079 487.742V555.782C23.0079 564.782 26.9679 568.022 33.2679 568.022C39.5679 568.022 43.5279 564.782 43.5279 555.782V537.782ZM92.4415 487.742V555.782C92.4415 564.782 96.4015 568.202 102.702 568.202C109.002 568.202 112.962 564.782 112.962 555.782V487.742C112.962 478.742 109.002 475.322 102.702 475.322C96.4015 475.322 92.4415 478.742 92.4415 487.742ZM72.6415 554.522V489.002C72.6415 468.842 83.2615 457.322 102.702 457.322C122.142 457.322 132.762 468.842 132.762 489.002V554.522C132.762 574.682 122.142 586.202 102.702 586.202C83.2615 586.202 72.6415 574.682 72.6415 554.522ZM172.989 458.762L187.569 548.222L201.069 458.762H228.609V584.762H209.889V494.402L196.209 584.762H177.489L162.729 495.662V584.762H145.449V458.762H172.989ZM242.112 458.762H261.912V555.962C261.912 564.962 265.872 568.202 272.172 568.202C278.472 568.202 282.432 564.962 282.432 555.962V458.762H301.152V554.702C301.152 574.862 291.072 586.382 271.632 586.382C252.192 586.382 242.112 574.862 242.112 554.702V458.762ZM273.612 432.122H293.052L274.692 452.102H261.372L273.612 432.122ZM357.03 584.762L332.37 493.502V584.762H314.55V458.762H339.39L359.73 534.182V458.762H377.37V584.762H357.03ZM197.796 700.862H180.156C179.436 698.702 179.076 696.362 179.076 693.122C179.076 665.582 200.676 663.062 200.676 631.742C200.676 622.742 197.076 619.322 190.776 619.322C184.476 619.322 180.876 622.742 180.876 631.742V645.422H162.156V633.002C162.156 612.842 172.056 601.322 191.316 601.322C210.576 601.322 220.476 612.842 220.476 633.002C220.476 665.762 197.076 670.802 197.076 693.842C197.076 696.182 197.256 698.522 197.796 700.862ZM179.256 709.682H198.336V728.762H179.256V709.682Z" fill="black"/>
</svg>
