<svg width="866" height="112" viewBox="0 0 866 112" fill="none" xmlns="http://www.w3.org/2000/svg">
<path d="M293.004 62.9025H300.804V69.8775C300.804 78.2775 296.604 83.0775 288.504 83.0775C280.404 83.0775 276.204 78.2775 276.204 69.8775V42.5775C276.204 34.1775 280.404 29.3775 288.504 29.3775C296.604 29.3775 300.804 34.1775 300.804 42.5775V47.6775H293.004V42.0525C293.004 38.3025 291.354 36.8775 288.729 36.8775C286.104 36.8775 284.454 38.3025 284.454 42.0525V70.4025C284.454 74.1525 286.104 75.5025 288.729 75.5025C291.354 75.5025 293.004 74.1525 293.004 70.4025V62.9025ZM313.385 42.0525V70.4025C313.385 74.1525 315.035 75.5775 317.66 75.5775C320.285 75.5775 321.935 74.1525 321.935 70.4025V42.0525C321.935 38.3025 320.285 36.8775 317.66 36.8775C315.035 36.8775 313.385 38.3025 313.385 42.0525ZM305.135 69.8775V42.5775C305.135 34.1775 309.56 29.3775 317.66 29.3775C325.76 29.3775 330.185 34.1775 330.185 42.5775V69.8775C330.185 78.2775 325.76 83.0775 317.66 83.0775C309.56 83.0775 305.135 78.2775 305.135 69.8775ZM353.171 82.4775L342.896 44.4525V82.4775H335.471V29.9775H345.821L354.296 61.4025V29.9775H361.646V82.4775H353.171ZM365.153 37.4775V29.9775H390.653V37.4775H382.028V82.4775H373.778V37.4775H365.153ZM409.73 29.9775L418.13 82.4775H409.805L408.38 72.9525H398.255L396.83 82.4775H389.255L397.655 29.9775H409.73ZM403.28 39.2775L399.305 65.8275H407.255L403.28 39.2775ZM438.097 62.9025H445.897V69.8775C445.897 78.2775 441.697 83.0775 433.597 83.0775C425.497 83.0775 421.297 78.2775 421.297 69.8775V42.5775C421.297 34.1775 425.497 29.3775 433.597 29.3775C441.697 29.3775 445.897 34.1775 445.897 42.5775V47.6775H438.097V42.0525C438.097 38.3025 436.447 36.8775 433.822 36.8775C431.197 36.8775 429.547 38.3025 429.547 42.0525V70.4025C429.547 74.1525 431.197 75.5025 433.822 75.5025C436.447 75.5025 438.097 74.1525 438.097 70.4025V62.9025ZM448.503 37.4775V29.9775H474.003V37.4775H465.378V82.4775H457.128V37.4775H448.503ZM493.08 29.9775L501.48 82.4775H493.155L491.73 72.9525H481.605L480.18 82.4775H472.605L481.005 29.9775H493.08ZM486.63 39.2775L482.655 65.8275H490.605L486.63 39.2775ZM522.947 82.4775L512.672 44.4525V82.4775H505.247V29.9775H515.597L524.072 61.4025V29.9775H531.422V82.4775H522.947ZM544.904 42.0525V70.4025C544.904 74.1525 546.554 75.5775 549.179 75.5775C551.804 75.5775 553.454 74.1525 553.454 70.4025V42.0525C553.454 38.3025 551.804 36.8775 549.179 36.8775C546.554 36.8775 544.904 38.3025 544.904 42.0525ZM536.654 69.8775V42.5775C536.654 34.1775 541.079 29.3775 549.179 29.3775C557.279 29.3775 561.704 34.1775 561.704 42.5775V69.8775C561.704 78.2775 557.279 83.0775 549.179 83.0775C541.079 83.0775 536.654 78.2775 536.654 69.8775ZM566.015 42.5775C566.015 34.1775 570.14 29.3775 578.165 29.3775C586.19 29.3775 590.315 34.1775 590.315 42.5775V44.2275H582.515V42.0525C582.515 38.3025 581.015 36.8775 578.39 36.8775C575.765 36.8775 574.265 38.3025 574.265 42.0525C574.265 52.8525 590.39 54.8775 590.39 69.8775C590.39 78.2775 586.19 83.0775 578.09 83.0775C569.99 83.0775 565.79 78.2775 565.79 69.8775V66.6525H573.59V70.4025C573.59 74.1525 575.24 75.5025 577.865 75.5025C580.49 75.5025 582.14 74.1525 582.14 70.4025C582.14 59.6025 566.015 57.5775 566.015 42.5775Z" fill="black"/>
<path d="M864.425 76.4768V110.409H830.492" stroke="black" stroke-width="2"/>
<path d="M1.57428 76.4768V110.409H35.5069" stroke="black" stroke-width="2"/>
<path d="M864.425 35.6836V1.75098H830.492" stroke="black" stroke-width="2"/>
<path d="M1.57422 35.6836V1.75098H35.5068" stroke="black" stroke-width="2"/>
</svg>
