<svg width="352" height="89" viewBox="0 0 352 89" fill="none" xmlns="http://www.w3.org/2000/svg">
<path d="M54.6697 50.9246H61.4297V56.9696C61.4297 64.2496 57.7897 68.4096 50.7697 68.4096C43.7497 68.4096 40.1097 64.2496 40.1097 56.9696V33.3096C40.1097 26.0296 43.7497 21.8696 50.7697 21.8696C57.7897 21.8696 61.4297 26.0296 61.4297 33.3096V37.7296H54.6697V32.8546C54.6697 29.6046 53.2397 28.3696 50.9647 28.3696C48.6897 28.3696 47.2597 29.6046 47.2597 32.8546V57.4246C47.2597 60.6746 48.6897 61.8446 50.9647 61.8446C53.2397 61.8446 54.6697 60.6746 54.6697 57.4246V50.9246ZM72.333 32.8546V57.4246C72.333 60.6746 73.763 61.9096 76.038 61.9096C78.313 61.9096 79.743 60.6746 79.743 57.4246V32.8546C79.743 29.6046 78.313 28.3696 76.038 28.3696C73.763 28.3696 72.333 29.6046 72.333 32.8546ZM65.183 56.9696V33.3096C65.183 26.0296 69.018 21.8696 76.038 21.8696C83.058 21.8696 86.893 26.0296 86.893 33.3096V56.9696C86.893 64.2496 83.058 68.4096 76.038 68.4096C69.018 68.4096 65.183 64.2496 65.183 56.9696ZM106.814 67.8896L97.9095 34.9346V67.8896H91.4745V22.3896H100.444L107.789 49.6246V22.3896H114.159V67.8896H106.814ZM117.199 28.8896V22.3896H139.299V28.8896H131.824V67.8896H124.674V28.8896H117.199ZM155.832 22.3896L163.112 67.8896H155.897L154.662 59.6346H145.887L144.652 67.8896H138.087L145.367 22.3896H155.832ZM150.242 30.4496L146.797 53.4596H153.687L150.242 30.4496ZM180.417 50.9246H187.177V56.9696C187.177 64.2496 183.537 68.4096 176.517 68.4096C169.497 68.4096 165.857 64.2496 165.857 56.9696V33.3096C165.857 26.0296 169.497 21.8696 176.517 21.8696C183.537 21.8696 187.177 26.0296 187.177 33.3096V37.7296H180.417V32.8546C180.417 29.6046 178.987 28.3696 176.712 28.3696C174.437 28.3696 173.007 29.6046 173.007 32.8546V57.4246C173.007 60.6746 174.437 61.8446 176.712 61.8446C178.987 61.8446 180.417 60.6746 180.417 57.4246V50.9246ZM189.435 28.8896V22.3896H211.535V28.8896H204.06V67.8896H196.91V28.8896H189.435ZM228.068 22.3896L235.348 67.8896H228.133L226.898 59.6346H218.123L216.888 67.8896H210.323L217.603 22.3896H228.068ZM222.478 30.4496L219.033 53.4596H225.923L222.478 30.4496ZM253.953 67.8896L245.048 34.9346V67.8896H238.613V22.3896H247.583L254.928 49.6246V22.3896H261.298V67.8896H253.953ZM272.982 32.8546V57.4246C272.982 60.6746 274.412 61.9096 276.687 61.9096C278.962 61.9096 280.392 60.6746 280.392 57.4246V32.8546C280.392 29.6046 278.962 28.3696 276.687 28.3696C274.412 28.3696 272.982 29.6046 272.982 32.8546ZM265.832 56.9696V33.3096C265.832 26.0296 269.667 21.8696 276.687 21.8696C283.707 21.8696 287.542 26.0296 287.542 33.3096V56.9696C287.542 64.2496 283.707 68.4096 276.687 68.4096C269.667 68.4096 265.832 64.2496 265.832 56.9696ZM291.279 33.3096C291.279 26.0296 294.854 21.8696 301.809 21.8696C308.764 21.8696 312.339 26.0296 312.339 33.3096V34.7396H305.579V32.8546C305.579 29.6046 304.279 28.3696 302.004 28.3696C299.729 28.3696 298.429 29.6046 298.429 32.8546C298.429 42.2146 312.404 43.9696 312.404 56.9696C312.404 64.2496 308.764 68.4096 301.744 68.4096C294.724 68.4096 291.084 64.2496 291.084 56.9696V54.1746H297.844V57.4246C297.844 60.6746 299.274 61.8446 301.549 61.8446C303.824 61.8446 305.254 60.6746 305.254 57.4246C305.254 48.0646 291.279 46.3096 291.279 33.3096Z" fill="black"/>
<path d="M350.999 73.8892V87.6492H337.235" stroke="black" stroke-width="2"/>
<path d="M0.999024 73.8892V87.6492H14.7632" stroke="black" stroke-width="2"/>
<path d="M350.999 15.0957V1.3357H337.235" stroke="black" stroke-width="2"/>
<path d="M0.999024 15.0957V1.3357H14.7632" stroke="black" stroke-width="2"/>
</svg>
