<svg width="563" height="130" viewBox="0 0 563 130" fill="none" xmlns="http://www.w3.org/2000/svg">
<path d="M61.8352 127.683H41.6752C40.5952 124.443 39.8752 122.463 39.8752 112.203V92.4029C39.8752 80.7029 35.9152 76.3829 26.9152 76.3829H20.0752V127.683H0.275196V1.68285H30.1552C50.6752 1.68285 59.4952 11.2229 59.4952 30.6629V40.5629C59.4952 53.5229 55.3552 61.9829 46.5352 66.1229C56.4352 70.2629 59.6752 79.8029 59.6752 92.9429V112.383C59.6752 118.503 59.8552 123.003 61.8352 127.683ZM29.6152 19.6829H20.0752V58.3829H27.8152C35.1952 58.3829 39.6952 55.1429 39.6952 45.0629V32.6429C39.6952 23.6429 36.6352 19.6829 29.6152 19.6829ZM92.4971 19.6829V54.7829H119.677V72.7829H92.4971V109.683H126.697V127.683H72.6971V1.68285H126.697V19.6829H92.4971ZM138.967 127.683V1.68285H170.287C190.087 1.68285 199.807 12.6629 199.807 32.8229V96.5429C199.807 116.703 190.087 127.683 170.287 127.683H138.967ZM169.927 19.6829H158.767V109.683H169.927C176.227 109.683 180.007 106.443 180.007 97.4429V31.9229C180.007 22.9229 176.227 19.6829 169.927 19.6829ZM260.192 19.6829V57.6629H285.752V75.6629H260.192V127.683H240.392V1.68285H292.772V19.6829H260.192ZM302.267 127.683V1.68285H322.067V109.683H354.647V127.683H302.267ZM407.183 1.68285L427.343 127.683H407.363L403.943 104.823H379.643L376.223 127.683H358.043L378.203 1.68285H407.183ZM391.703 24.0029L382.163 87.7229H401.243L391.703 24.0029ZM466.264 75.4829V57.4829H493.984V97.4429C493.984 117.603 483.904 129.123 464.464 129.123C445.024 129.123 434.944 117.603 434.944 97.4429V31.9229C434.944 11.7629 445.024 0.242861 464.464 0.242861C483.904 0.242861 493.984 11.7629 493.984 31.9229V44.1629H475.264V30.6629C475.264 21.6629 471.304 18.2429 465.004 18.2429C458.704 18.2429 454.744 21.6629 454.744 30.6629V98.7029C454.744 107.703 458.704 110.943 465.004 110.943C471.304 110.943 475.264 107.703 475.264 98.7029V75.4829H466.264ZM504.181 31.9229C504.181 11.7629 514.081 0.242861 533.341 0.242861C552.601 0.242861 562.501 11.7629 562.501 31.9229V35.8829H543.781V30.6629C543.781 21.6629 540.181 18.2429 533.881 18.2429C527.581 18.2429 523.981 21.6629 523.981 30.6629C523.981 56.5829 562.681 61.4429 562.681 97.4429C562.681 117.603 552.601 129.123 533.161 129.123C513.721 129.123 503.641 117.603 503.641 97.4429V89.7029H522.361V98.7029C522.361 107.703 526.321 110.943 532.621 110.943C538.921 110.943 542.881 107.703 542.881 98.7029C542.881 72.7829 504.181 67.9229 504.181 31.9229Z" fill="#FF0000"/>
</svg>
