<svg width="516" height="178" viewBox="0 0 516 178" fill="none" xmlns="http://www.w3.org/2000/svg">
<path d="M8.26973 6.82182C13.5697 6.82182 15.7197 10.5218 15.7197 15.5718V16.3218H13.5197V15.4218C13.5197 11.7218 12.1197 8.92182 8.31973 8.92182C4.51973 8.92182 3.11973 11.6718 3.11973 15.3718C3.11973 23.8718 15.7697 24.0218 15.7697 33.6718C15.7697 38.7218 13.5697 42.4218 8.21973 42.4218C2.86973 42.4218 0.669727 38.7218 0.669727 33.6718V31.8718H2.86973V33.8218C2.86973 37.5718 4.31973 40.2718 8.16973 40.2718C12.0197 40.2718 13.4697 37.5718 13.4697 33.8218C13.4697 25.4218 0.819727 25.2718 0.819727 15.5218C0.819727 10.2718 3.11973 6.87182 8.26973 6.82182ZM19.3256 33.5718V15.6718C19.3256 10.5718 21.6756 6.82182 26.9756 6.82182C32.3756 6.82182 34.7256 10.5718 34.7256 15.6718V33.5718C34.7256 38.6718 32.3756 42.4218 26.9756 42.4218C21.6756 42.4218 19.3256 38.6718 19.3256 33.5718ZM21.6256 15.5218V33.7218C21.6256 37.5218 23.1256 40.3218 26.9756 40.3218C30.8756 40.3218 32.4256 37.5218 32.4256 33.7218V15.5218C32.4256 11.7218 30.8756 8.92182 26.9756 8.92182C23.1256 8.92182 21.6256 11.7218 21.6256 15.5218ZM40.8186 24.1718H49.8686V26.2718H40.8186V42.1218H38.5186V7.12182H51.8186V9.22182H40.8186V24.1718ZM54.5654 5.07182L58.1154 0.321825H60.5154L56.3154 5.07182H54.5654ZM55.3154 42.1218V7.12182H57.6154V42.1218H55.3154ZM75.8643 34.3718H64.9643L63.2143 42.1218H61.1143L68.7643 7.07182H72.1143L79.9143 42.1218H77.6143L75.8643 34.3718ZM70.3643 9.72183L65.3143 32.3718H75.5143L70.3643 9.72183ZM91.1553 7.12182H98.4053C103.805 7.12182 105.905 10.5218 105.905 15.6218V19.4218C105.905 24.9718 103.355 27.7218 97.8053 27.7218H93.4553V42.1218H91.1553V7.12182ZM93.4553 25.6218H97.8053C101.855 25.6218 103.605 23.8218 103.605 19.5718V15.4718C103.605 11.6718 102.305 9.22182 98.4053 9.22182H93.4553V25.6218ZM118.066 0.371824H120.466L116.266 5.12183H114.516L118.066 0.371824ZM111.766 23.3218H121.316V25.4218H111.766V40.0218H123.266V42.1218H109.466V7.12182H123.266V9.22182H111.766V23.3218ZM126.995 7.12182H134.295C139.645 7.12182 141.795 10.0718 141.795 15.0218V18.0718C141.795 22.1718 140.195 24.5218 136.745 25.3218C140.345 26.1218 141.795 28.6718 141.795 32.4718V37.9218C141.795 39.3718 141.895 40.9718 142.645 42.1218H140.245C139.645 41.0718 139.495 39.8218 139.495 37.9218V32.4218C139.495 27.7718 136.945 26.4718 132.945 26.4718H129.295V42.1218H126.995V7.12182ZM129.295 24.3718H132.995C137.095 24.3718 139.495 23.2218 139.495 18.5218V15.2218C139.495 11.4718 138.045 9.22182 134.245 9.22182H129.295V24.3718ZM148.582 23.3218H158.132V25.4218H148.582V40.0218H160.082V42.1218H146.282V7.12182H160.082V9.22182H148.582V23.3218ZM179.262 40.0218V42.1218H163.512V40.0218L177.062 9.22182H164.162V7.12182H179.462V9.27183L165.912 40.0218H179.262ZM190.96 32.1718V30.3718L203.46 24.6218L190.96 18.8718V17.0718L205.66 23.7718V25.4718L190.96 32.1718ZM209.466 32.1718V30.3718L221.966 24.6218L209.466 18.8718V17.0718L224.166 23.7718V25.4718L209.466 32.1718ZM227.972 32.1718V30.3718L240.472 24.6218L227.972 18.8718V17.0718L242.672 23.7718V25.4718L227.972 32.1718ZM246.478 32.1718V30.3718L258.978 24.6218L246.478 18.8718V17.0718L261.178 23.7718V25.4718L246.478 32.1718ZM264.983 32.1718V30.3718L277.483 24.6218L264.983 18.8718V17.0718L279.683 23.7718V25.4718L264.983 32.1718ZM298.803 6.82182C304.253 6.82182 306.353 10.6218 306.353 15.7218C306.353 25.8218 293.703 29.3218 293.553 39.6218V40.0218H306.053V42.1218H291.253V40.4218C291.253 28.0718 304.053 25.4218 304.053 15.8218C304.053 11.7718 302.703 8.92182 298.703 8.92182C294.853 8.92182 293.453 11.9218 293.453 15.6718V18.0718H291.253V15.8218C291.253 10.7718 293.403 6.82182 298.803 6.82182ZM317.601 6.77183C323.001 6.77183 325.301 10.5218 325.301 15.6718V33.4718C325.301 38.6718 323.051 42.4218 317.601 42.4218C312.251 42.4218 309.951 38.7718 309.951 33.6718V33.2218H312.151V33.7718C312.151 37.5718 313.701 40.3218 317.551 40.3218C321.451 40.3218 323.001 37.5218 323.001 33.3718V24.7718C321.901 27.3718 319.901 28.4718 316.801 28.4718C311.901 28.4718 309.901 24.8718 309.901 19.9218V15.6718C309.901 10.5218 312.251 6.77183 317.601 6.77183ZM317.601 8.92182C313.751 8.92182 312.201 11.7218 312.201 15.5218V19.7718C312.201 23.5718 313.751 26.3718 317.601 26.3718C321.451 26.3718 323.001 23.5718 323.001 19.7718V15.5218C323.001 11.7218 321.451 8.92182 317.601 8.92182ZM351.206 34.3718H340.306L338.556 42.1218H336.456L344.106 7.07182H347.456L355.256 42.1218H352.956L351.206 34.3718ZM345.706 9.72183L340.656 32.3718H350.856L345.706 9.72183ZM370.783 1.17182L371.983 2.02182C371.383 3.47182 370.383 4.32182 369.083 4.37182C367.233 4.42183 366.033 2.67182 364.433 2.72182C363.533 2.72182 362.883 3.27183 362.333 4.22183L361.133 3.42182C361.783 1.87182 362.883 1.07182 364.233 1.02182C366.133 0.971825 367.383 2.77182 368.883 2.67182C369.733 2.67182 370.333 2.02182 370.783 1.17182ZM360.833 10.9218V42.1218H358.733V7.12182H361.733L372.233 36.6718V7.12182H374.333V42.1218H371.783L360.833 10.9218ZM378.115 33.5718V15.6718C378.115 10.5718 380.465 6.82182 385.765 6.82182C391.165 6.82182 393.515 10.5718 393.515 15.6718V33.5718C393.515 38.6718 391.165 42.4218 385.765 42.4218C380.465 42.4218 378.115 38.6718 378.115 33.5718ZM380.415 15.5218V33.7218C380.415 37.5218 381.915 40.3218 385.765 40.3218C389.665 40.3218 391.215 37.5218 391.215 33.7218V15.5218C391.215 11.7218 389.665 8.92182 385.765 8.92182C381.915 8.92182 380.415 11.7218 380.415 15.5218ZM404.608 6.82182C409.908 6.82182 412.058 10.5218 412.058 15.5718V16.3218H409.858V15.4218C409.858 11.7218 408.458 8.92182 404.658 8.92182C400.858 8.92182 399.458 11.6718 399.458 15.3718C399.458 23.8718 412.108 24.0218 412.108 33.6718C412.108 38.7218 409.908 42.4218 404.558 42.4218C399.208 42.4218 397.008 38.7218 397.008 33.6718V31.8718H399.208V33.8218C399.208 37.5718 400.658 40.2718 404.508 40.2718C408.358 40.2718 409.808 37.5718 409.808 33.8218C409.808 25.4218 397.158 25.2718 397.158 15.5218C397.158 10.2718 399.458 6.87182 404.608 6.82182ZM423.577 32.1718V30.3718L436.077 24.6218L423.577 18.8718V17.0718L438.277 23.7718V25.4718L423.577 32.1718ZM442.083 32.1718V30.3718L454.583 24.6218L442.083 18.8718V17.0718L456.783 23.7718V25.4718L442.083 32.1718ZM460.589 32.1718V30.3718L473.089 24.6218L460.589 18.8718V17.0718L475.289 23.7718V25.4718L460.589 32.1718ZM479.095 32.1718V30.3718L491.595 24.6218L479.095 18.8718V17.0718L493.795 23.7718V25.4718L479.095 32.1718ZM497.601 32.1718V30.3718L510.101 24.6218L497.601 18.8718V17.0718L512.301 23.7718V25.4718L497.601 32.1718ZM94.1338 77.1718V75.3718L106.634 69.6218L94.1338 63.8718V62.0718L108.834 68.7718V70.4718L94.1338 77.1718ZM112.64 77.1718V75.3718L125.14 69.6218L112.64 63.8718V62.0718L127.34 68.7718V70.4718L112.64 77.1718ZM131.146 77.1718V75.3718L143.646 69.6218L131.146 63.8718V62.0718L145.846 68.7718V70.4718L131.146 77.1718ZM149.651 77.1718V75.3718L162.151 69.6218L149.651 63.8718V62.0718L164.351 68.7718V70.4718L149.651 77.1718ZM178.221 68.3218H187.771V70.4218H178.221V85.0218H189.721V87.1218H175.921V52.1218H189.721V54.2218H178.221V68.3218ZM200.75 51.8218C206.05 51.8218 208.2 55.5218 208.2 60.5718V61.3218H206V60.4218C206 56.7218 204.6 53.9218 200.8 53.9218C197 53.9218 195.6 56.6718 195.6 60.3718C195.6 68.8718 208.25 69.0218 208.25 78.6718C208.25 83.7218 206.05 87.4218 200.7 87.4218C195.35 87.4218 193.15 83.7218 193.15 78.6718V76.8718H195.35V78.8218C195.35 82.5718 196.8 85.2718 200.65 85.2718C204.5 85.2718 205.95 82.5718 205.95 78.8218C205.95 70.4218 193.3 70.2718 193.3 60.5218C193.3 55.2718 195.6 51.8718 200.75 51.8218ZM220.306 87.1218H218.006V54.2218H210.856V52.1218H227.406V54.2218H220.306V87.1218ZM232.613 52.1218V78.6718C232.613 82.4218 234.013 85.3218 237.863 85.3218C241.713 85.3218 243.113 82.4218 243.113 78.6718V52.1218H245.263V78.5718C245.263 83.5718 243.163 87.4218 237.813 87.4218C232.463 87.4218 230.313 83.5718 230.313 78.5718V52.1218H232.613ZM249.212 52.1218H256.912C262.312 52.1218 264.662 55.6718 264.662 60.8218V78.4218C264.662 83.5718 262.312 87.1218 256.912 87.1218H249.212V52.1218ZM251.512 85.0218H256.862C260.762 85.0218 262.362 82.3718 262.362 78.5218V60.7218C262.362 56.8718 260.712 54.2218 256.862 54.2218H251.512V85.0218ZM268.45 52.1218H270.75V87.1218H268.45V52.1218ZM288.999 79.3718H278.099L276.349 87.1218H274.249L281.899 52.0718H285.249L293.049 87.1218H290.749L288.999 79.3718ZM283.499 54.7218L278.449 77.3718H288.649L283.499 54.7218ZM298.626 55.9218V87.1218H296.526V52.1218H299.526L310.026 81.6718V52.1218H312.126V87.1218H309.576L298.626 55.9218ZM324.408 87.1218H322.108V54.2218H314.958V52.1218H331.508V54.2218H324.408V87.1218ZM336.815 68.3218H346.365V70.4218H336.815V85.0218H348.315V87.1218H334.515V52.1218H348.315V54.2218H336.815V68.3218ZM359.808 52.1218H367.508C372.908 52.1218 375.258 55.6718 375.258 60.8218V78.4218C375.258 83.5718 372.908 87.1218 367.508 87.1218H359.808V52.1218ZM362.108 85.0218H367.458C371.358 85.0218 372.958 82.3718 372.958 78.5218V60.7218C372.958 56.8718 371.308 54.2218 367.458 54.2218H362.108V85.0218ZM381.346 68.3218H390.896V70.4218H381.346V85.0218H392.846V87.1218H379.046V52.1218H392.846V54.2218H381.346V68.3218ZM412.689 87.1218H410.389V54.2218H403.239V52.1218H419.789V54.2218H412.689V87.1218ZM425.096 68.3218H434.646V70.4218H425.096V85.0218H436.596V87.1218H422.796V52.1218H436.596V54.2218H425.096V68.3218ZM454.575 79.3718H443.675L441.925 87.1218H439.825L447.475 52.0718H450.825L458.625 87.1218H456.325L454.575 79.3718ZM449.075 54.7218L444.025 77.3718H454.225L449.075 54.7218ZM470.453 87.1218H468.153V54.2218H461.003V52.1218H477.553V54.2218H470.453V87.1218ZM480.56 52.1218H487.86C493.21 52.1218 495.36 55.0718 495.36 60.0218V63.0718C495.36 67.1718 493.76 69.5218 490.31 70.3218C493.91 71.1218 495.36 73.6718 495.36 77.4718V82.9218C495.36 84.3718 495.46 85.9718 496.21 87.1218H493.81C493.21 86.0718 493.06 84.8218 493.06 82.9218V77.4218C493.06 72.7718 490.51 71.4718 486.51 71.4718H482.86V87.1218H480.56V52.1218ZM482.86 69.3718H486.56C490.66 69.3718 493.06 68.2218 493.06 63.5218V60.2218C493.06 56.4718 491.61 54.2218 487.81 54.2218H482.86V69.3718ZM499.697 78.5718V60.6718C499.697 55.5718 502.047 51.8218 507.347 51.8218C512.747 51.8218 515.097 55.5718 515.097 60.6718V78.5718C515.097 83.6718 512.747 87.4218 507.347 87.4218C502.047 87.4218 499.697 83.6718 499.697 78.5718ZM501.997 60.5218V78.7218C501.997 82.5218 503.497 85.3218 507.347 85.3218C511.247 85.3218 512.797 82.5218 512.797 78.7218V60.5218C512.797 56.7218 511.247 53.9218 507.347 53.9218C503.497 53.9218 501.997 56.7218 501.997 60.5218ZM0.969727 122.172V120.372L13.4697 114.622L0.969727 108.872V107.072L15.6697 113.772V115.472L0.969727 122.172ZM19.4756 122.172V120.372L31.9756 114.622L19.4756 108.872V107.072L34.1756 113.772V115.472L19.4756 122.172ZM37.9814 122.172V120.372L50.4814 114.622L37.9814 108.872V107.072L52.6814 113.772V115.472L37.9814 122.172ZM56.4873 122.172V120.372L68.9873 114.622L56.4873 108.872V107.072L71.1873 113.772V115.472L56.4873 122.172ZM74.9932 122.172V120.372L87.4932 114.622L74.9932 108.872V107.072L89.6932 113.772V115.472L74.9932 122.172ZM100.763 97.1218H103.113L110.213 129.472L117.313 97.1218H119.463L111.863 132.122H108.463L100.763 97.1218ZM122.942 97.1218H125.242V132.122H122.942V97.1218ZM136.541 96.8218C141.841 96.8218 143.991 100.522 143.991 105.572V106.322H141.791V105.422C141.791 101.722 140.391 98.9218 136.591 98.9218C132.791 98.9218 131.391 101.672 131.391 105.372C131.391 113.872 144.041 114.022 144.041 123.672C144.041 128.722 141.841 132.422 136.491 132.422C131.141 132.422 128.941 128.722 128.941 123.672V121.872H131.141V123.822C131.141 127.572 132.591 130.272 136.441 130.272C140.291 130.272 141.741 127.572 141.741 123.822C141.741 115.422 129.091 115.272 129.091 105.522C129.091 100.272 131.391 96.8718 136.541 96.8218ZM156.097 132.122H153.797V99.2218H146.647V97.1218H163.197V99.2218H156.097V132.122ZM166.054 123.572V105.672C166.054 100.572 168.404 96.8218 173.704 96.8218C179.104 96.8218 181.454 100.572 181.454 105.672V123.572C181.454 128.672 179.104 132.422 173.704 132.422C168.404 132.422 166.054 128.672 166.054 123.572ZM168.354 105.522V123.722C168.354 127.522 169.854 130.322 173.704 130.322C177.604 130.322 179.154 127.522 179.154 123.722V105.522C179.154 101.722 177.604 98.9218 173.704 98.9218C169.854 98.9218 168.354 101.722 168.354 105.522ZM193.011 122.172V120.372L205.511 114.622L193.011 108.872V107.072L207.711 113.772V115.472L193.011 122.172ZM211.517 122.172V120.372L224.017 114.622L211.517 108.872V107.072L226.217 113.772V115.472L211.517 122.172ZM230.022 122.172V120.372L242.522 114.622L230.022 108.872V107.072L244.722 113.772V115.472L230.022 122.172ZM248.528 122.172V120.372L261.028 114.622L248.528 108.872V107.072L263.228 113.772V115.472L248.528 122.172ZM293.848 101.022L286.548 132.072H284.248L276.848 101.122V132.122H274.798V97.1218H278.098L285.448 128.072L292.748 97.1218H296.048V132.122H293.848V101.022ZM314.292 124.372H303.392L301.642 132.122H299.542L307.192 97.0718H310.542L318.342 132.122H316.042L314.292 124.372ZM308.792 99.7218L303.742 122.372H313.942L308.792 99.7218ZM321.819 97.1218H329.119C334.469 97.1218 336.619 100.072 336.619 105.022V108.072C336.619 112.172 335.019 114.522 331.569 115.322C335.169 116.122 336.619 118.672 336.619 122.472V127.922C336.619 129.372 336.719 130.972 337.469 132.122H335.069C334.469 131.072 334.319 129.822 334.319 127.922V122.422C334.319 117.772 331.769 116.472 327.769 116.472H324.119V132.122H321.819V97.1218ZM324.119 114.372H327.819C331.919 114.372 334.319 113.222 334.319 108.522V105.222C334.319 101.472 332.869 99.2218 329.069 99.2218H324.119V114.372ZM348.506 96.8218C353.856 96.8218 356.056 100.622 356.056 105.672V108.572H353.856V105.522C353.856 101.772 352.406 98.9218 348.556 98.9218C344.706 98.9218 343.256 101.772 343.256 105.522V123.722C343.256 127.472 344.706 130.272 348.556 130.272C352.406 130.272 353.856 127.472 353.856 123.722V119.572H356.056V123.572C356.056 128.622 353.856 132.422 348.506 132.422C343.156 132.422 340.956 128.622 340.956 123.572V105.672C340.956 100.622 343.156 96.8218 348.506 96.8218ZM373.008 115.672H362.108V132.122H359.808V97.1218H362.108V113.572H373.008V97.1218H375.358V132.122H373.008V115.672ZM393.589 124.372H382.689L380.939 132.122H378.839L386.489 97.0718H389.839L397.639 132.122H395.339L393.589 124.372ZM388.089 99.7218L383.039 122.372H393.239L388.089 99.7218ZM408.88 97.1218H416.58C421.98 97.1218 424.33 100.672 424.33 105.822V123.422C424.33 128.572 421.98 132.122 416.58 132.122H408.88V97.1218ZM411.18 130.022H416.53C420.43 130.022 422.03 127.372 422.03 123.522V105.722C422.03 101.872 420.38 99.2218 416.53 99.2218H411.18V130.022ZM430.418 113.322H439.968V115.422H430.418V130.022H441.918V132.122H428.118V97.1218H441.918V99.2218H430.418V113.322ZM458.947 132.122H445.647V97.1218H447.947V130.022H458.947V132.122ZM477.859 96.8218C483.109 96.8218 485.809 100.122 485.809 105.322V106.422C485.809 110.022 484.459 112.872 481.159 113.772C484.559 114.772 485.809 117.622 485.809 121.272V123.772C485.809 128.922 483.209 132.422 477.859 132.422C472.459 132.422 469.909 128.922 469.909 123.772V121.272C469.909 117.572 471.109 114.822 474.609 113.772C471.209 112.822 469.909 110.122 469.909 106.422V105.322C469.909 100.122 472.559 96.8218 477.859 96.8218ZM477.859 98.9218C474.109 98.9218 472.209 101.272 472.209 105.372V106.822C472.209 110.772 474.159 112.822 477.859 112.822C481.559 112.822 483.509 110.772 483.509 106.822V105.372C483.509 101.272 481.559 98.9218 477.859 98.9218ZM477.859 114.922C474.009 114.922 472.209 116.972 472.209 121.072V123.722C472.209 127.772 474.059 130.322 477.859 130.322C481.659 130.322 483.459 127.772 483.509 123.722V121.072C483.509 116.972 481.659 114.922 477.859 114.922ZM508.594 101.022L501.294 132.072H498.994L491.594 101.122V132.122H489.544V97.1218H492.844L500.194 128.072L507.494 97.1218H510.794V132.122H508.594V101.022ZM16.4197 175.022V177.122H0.669727V175.022L14.2197 144.222H1.31973V142.122H16.6197V144.272L3.06973 175.022H16.4197ZM20.2045 168.572V150.672C20.2045 145.572 22.5545 141.822 27.8545 141.822C33.2545 141.822 35.6045 145.572 35.6045 150.672V168.572C35.6045 173.672 33.2545 177.422 27.8545 177.422C22.5545 177.422 20.2045 173.672 20.2045 168.572ZM22.5045 150.522V168.722C22.5045 172.522 24.0045 175.322 27.8545 175.322C31.7545 175.322 33.3045 172.522 33.3045 168.722V150.522C33.3045 146.722 31.7545 143.922 27.8545 143.922C24.0045 143.922 22.5045 146.722 22.5045 150.522ZM41.4975 145.922V177.122H39.3975V142.122H42.3975L52.8975 171.672V142.122H54.9975V177.122H52.4475L41.4975 145.922ZM73.1787 169.372H62.2787L60.5287 177.122H58.4287L66.0787 142.072H69.4287L77.2287 177.122H74.9287L73.1787 169.372ZM67.6787 144.722L62.6287 167.372H72.8287L67.6787 144.722ZM88.4697 142.122H96.1697C101.57 142.122 103.92 145.672 103.92 150.822V168.422C103.92 173.572 101.57 177.122 96.1697 177.122H88.4697V142.122ZM90.7697 175.022H96.1197C100.02 175.022 101.62 172.372 101.62 168.522V150.722C101.62 146.872 99.9697 144.222 96.1197 144.222H90.7697V175.022ZM110.008 158.322H119.558V160.422H110.008V175.022H121.508V177.122H107.708V142.122H121.508V144.222H110.008V158.322ZM135.301 159.172H144.351V161.272H135.301V177.122H133.001V142.122H146.301V144.222H135.301V159.172ZM149.798 142.122H157.098C162.448 142.122 164.598 145.072 164.598 150.022V153.072C164.598 157.172 162.998 159.522 159.548 160.322C163.148 161.122 164.598 163.672 164.598 167.472V172.922C164.598 174.372 164.698 175.972 165.448 177.122H163.048C162.448 176.072 162.298 174.822 162.298 172.922V167.422C162.298 162.772 159.748 161.472 155.748 161.472H152.098V177.122H149.798V142.122ZM152.098 159.372H155.798C159.898 159.372 162.298 158.222 162.298 153.522V150.222C162.298 146.472 160.848 144.222 157.048 144.222H152.098V159.372ZM171.385 158.322H180.935V160.422H171.385V175.022H182.885V177.122H169.085V142.122H182.885V144.222H171.385V158.322ZM194.014 141.822C199.364 141.822 201.564 145.622 201.564 150.672V153.572H199.364V150.522C199.364 146.772 197.914 143.922 194.064 143.922C190.214 143.922 188.764 146.772 188.764 150.522V168.722C188.764 172.472 190.214 175.272 194.064 175.272C197.914 175.272 199.364 172.472 199.364 168.722V164.572H201.564V168.572C201.564 173.622 199.364 177.422 194.014 177.422C188.664 177.422 186.464 173.622 186.464 168.572V150.672C186.464 145.622 188.664 141.822 194.014 141.822ZM207.515 142.122V168.672C207.515 172.422 208.915 175.322 212.765 175.322C216.615 175.322 218.015 172.422 218.015 168.672V142.122H220.165V168.572C220.165 173.572 218.065 177.422 212.715 177.422C207.365 177.422 205.215 173.572 205.215 168.572V142.122H207.515ZM226.414 158.322H235.964V160.422H226.414V175.022H237.914V177.122H224.114V142.122H237.914V144.222H226.414V158.322ZM243.744 145.922V177.122H241.644V142.122H244.644L255.144 171.672V142.122H257.244V177.122H254.694L243.744 145.922ZM268.575 141.822C273.925 141.822 276.125 145.622 276.125 150.672V153.572H273.925V150.522C273.925 146.772 272.475 143.922 268.625 143.922C264.775 143.922 263.325 146.772 263.325 150.522V168.722C263.325 172.472 264.775 175.272 268.625 175.272C272.475 175.272 273.925 172.472 273.925 168.722V164.572H276.125V168.572C276.125 173.622 273.925 177.422 268.575 177.422C263.225 177.422 261.025 173.622 261.025 168.572V150.672C261.025 145.622 263.225 141.822 268.575 141.822ZM279.876 142.122H282.176V177.122H279.876V142.122ZM300.425 169.372H289.525L287.775 177.122H285.675L293.325 142.072H296.675L304.475 177.122H302.175L300.425 169.372ZM294.925 144.722L289.875 167.372H300.075L294.925 144.722ZM315.716 167.172V165.372L328.216 159.622L315.716 153.872V152.072L330.416 158.772V160.472L315.716 167.172ZM341.985 142.122H349.335C354.585 142.122 356.485 144.722 356.485 149.572V151.572C356.485 155.372 355.435 157.722 351.885 158.472C355.685 159.222 357.135 162.022 357.135 165.972V169.022C357.135 174.072 354.835 177.122 349.485 177.122H341.985V142.122ZM344.285 157.572H348.185C352.285 157.572 354.185 156.472 354.185 152.022V149.772C354.185 146.122 353.035 144.222 349.285 144.222H344.285V157.572ZM344.285 175.022H349.485C353.335 175.022 354.835 172.872 354.835 168.972V165.822C354.835 161.272 352.785 159.672 348.635 159.672H344.285V175.022ZM375.132 169.372H364.232L362.482 177.122H360.382L368.032 142.072H371.382L379.182 177.122H376.882L375.132 169.372ZM369.632 144.722L364.582 167.372H374.782L369.632 144.722ZM395.959 177.122H382.659V142.122H384.959V175.022H395.959V177.122ZM397.247 142.122H399.597L406.697 174.472L413.797 142.122H415.947L408.347 177.122H404.947L397.247 142.122ZM432.407 169.372H421.507L419.757 177.122H417.657L425.307 142.072H428.657L436.457 177.122H434.157L432.407 169.372ZM426.907 144.722L421.857 167.372H432.057L426.907 144.722ZM442.035 145.922V177.122H439.935V142.122H442.935L453.435 171.672V142.122H455.535V177.122H452.985L442.035 145.922ZM461.766 158.322H471.316V160.422H461.766V175.022H473.266V177.122H459.466V142.122H473.266V144.222H461.766V158.322ZM476.995 142.122H484.295C489.645 142.122 491.795 145.072 491.795 150.022V153.072C491.795 157.172 490.195 159.522 486.745 160.322C490.345 161.122 491.795 163.672 491.795 167.472V172.922C491.795 174.372 491.895 175.972 492.645 177.122H490.245C489.645 176.072 489.495 174.822 489.495 172.922V167.422C489.495 162.772 486.945 161.472 482.945 161.472H479.295V177.122H476.995V142.122ZM479.295 159.372H482.995C487.095 159.372 489.495 158.222 489.495 153.522V150.222C489.495 146.472 488.045 144.222 484.245 144.222H479.295V159.372ZM510.532 169.372H499.632L497.882 177.122H495.782L503.432 142.072H506.782L514.582 177.122H512.282L510.532 169.372ZM505.032 144.722L499.982 167.372H510.182L505.032 144.722Z" fill="#FF0000"/>
</svg>
